<svg width="82" height="83" viewBox="0 0 82 83" fill="none" xmlns="http://www.w3.org/2000/svg">
<g id="Group 34412">
<path id="Vector" fill-rule="evenodd" clip-rule="evenodd" d="M41.0007 1.5C63.0762 1.5 81 19.4238 81 41.5007C81 63.5777 63.0762 81.5 41.0007 81.5C18.9252 81.5 1 63.5762 1 41.5007C1 19.4252 18.9238 1.5 41.0007 1.5Z" fill="#C7CEFF"/>
<path id="Vector_2" d="M41.0007 73.5C23.3552 73.5 9 59.1448 9 41.5007C9 23.8565 23.3552 9.5 41.0007 9.5C58.6462 9.5 73 23.8552 73 41.4993C73 59.1435 58.6448 73.4987 41.0007 73.4987V73.5Z" fill="white"/>
<g id="Group 34408">
<g id="Union">
<mask id="path-3-outside-1_1249_939" maskUnits="userSpaceOnUse" x="36.5449" y="19.5908" width="18" height="27" fill="black">
<rect fill="white" x="36.5449" y="19.5908" width="18" height="27"/>
<path fill-rule="evenodd" clip-rule="evenodd" d="M39.5449 42.5761V23.6964C39.5449 23.0861 40.1965 22.5908 40.9995 22.5908C41.8024 22.5908 42.454 23.0861 42.454 23.6964V39.8206L49.9244 35.5076C50.453 35.2024 51.2077 35.5191 51.6092 36.2144C52.0107 36.9098 51.9075 37.7218 51.379 38.0269L41.9569 43.4667C41.8513 43.5277 41.7366 43.5639 41.6175 43.5771C41.4299 43.6442 41.2204 43.6817 40.9995 43.6817C40.1965 43.6817 39.5449 43.1864 39.5449 42.5761Z"/>
</mask>
<path fill-rule="evenodd" clip-rule="evenodd" d="M39.5449 42.5761V23.6964C39.5449 23.0861 40.1965 22.5908 40.9995 22.5908C41.8024 22.5908 42.454 23.0861 42.454 23.6964V39.8206L49.9244 35.5076C50.453 35.2024 51.2077 35.5191 51.6092 36.2144C52.0107 36.9098 51.9075 37.7218 51.379 38.0269L41.9569 43.4667C41.8513 43.5277 41.7366 43.5639 41.6175 43.5771C41.4299 43.6442 41.2204 43.6817 40.9995 43.6817C40.1965 43.6817 39.5449 43.1864 39.5449 42.5761Z" fill="#FF5E54"/>
<path d="M42.454 39.8206H40.054V43.9775L43.654 41.8991L42.454 39.8206ZM49.9244 35.5076L51.1244 37.586H51.1244L49.9244 35.5076ZM51.6092 36.2144L49.5307 37.4144L49.5307 37.4144L51.6092 36.2144ZM51.379 38.0269L52.579 40.1054L52.579 40.1054L51.379 38.0269ZM41.9569 43.4667L40.7569 41.3883H40.7569L41.9569 43.4667ZM41.6175 43.5771L41.352 41.1919L41.0734 41.2229L40.8094 41.3173L41.6175 43.5771ZM37.1449 23.6964V42.5761H41.9449V23.6964H37.1449ZM40.9995 20.1908C40.1208 20.1908 39.2359 20.459 38.5188 21.0041C37.8002 21.5503 37.1449 22.4796 37.1449 23.6964H41.9449C41.9449 24.303 41.6155 24.6795 41.4234 24.8254C41.2329 24.9703 41.0752 24.9908 40.9995 24.9908V20.1908ZM44.854 23.6964C44.854 22.4796 44.1988 21.5503 43.4802 21.0041C42.7631 20.459 41.8781 20.1908 40.9995 20.1908V24.9908C40.9237 24.9908 40.7661 24.9703 40.5755 24.8254C40.3834 24.6795 40.054 24.303 40.054 23.6964H44.854ZM44.854 39.8206V23.6964H40.054V39.8206H44.854ZM48.7244 33.4291L41.254 37.7421L43.654 41.8991L51.1244 37.586L48.7244 33.4291ZM53.6877 35.0144C53.2483 34.2535 52.5736 33.6212 51.743 33.2727C50.9107 32.9235 49.7783 32.8207 48.7244 33.4291L51.1244 37.586C50.5991 37.8893 50.1084 37.7922 49.8859 37.6989C49.6652 37.6063 49.5686 37.48 49.5307 37.4144L53.6877 35.0144ZM52.579 40.1054C53.6328 39.4969 54.11 38.4648 54.2237 37.5694C54.3372 36.6758 54.127 35.7754 53.6877 35.0144L49.5307 37.4144C49.4929 37.3488 49.4318 37.202 49.462 36.9646C49.4924 36.7252 49.6537 36.2517 50.179 35.9484L52.579 40.1054ZM43.1569 45.5452L52.579 40.1054L50.179 35.9484L40.7569 41.3883L43.1569 45.5452ZM41.883 45.9624C42.3149 45.9143 42.7502 45.78 43.1569 45.5452L40.7569 41.3883C40.9523 41.2754 41.1583 41.2134 41.352 41.1919L41.883 45.9624ZM40.9995 46.0817C41.4904 46.0817 41.9737 45.9986 42.4257 45.837L40.8094 41.3173C40.8861 41.2898 40.9504 41.2817 40.9995 41.2817V46.0817ZM37.1449 42.5761C37.1449 43.793 37.8002 44.7222 38.5188 45.2685C39.2359 45.8136 40.1208 46.0817 40.9995 46.0817V41.2817C41.0752 41.2817 41.2329 41.3023 41.4234 41.4471C41.6155 41.5931 41.9449 41.9695 41.9449 42.5761H37.1449Z" fill="#37008F" mask="url(#path-3-outside-1_1249_939)"/>
</g>
</g>
<g id="Group 34406">
<path id="Vector_3" fill-rule="evenodd" clip-rule="evenodd" d="M39.707 12.2464V16.6647C39.707 17.3778 40.2858 17.9565 40.9989 17.9565C41.712 17.9565 42.2907 17.3778 42.2907 16.6647V12.2464C42.2907 11.5333 41.712 10.9546 40.9989 10.9546C40.2858 10.9546 39.707 11.5333 39.707 12.2464Z" fill="#37008F"/>
<path id="Vector_4" fill-rule="evenodd" clip-rule="evenodd" d="M39.707 66.3358V70.7541C39.707 71.4672 40.2858 72.0459 40.9989 72.0459C41.712 72.0459 42.2907 71.4672 42.2907 70.7541V66.3358C42.2907 65.6227 41.712 65.0439 40.9989 65.0439C40.2858 65.0439 39.707 65.6227 39.707 66.3358Z" fill="#37008F"/>
<path id="Vector_5" fill-rule="evenodd" clip-rule="evenodd" d="M70.2545 40.208H65.8363C65.1232 40.208 64.5444 40.7867 64.5444 41.4998C64.5444 42.2129 65.1232 42.7917 65.8363 42.7917H70.2545C70.9676 42.7917 71.5464 42.2129 71.5464 41.4998C71.5464 40.7867 70.9676 40.208 70.2545 40.208Z" fill="#37008F"/>
<path id="Vector_6" fill-rule="evenodd" clip-rule="evenodd" d="M16.1647 40.208H11.7464C11.0333 40.208 10.4546 40.7867 10.4546 41.4998C10.4546 42.2129 11.0333 42.7917 11.7464 42.7917H16.1647C16.8778 42.7917 17.4565 42.2129 17.4565 41.4998C17.4565 40.7867 16.8778 40.208 16.1647 40.208Z" fill="#37008F"/>
<path id="Vector_7" fill-rule="evenodd" clip-rule="evenodd" d="M15.3408 27.4319L17.7888 28.8461C18.0974 29.0244 18.4926 28.9193 18.6708 28.6106C18.8491 28.3019 18.744 27.9068 18.4353 27.7285L15.9874 26.3143C15.6787 26.136 15.2836 26.2411 15.1053 26.5498C14.9271 26.8585 15.0322 27.2536 15.3408 27.4319Z" fill="#37008F"/>
<path id="Vector_8" fill-rule="evenodd" clip-rule="evenodd" d="M63.5625 55.2722L66.0104 56.6864C66.3191 56.8647 66.7142 56.7596 66.8925 56.4509C67.0708 56.1423 66.9657 55.7471 66.657 55.5689L64.2091 54.1547C63.9004 53.9764 63.5053 54.0815 63.327 54.3901C63.1487 54.6988 63.2538 55.0939 63.5625 55.2722Z" fill="#37008F"/>
<path id="Vector_9" fill-rule="evenodd" clip-rule="evenodd" d="M25.8135 16.4876L27.2264 18.9356C27.4047 19.2442 27.7998 19.3507 28.1098 19.1724C28.4184 18.9941 28.5249 18.599 28.3453 18.2903L26.9324 15.8424C26.7541 15.5337 26.359 15.4273 26.0503 15.6069C25.7417 15.7852 25.6352 16.1803 25.8135 16.489V16.4876Z" fill="#37008F"/>
<path id="Vector_10" fill-rule="evenodd" clip-rule="evenodd" d="M53.6543 64.7092L55.0685 67.1572C55.2468 67.4658 55.6433 67.5723 55.9519 67.394C56.2606 67.2157 56.367 66.8206 56.1874 66.5119L54.7732 64.064C54.5949 63.7553 54.1998 63.6489 53.8911 63.8272C53.5825 64.0054 53.476 64.4006 53.6543 64.7092Z" fill="#37008F"/>
<path id="Vector_11" fill-rule="evenodd" clip-rule="evenodd" d="M66.011 26.3144L63.5631 27.7286C63.2544 27.9069 63.148 28.3021 63.3276 28.6107C63.5072 28.9194 63.901 29.0258 64.2097 28.8462L66.6576 27.432C66.9663 27.2537 67.0727 26.8586 66.8931 26.5499C66.7148 26.2413 66.3197 26.1348 66.011 26.3144Z" fill="#37008F"/>
<path id="Vector_12" fill-rule="evenodd" clip-rule="evenodd" d="M17.7903 54.1543L15.3424 55.5685C15.0337 55.7468 14.9273 56.1419 15.1069 56.4506C15.2852 56.7592 15.6803 56.8656 15.989 56.686L18.4369 55.2718C18.7456 55.0935 18.852 54.6984 18.6724 54.3898C18.4941 54.0811 18.099 53.9747 17.7903 54.1543Z" fill="#37008F"/>
<path id="Vector_13" fill-rule="evenodd" clip-rule="evenodd" d="M55.068 15.8426L53.6538 18.2906C53.4756 18.5992 53.582 18.9944 53.8906 19.1726C54.1993 19.3509 54.5944 19.2458 54.7727 18.9358L56.1869 16.4879C56.3652 16.1792 56.2601 15.7841 55.9514 15.6058C55.6428 15.4275 55.2477 15.5327 55.068 15.8413V15.8426Z" fill="#37008F"/>
<path id="Vector_14" fill-rule="evenodd" clip-rule="evenodd" d="M27.2277 64.064L25.8148 66.5119C25.6365 66.8206 25.7416 67.2157 26.0503 67.394C26.3589 67.5723 26.7541 67.4658 26.9337 67.1572L28.3466 64.7092C28.5248 64.4006 28.4197 64.0054 28.1111 63.8272C27.8024 63.6489 27.4073 63.7553 27.2277 64.064Z" fill="#37008F"/>
</g>
<path id="Vector_15" d="M42.3457 81.82H43.1052L43.0965 81.8112C64.2529 81.395 81.32 63.4617 81.32 41.4978C81.32 30.896 77.3742 20.8817 70.2061 13.3026L70.2058 13.3023C69.7129 12.7825 68.9016 12.7746 68.399 13.2831L68.3986 13.2835C67.902 13.7878 67.8949 14.6082 68.38 15.1217L68.3801 15.1218C75.0833 22.2101 78.776 31.5765 78.776 41.4993C78.776 62.3026 62.4232 79.2097 42.3457 79.2097H39.6557C38.9422 79.2097 38.3837 79.8057 38.3837 80.5149C38.3837 81.224 38.9422 81.82 39.6557 81.82H42.3457ZM7.33476 64.0407L7.33489 64.0409C7.57913 64.4142 7.98067 64.6191 8.39278 64.6191C8.64009 64.6191 8.88994 64.5447 9.1079 64.3924L9.1081 64.3922C9.68809 63.9863 9.83504 63.1794 9.44794 62.5871C5.37708 56.3506 3.22403 49.0592 3.22403 41.4993C3.22403 20.696 19.5781 3.79028 39.6557 3.79028H42.3457C43.0589 3.79028 43.6177 3.19604 43.6177 2.48514C43.6177 1.77424 43.0589 1.18 42.3457 1.18H39.6557C18.1531 1.18 0.68 19.2771 0.68 41.4993C0.68 49.5773 2.97988 57.3721 7.33476 64.0407Z" fill="#37008F" stroke="#37008F" stroke-width="0.64"/>
</g>
</svg>
