<svg width="80" height="73" viewBox="0 0 80 73" fill="none" xmlns="http://www.w3.org/2000/svg">
<g id="Group 34411">
<path id="Vector" fill-rule="evenodd" clip-rule="evenodd" d="M78.5189 7.32097C78.5189 4.61679 76.3269 2.4248 73.6227 2.4248H6.37809C3.67392 2.4248 1.48193 4.61679 1.48193 7.32097V53.8262C1.48193 56.5304 3.67392 58.7224 6.37809 58.7224H73.6227C76.3269 58.7224 78.5189 56.5304 78.5189 53.8262V7.32097Z" fill="white"/>
<path id="Vector_2" fill-rule="evenodd" clip-rule="evenodd" d="M78.5185 49.834H1.4834V53.8269C1.4834 56.5311 3.67538 58.7231 6.37956 58.7231H73.6242C76.3284 58.7231 78.5204 56.5311 78.5204 53.8269V49.834H78.5185Z" fill="#FF5E54"/>
<path id="Vector_3" fill-rule="evenodd" clip-rule="evenodd" d="M22.2227 48.3501H1.48335C0.664571 48.3501 0 49.0147 0 49.8316C0 50.6486 0.664571 51.3131 1.48152 51.3131H22.2227C23.0397 51.3131 23.7042 50.6486 23.7042 49.8316C23.7042 49.0147 23.0397 48.3501 22.2227 48.3501Z" fill="#2D2E85"/>
<path id="Vector_4" fill-rule="evenodd" clip-rule="evenodd" d="M78.5183 48.3501H65.1846C64.3677 48.3501 63.7031 49.0147 63.7031 49.8316C63.7031 50.6486 64.3677 51.3131 65.1846 51.3131H78.5183C79.3352 51.3131 79.9998 50.6486 79.9998 49.8316C79.9998 49.0147 79.3352 48.3501 78.5183 48.3501Z" fill="#2D2E85"/>
<path id="Vector_5" d="M51.5226 39.1348C57.8869 32.7706 57.8869 22.4521 51.5226 16.0878C45.1584 9.7236 34.8399 9.7236 28.4756 16.0878C22.1114 22.4521 22.1114 32.7706 28.4756 39.1348C34.8399 45.4991 45.1584 45.4991 51.5226 39.1348Z" fill="#C7CEFF"/>
<path id="Vector_6" fill-rule="evenodd" clip-rule="evenodd" d="M39.9988 12.7956C48.1756 12.7956 54.8139 19.4339 54.8139 27.6107C54.8139 35.7875 48.1756 42.4259 39.9988 42.4259C31.822 42.4259 25.1836 35.7875 25.1836 27.6107C25.1836 23.3938 26.9497 19.5881 29.7787 16.8895C30.3698 16.3259 30.3919 15.3859 29.8283 14.7948C29.2647 14.2036 28.3247 14.1798 27.7336 14.7452C24.3373 17.9836 22.2188 22.553 22.2188 27.6107C22.2188 37.4214 30.1844 45.3889 39.9969 45.3889C49.8095 45.3889 57.7751 37.4232 57.7751 27.6107C57.7751 17.7982 49.8095 9.83252 39.9969 9.83252C39.18 9.83252 38.5154 10.4971 38.5154 11.314C38.5154 12.131 39.18 12.7956 39.9969 12.7956H39.9988Z" fill="#2D2E85"/>
<path id="Vector_7" fill-rule="evenodd" clip-rule="evenodd" d="M38.5176 17.2403V21.6849C38.5176 22.5018 39.1822 23.1664 39.9991 23.1664C40.816 23.1664 41.4806 22.5018 41.4806 21.6849V17.2403C41.4806 16.4234 40.816 15.7588 39.9991 15.7588C39.1822 15.7588 38.5176 16.4234 38.5176 17.2403Z" fill="#2D2E85"/>
<path id="Vector_8" fill-rule="evenodd" clip-rule="evenodd" d="M38.5176 33.5372V37.9817C38.5176 38.7987 39.1822 39.4632 39.9991 39.4632C40.816 39.4632 41.4806 38.7987 41.4806 37.9817V33.5372C41.4806 32.7202 40.816 32.0557 39.9991 32.0557C39.1822 32.0557 38.5176 32.7202 38.5176 33.5372Z" fill="#2D2E85"/>
<path id="Vector_9" fill-rule="evenodd" clip-rule="evenodd" d="M42.9623 30.5737C42.9623 29.755 42.2996 29.0922 41.4808 29.0922H38.5178C36.0633 29.0922 34.0732 27.1022 34.0732 24.6477C34.0732 22.1932 36.0633 20.2031 38.5178 20.2031H44.4438C45.2608 20.2031 45.9254 20.8677 45.9254 21.6846C45.9254 22.5016 45.2608 23.1662 44.4438 23.1662H38.5178C37.699 23.1662 37.0363 23.8289 37.0363 24.6477C37.0363 25.4665 37.699 26.1292 38.5178 26.1292H41.4808C43.9353 26.1292 45.9254 28.1192 45.9254 30.5737C45.9254 33.0282 43.9353 35.0183 41.4808 35.0183H35.5548C34.7378 35.0183 34.0732 34.3537 34.0732 33.5368C34.0732 32.7198 34.7378 32.0552 35.5548 32.0552H41.4808C42.2996 32.0552 42.9623 31.3925 42.9623 30.5737Z" fill="#2D2E85"/>
<path id="Vector_10" fill-rule="evenodd" clip-rule="evenodd" d="M50.3713 58.7227H29.6301L25.1855 70.5748H54.814L50.3695 58.7227H50.3713Z" fill="#C7CEFF"/>
<path id="Vector_11" fill-rule="evenodd" clip-rule="evenodd" d="M26.0203 64.1254L23.7989 70.0515C23.5126 70.817 23.8999 71.6707 24.6655 71.9589C25.431 72.2453 26.2865 71.8579 26.5729 71.0924L28.7942 65.1663C29.0806 64.4008 28.6933 63.5471 27.9277 63.2589C27.1622 62.9725 26.3067 63.3599 26.0203 64.1254Z" fill="#2D2E85"/>
<path id="Vector_12" fill-rule="evenodd" clip-rule="evenodd" d="M56.2023 70.0515L51.7577 58.1994C51.4713 57.4339 50.6158 57.0447 49.8503 57.3329C49.0847 57.6193 48.6955 58.4748 48.9838 59.2403L53.4283 71.0924C53.7147 71.858 54.5702 72.2472 55.3357 71.959C56.1013 71.6726 56.4905 70.8171 56.2023 70.0515Z" fill="#2D2E85"/>
<path id="Vector_13" fill-rule="evenodd" clip-rule="evenodd" d="M59.2588 69.0918H20.7413C19.9243 69.0918 19.2598 69.7564 19.2598 70.5733C19.2598 71.3903 19.9243 72.0548 20.7413 72.0548H59.2588C60.0758 72.0548 60.7404 71.3903 60.7404 70.5733C60.7404 69.7564 60.0758 69.0918 59.2588 69.0918Z" fill="#2D2E85"/>
<path id="Vector_14" fill-rule="evenodd" clip-rule="evenodd" d="M79.9982 30.5738V8.35289C79.9982 6.38855 79.2179 4.50499 77.8282 3.11526C76.4385 1.72554 74.5549 0.945312 72.5906 0.945312H7.40758C3.31551 0.945312 0 4.26082 0 8.35289V52.7965C0 56.8867 3.31551 60.2041 7.40758 60.2041H72.5924C76.6827 60.2041 80 56.8886 80 52.7965V45.3889C80 44.572 79.3354 43.9074 78.5185 43.9074C77.7015 43.9074 77.037 44.572 77.037 45.3889V52.7965C77.037 55.251 75.0469 57.2411 72.5924 57.2411H7.40758C4.95307 57.2411 2.96303 55.251 2.96303 52.7965V8.35289C2.96303 5.89838 4.95307 3.90834 7.40758 3.90834H72.5924C73.771 3.90834 74.9019 4.37648 75.7354 5.20995C76.5688 6.04341 77.037 7.17429 77.037 8.35289V30.5756C77.037 31.3926 77.7015 32.0571 78.5185 32.0571C79.3354 32.0571 80 31.3926 80 30.5756L79.9982 30.5738Z" fill="#2D2E85"/>
</g>
</svg>
