<svg width="80" height="81" viewBox="0 0 80 81" fill="none" xmlns="http://www.w3.org/2000/svg">
<path fill-rule="evenodd" clip-rule="evenodd" d="M78.4566 19.3475C78.4566 16.0832 77.16 12.9535 74.8511 10.6446C72.5422 8.33568 69.4125 7.03906 66.1482 7.03906H13.8436C10.5793 7.03906 7.44957 8.33568 5.14067 10.6446C2.83178 12.9535 1.53516 16.0832 1.53516 19.3475V51.655C1.53516 54.9193 2.83178 58.049 5.14067 60.3579C7.44957 62.6668 10.5793 63.9634 13.8436 63.9634H18.4595V74.7325L42.9739 63.9634H66.1501C69.4144 63.9634 72.5441 62.6668 74.853 60.3579C77.1619 58.049 78.4585 54.9193 78.4585 51.655V19.3475H78.4566Z" fill="#C7CEFF"/>
<path fill-rule="evenodd" clip-rule="evenodd" d="M14.4 12.7729C10.8654 12.7729 8 15.6383 8 19.1729V51.4639C8 54.9985 10.8654 57.8639 14.4 57.8639H22.9279V67.6053L45.455 57.8639H65.6C69.1346 57.8639 72 54.9985 72 51.4639V19.1729C72 15.6383 69.1346 12.7729 65.6 12.7729H14.4Z" fill="white"/>
<path fill-rule="evenodd" clip-rule="evenodd" d="M79.9984 37.8075V19.3458C79.9984 11.6988 73.7997 5.5 66.1526 5.5H29.2312C28.3819 5.5 27.6919 6.19001 27.6919 7.03926C27.6919 7.88851 28.3819 8.57853 29.2312 8.57853H66.1526C72.0993 8.57853 76.9218 13.3992 76.9218 19.3477V37.8094C76.9218 38.6586 77.6118 39.3486 78.461 39.3486C79.3103 39.3486 80.0003 38.6586 80.0003 37.8094L79.9984 37.8075Z" fill="#37008F"/>
<path fill-rule="evenodd" clip-rule="evenodd" d="M16.9224 65.499H13.8458C10.1739 65.499 6.65182 64.0394 4.05478 61.4443C1.45965 58.8472 0 55.327 0 51.6533V19.3477C0 15.6758 1.45965 12.1537 4.05478 9.55668C6.65182 6.95965 10.1739 5.5 13.8458 5.5H21.5383C22.3876 5.5 23.0776 6.19001 23.0776 7.03926C23.0776 7.88851 22.3876 8.57853 21.5383 8.57853H13.8458C10.9891 8.57853 8.24984 9.71402 6.23098 11.7329C4.21212 13.7517 3.07663 16.4909 3.07663 19.3477V51.6552C3.07663 54.5119 4.21212 57.2511 6.23098 59.27C8.24984 61.2888 10.9891 62.4243 13.8458 62.4243H18.4617C19.3109 62.4243 20.0009 63.1124 20.0009 63.9636V72.3764L42.3582 62.5551C42.5534 62.4698 42.7638 62.4243 42.9762 62.4243H66.1523C72.0989 62.4243 76.9215 57.6037 76.9215 51.6552V45.5019C76.9215 44.6526 77.6115 43.9626 78.4607 43.9626C79.31 43.9626 80 44.6526 80 45.5019V51.6552C80 59.3022 73.8012 65.5009 66.1542 65.5009H43.3003L19.0816 76.1393C18.6058 76.3478 18.0579 76.3023 17.6219 76.0199C17.1859 75.7355 16.9243 75.2521 16.9243 74.7327V65.5028L16.9224 65.499Z" fill="#37008F"/>
<path fill-rule="evenodd" clip-rule="evenodd" d="M54.6545 23.9599H66.961C67.8103 23.9599 68.4984 23.2699 68.4984 22.4226C68.4984 21.5752 67.8084 20.8833 66.961 20.8833H54.6545C53.8052 20.8833 53.1152 21.5733 53.1152 22.4226C53.1152 23.2718 53.8052 23.9599 54.6545 23.9599Z" fill="#37008F"/>
<path fill-rule="evenodd" clip-rule="evenodd" d="M48.5002 31.6542H66.9619C67.8111 31.6542 68.4992 30.9642 68.4992 30.1149C68.4992 29.2657 67.8092 28.5757 66.9619 28.5757H48.5002C47.651 28.5757 46.9609 29.2657 46.9609 30.1149C46.9609 30.9642 47.651 31.6542 48.5002 31.6542Z" fill="#37008F"/>
<path fill-rule="evenodd" clip-rule="evenodd" d="M48.5002 39.3466H66.9619C67.8111 39.3466 68.4992 38.6566 68.4992 37.8073C68.4992 36.9581 67.8092 36.2681 66.9619 36.2681H48.5002C47.651 36.2681 46.9609 36.9581 46.9609 37.8073C46.9609 38.6566 47.651 39.3466 48.5002 39.3466Z" fill="#37008F"/>
<path fill-rule="evenodd" clip-rule="evenodd" d="M48.5002 47.0375H60.8067C61.656 47.0375 62.346 46.3475 62.346 45.4982C62.346 44.649 61.656 43.959 60.8067 43.959H48.5002C47.651 43.959 46.9609 44.649 46.9609 45.4982C46.9609 46.3475 47.651 47.0375 48.5002 47.0375Z" fill="#37008F"/>
<path fill-rule="evenodd" clip-rule="evenodd" d="M36.9863 40.884C35.8528 39.9475 32.3705 39.3447 32.3705 39.3447C32.3705 39.3447 30.1469 42.4214 26.2324 42.4214C22.3179 42.4214 20.0639 39.3447 20.0639 39.3447C20.0639 39.3447 16.5703 39.9381 15.448 40.884C14.7827 41.4451 13.8329 42.6905 12.978 43.917C12.3847 44.6582 12.1686 45.6345 12.3942 46.5558C12.6216 47.4789 13.2624 48.2429 14.1325 48.6258C17.1901 49.9471 21.9709 51.6531 26.5091 51.6531C31.0473 51.6531 35.5343 50.0001 38.4744 48.6732C39.3351 48.2827 39.9644 47.5131 40.1748 46.5918C40.3871 45.6705 40.1578 44.7037 39.5568 43.9758C38.6716 42.7228 37.6707 41.4527 36.9826 40.884H36.9863Z" fill="#FF5E54"/>
<path fill-rule="evenodd" clip-rule="evenodd" d="M18.6042 27.0385C18.6042 27.0385 18.0033 17.8086 26.3782 17.8086C34.7532 17.8086 33.957 27.0385 33.957 27.0385C33.957 31.7075 29.4492 36.2684 26.3782 36.2684C23.3073 36.2684 18.6042 31.7075 18.6042 27.0385Z" fill="white"/>
<path fill-rule="evenodd" clip-rule="evenodd" d="M35.4069 27.061C35.405 28.1567 35.1965 29.2486 34.8307 30.2931C34.5501 31.0949 33.6705 31.5158 32.8706 31.2352C32.0687 30.9547 31.6479 30.0751 31.9284 29.2751C32.1824 28.5529 32.3322 27.7984 32.3322 27.0402C32.3322 27.006 32.3322 26.9738 32.336 26.9397C32.336 26.9397 32.5426 23.9863 31.1038 21.7058C30.266 20.3751 28.8347 19.3476 26.2927 19.3476C23.7506 19.3476 22.2587 20.3959 21.3849 21.7305C19.8892 24.0109 20.056 26.9586 20.056 26.9586L18.5205 27.0402H20.0598C20.0598 29.4078 21.5384 31.7186 23.2445 33.2086C24.2662 34.1014 25.3619 34.7327 26.2946 34.7327C27.2272 34.7327 28.3513 34.0654 29.3636 33.129C29.9873 32.5527 30.9617 32.5887 31.5379 33.2124C32.1142 33.836 32.0763 34.8104 31.4545 35.3867C29.7901 36.9278 27.8718 37.8093 26.2965 37.8093C24.7212 37.8093 22.89 36.9828 21.2218 35.5251C18.8921 33.491 16.9851 30.276 16.9851 27.0402C16.9699 26.4601 16.9585 22.8754 18.8163 20.0433C20.1584 17.996 22.3801 16.271 26.2984 16.271C30.2167 16.271 32.408 17.9979 33.7122 20.0661C35.4979 22.8982 35.4373 26.4885 35.4145 27.061H35.4069Z" fill="#37008F"/>
<path fill-rule="evenodd" clip-rule="evenodd" d="M11.7924 42.9999C12.7307 41.6597 13.7809 40.3176 14.5088 39.7053C14.9562 39.3281 15.6747 38.966 16.4784 38.6836C18.0063 38.1433 19.8564 37.8286 19.8564 37.8286C20.4308 37.7301 21.0109 37.9651 21.3559 38.4352C21.3559 38.4352 23.1606 40.8825 26.2846 40.8825C29.4086 40.8825 31.1753 38.4428 31.1753 38.4428C31.672 37.7547 32.635 37.5993 33.3231 38.0978C34.0112 38.5945 34.1667 39.5575 33.6681 40.2456C33.6681 40.2456 30.9953 43.9591 26.2827 43.9591C22.9596 43.9591 20.6337 42.109 19.555 41.0228C19.1304 41.1138 18.5902 41.2446 18.0518 41.4057C17.4433 41.5877 16.8196 41.7829 16.4898 42.0597C15.8927 42.5621 15.0586 43.6956 14.2889 44.797C14.27 44.8255 14.2491 44.852 14.2283 44.8766C13.9326 45.2444 13.8264 45.7297 13.9382 46.1865C14.0501 46.6453 14.3705 47.0244 14.7932 47.2102C17.7011 48.467 22.2431 50.1105 26.5594 50.1105C30.8758 50.1105 35.1069 48.5239 37.8878 47.267C38.3124 47.0737 38.6214 46.6946 38.7276 46.2415C38.8318 45.7865 38.72 45.3107 38.4224 44.9506C38.3977 44.9202 38.375 44.8899 38.3523 44.8577C37.5561 43.7317 36.6746 42.5753 36.0566 42.0654C35.4026 41.5251 35.3078 40.5546 35.85 39.8987C36.3903 39.2447 37.3608 39.1518 38.0167 39.692C38.7674 40.3119 39.8707 41.6768 40.8393 43.0435C41.7151 44.1335 42.0431 45.5666 41.7284 46.9315C41.408 48.3191 40.4602 49.4774 39.1617 50.0688C36.068 51.4659 31.2644 53.1852 26.5632 53.1852C21.862 53.1852 16.7836 51.4185 13.5667 50.0271C12.2587 49.4527 11.2938 48.3021 10.9526 46.9163C10.6171 45.5477 10.928 44.1032 11.7924 42.9943V42.9999Z" fill="#37008F"/>
</svg>
