<svg width="80" height="80" viewBox="0 0 80 80" fill="none" xmlns="http://www.w3.org/2000/svg">
<g clip-path="url(#clip0_1459_12637)">
<path d="M46.2748 56.002C33.2553 56.002 21.7784 49.0597 18.3632 39.1201C17.685 37.1445 17.3398 35.1043 17.3398 33.0518C17.3398 23.3215 25.1021 14.619 36.6553 11.3971C39.7528 10.5385 42.9878 10.1016 46.2748 10.1016C50.6187 10.1016 54.7946 10.8463 58.6833 12.3141C68.7183 16.0899 75.2005 24.2323 75.2005 33.0518C75.2005 33.4026 75.1914 33.7042 75.173 33.9688C75.1089 35.3382 74.8859 36.726 74.5071 38.0646C74.2444 39.0001 73.9053 39.9325 73.4929 40.8311C73.0255 41.8681 72.4421 42.9021 71.7639 43.9053L77.9987 55.3773L60.8033 52.9001C56.4044 54.928 51.3885 55.9958 46.2687 55.9958L46.2748 56.002ZM46.2748 12.6526C43.2169 12.6526 40.2049 13.0557 37.3304 13.8558C26.8891 16.7669 19.8753 24.4816 19.8753 33.0518C19.8753 34.8181 20.1716 36.5783 20.7581 38.2862C23.8252 47.2164 34.3183 53.4509 46.2778 53.4509C51.1594 53.4509 55.931 52.4078 60.0793 50.4352L60.4215 50.2721L73.3554 52.137L68.7824 43.7237L69.259 43.0683C70.041 41.9943 70.6917 40.8865 71.1957 39.7756C71.5531 38.9909 71.8464 38.1846 72.0755 37.3753C72.3993 36.2214 72.5917 35.0274 72.6498 33.8303C72.6651 33.5903 72.6712 33.3441 72.6712 33.0549C72.6712 25.3094 66.8335 18.1086 57.7974 14.7051C54.1928 13.345 50.3193 12.6557 46.2778 12.6557L46.2748 12.6526Z" fill="#006FFF"/>
<path d="M9.16653 46.7159C8.94047 46.7159 8.71442 46.6667 8.50364 46.5682C7.95072 46.3097 7.59637 45.7435 7.59637 45.1311V38.2965H5.77266C3.69235 38.2965 2 36.5917 2 34.4961V3.79119C2 1.70173 3.6893 0 5.7635 0H55.7215C57.7957 0 59.4849 1.70173 59.4849 3.79119V13.2107H56.9525V3.79119C56.9525 3.10803 56.3996 2.55105 55.7215 2.55105H5.7635C5.08533 2.55105 4.53242 3.10803 4.53242 3.79119V34.4961C4.53242 35.1854 5.08839 35.7455 5.77266 35.7455H10.1257V43.0663L18.4622 36.044L20.0843 38.0011L10.1777 46.3497C9.89051 46.5928 9.52699 46.719 9.16347 46.719L9.16653 46.7159Z" fill="#006FFF"/>
</g>
<defs>
<clipPath id="clip0_1459_12637">
<rect width="76" height="56" fill="white" transform="translate(2)"/>
</clipPath>
</defs>
</svg>
