<svg width="80" height="82" viewBox="0 0 80 82" fill="none" xmlns="http://www.w3.org/2000/svg">
<path d="M40.7888 38.6321L43.3974 41.2407C44.7673 42.6057 46.8099 42.7779 47.9599 41.6246C49.11 40.4712 48.9148 38.4467 47.5465 37.0817L33.4453 22.9805" stroke="#006FFF" stroke-width="2.5" stroke-linecap="round" stroke-linejoin="round"/>
<path d="M31.8222 38.0075L36.9983 43.1837C38.3683 44.5487 40.4108 44.721 41.5609 43.5676C42.711 42.4142 42.5338 40.3717 41.1639 39.0067L29.2939 27.1367" stroke="#006FFF" stroke-width="2.5" stroke-linecap="round" stroke-linejoin="round"/>
<path d="M5 12.1992C12.0613 19.2605 9.12946 22.8945 19.0996 32.8646C19.1537 32.9187 28.6136 42.3786 28.6136 42.3786C29.8572 43.6189 31.7127 43.7764 32.7578 42.728C33.8029 41.6797 33.6421 39.8258 32.3985 38.5838L25.1256 31.3109" stroke="#006FFF" stroke-width="2.5" stroke-linecap="round" stroke-linejoin="round"/>
<path d="M44.2085 33.7429C45.5784 35.1079 47.6374 35.2637 48.7891 34.1087C49.9392 32.9554 49.7439 30.9308 48.3757 29.5658L34.2925 15.4827C35.7707 16.1521 37.0176 16.6967 39.577 17.814C44.5333 19.9764 48.3953 19.8107 49.0335 18.0289C49.9096 15.5811 45.5489 13.8437 41.6376 11.8996C37.2128 9.69947 36.6501 8.39517 27.8284 6.31649C23.6087 5.32227 19.5285 6.32634 15.2021 2" stroke="#006FFF" stroke-width="2.5" stroke-linecap="round" stroke-linejoin="round"/>
<path d="M52.3389 41.8711L54.0172 43.5495" stroke="#006FFF" stroke-width="2.5" stroke-linecap="round" stroke-linejoin="round"/>
<path d="M47.8027 45.6484L49.8584 47.7058" stroke="#006FFF" stroke-width="2.5" stroke-linecap="round" stroke-linejoin="round"/>
<path d="M41.71 47.8867L45.6967 51.8734" stroke="#006FFF" stroke-width="2.5" stroke-linecap="round" stroke-linejoin="round"/>
<path d="M64.7976 71.9981C57.7363 64.9368 54.1023 67.8686 44.1322 57.8985C44.0781 57.8444 33.3369 47.1016 33.3369 47.1016" stroke="#006FFF" stroke-width="2.5" stroke-linecap="round" stroke-linejoin="round"/>
<path d="M75.0011 61.8004C70.6748 57.474 71.6789 53.3921 70.6847 49.1741C68.606 40.3524 67.3017 39.7881 65.1016 35.3649C63.1558 31.4537 61.42 27.0929 58.9722 27.969C57.1905 28.6072 57.0248 32.4692 59.1871 37.4256C60.6079 40.6789 61.1017 41.811 62.1058 43.9946C62.4766 44.8002 62.4389 45.7222 62.0451 46.5163C61.1903 48.2422 60.0944 51.5776 62.301 54.6505" stroke="#006FFF" stroke-width="2.5" stroke-linecap="round" stroke-linejoin="round"/>
<path d="M53.3291 34.5234L61.5175 42.7102" stroke="#006FFF" stroke-width="2.5" stroke-linecap="round" stroke-linejoin="round"/>
</svg>
