<svg width="220" height="44" viewBox="0 0 220 44" fill="none" xmlns="http://www.w3.org/2000/svg">
<g id="Logo Clients Leadgen">
<g id="Union">
<path fill-rule="evenodd" clip-rule="evenodd" d="M70.6215 21.8776C70.893 24.5848 71.0106 27.3105 70.9744 30.0363L70.9654 30.0455C70.9654 30.3411 70.9654 30.6553 70.9292 30.9602C70.9292 33.843 70.902 36.7812 70.2776 39.6086C69.6534 42.4197 66.3389 42.3767 64.1127 42.3479C63.9828 42.3462 63.8566 42.3445 63.7349 42.3435C61.566 42.3196 59.4093 42.0382 57.2535 41.7569C55.2445 41.4948 53.2362 41.2328 51.2195 41.1793C48.9579 41.116 46.7015 41.4227 44.4584 41.7277C43.7576 41.8229 43.058 41.9181 42.36 42.0016C41.5588 42.099 40.7371 42.2484 39.9072 42.3992C37.9813 42.7492 36.0115 43.1072 34.1522 42.8425C30.8853 42.362 29.9532 38.0563 29.6727 35.1643C29.2293 30.489 28.9578 26.7469 30.5867 20.9259C31.1297 18.9948 31.9713 17.5534 33.1205 15.9642L32.2699 15.0587C31.6985 14.4782 31.2463 13.7871 30.9396 13.026C29.8084 9.96765 32.3785 7.22347 34.6137 5.81904C39.0217 3.16027 44.0114 1.67019 49.1279 1.48459C54.2444 1.299 59.3251 2.4238 63.9068 4.75647C66.3773 6.07775 68.8659 8.07352 69.9156 10.8824C70.712 13.026 70.8839 15.9919 68.6306 17.1931C68.3914 17.2739 68.135 17.2852 67.8901 17.2257C69.8202 17.7171 70.4231 20.0543 70.6215 21.8776ZM60.201 36.8771C62.2532 37.0526 65.1625 37.3014 66.1963 34.924C66.3546 34.5644 66.458 34.1856 66.5221 33.7968C67.1146 30.2659 67.2242 26.6682 66.8479 23.1065C66.6126 20.889 66.0606 17.7659 63.9158 16.7311C67.3999 14.6891 63.6715 10.596 61.753 9.40403C55.5903 5.58804 46.4685 5.29237 39.9438 8.26755C38.0796 9.10836 34.668 11.5754 36.0345 14.4859C36.2755 14.9965 36.6409 15.3023 37.0159 15.6161C37.204 15.7735 37.3945 15.933 37.5729 16.1213C37.5186 16.0658 36.4598 17.1838 35.7449 19.0318C35.22 20.3069 34.8218 21.6374 34.5775 23.0048C34.1814 25.2127 33.9635 27.4501 33.9259 29.6944C33.9531 32.1799 34.306 35.1273 36.306 36.8551C37.7944 38.1458 39.9506 37.568 41.7781 37.0783C42.1615 36.9755 42.5305 36.8766 42.8759 36.7997C45.5364 36.1991 48.2422 35.6725 50.9751 35.7556L60.1603 36.8736L60.201 36.8771Z" fill="#FF4C00"/>
<path d="M79.481 33.4365C79.481 37.8161 81.9244 40.163 86.44 40.163C90.6571 40.163 91.6254 38.7955 91.6254 37.2063C91.6254 35.6171 90.6028 34.3974 88.7748 34.3974H88.2137C87.2002 34.3974 85.9785 33.6398 85.9785 31.6994V20.5933H88.5124C89.236 20.5719 89.9234 20.2658 90.4311 19.7389C90.9387 19.2119 91.2272 18.5051 91.2363 17.766C91.2272 17.0269 90.9387 16.3201 90.4311 15.7931C89.9234 15.2662 89.236 14.9601 88.5124 14.9387H85.9785V11.1134C85.8518 9.40408 84.4311 8.09205 82.7298 8.09205C81.0285 8.09205 79.6167 9.41332 79.481 11.1134V14.9387H77.9064C76.3861 14.9479 75.1463 16.1675 75.1101 17.6921C75.092 18.4497 75.3816 19.1797 75.9065 19.7248C76.4313 20.2699 77.1553 20.5841 77.9064 20.5933H79.481V33.4365Z" fill="#FF4C00"/>
<path fill-rule="evenodd" clip-rule="evenodd" d="M93.8062 27.2182C93.8062 34.2496 98.6839 40.163 106.756 40.163C108.462 40.2627 110.169 39.9987 111.769 39.3878C113.369 38.777 114.827 37.8327 116.051 36.6151C117.274 35.3974 118.235 33.9331 118.874 32.3153C119.513 30.6975 119.814 28.9616 119.76 27.2182C119.76 20.2423 114.882 14.3289 106.756 14.3289C98.6929 14.3289 93.8062 20.2423 93.8062 27.2182ZM100.512 27.2182C100.512 23.393 102.738 20.0852 106.756 20.0852C110.765 20.0852 113.054 23.393 113.054 27.2182C113.054 31.1081 110.765 34.416 106.756 34.416C102.747 34.416 100.512 31.0435 100.512 27.2182Z" fill="#FF4C00"/>
<path fill-rule="evenodd" clip-rule="evenodd" d="M142.049 39.8581H142.556L142.538 39.8489C144.293 39.8396 145.696 38.3983 145.687 36.6427V23.6425C145.687 16.5649 140.556 14.3196 134.972 14.3196C132.131 14.3196 126.647 15.336 125.126 17.7845C124.902 18.1711 124.781 18.6105 124.773 19.0596C124.773 20.4178 125.859 21.5358 127.217 21.5543C127.63 21.5369 128.031 21.4129 128.384 21.194C130.018 20.1228 131.927 19.5728 133.868 19.614C137.117 19.614 139.253 21.2494 139.253 23.7441V27.0612C137.633 25.1301 134.746 24.0583 131.488 24.0583C127.579 24.0583 122.955 26.2481 122.955 32.0044C122.955 37.5112 127.579 40.163 131.488 40.163C134.692 40.163 137.578 38.9896 139.253 37.0031C139.253 39.4516 141.542 39.8581 142.049 39.8581ZM134.076 28.4379C136.158 28.4379 138.185 29.1586 139.253 30.5815V33.6398C138.185 35.072 136.158 35.7834 134.076 35.7834C131.533 35.7834 129.452 34.4529 129.452 32.1615C129.452 29.7499 131.533 28.4379 134.076 28.4379Z" fill="#FF4C00"/>
<path d="M160.944 40.163C157.75 40.163 152.619 39.0912 151.098 36.8921C150.8 36.4948 150.637 36.0144 150.646 35.5154C150.665 34.7979 150.955 34.1158 151.456 33.6126C151.958 33.1094 152.631 32.8244 153.334 32.8174C153.804 32.8174 154.257 32.9468 154.655 33.1963C156.582 34.3143 159.125 35.1828 161.252 35.1828C164.048 35.1828 165.369 34.0648 165.369 32.531C165.369 30.9278 163.112 30.4675 160.375 29.909C156.154 29.0482 150.791 27.9542 150.791 22.0809C150.791 17.9508 154.401 14.3381 160.845 14.3381C164.039 14.3381 168.41 15.3637 169.786 17.341C170.049 17.7049 170.191 18.1451 170.193 18.5976C170.147 19.965 169.025 21.0553 167.659 21.0461C167.233 21.0471 166.814 20.9424 166.437 20.7412C164.742 19.774 162.832 19.2652 160.89 19.2628C158.555 19.2628 157.035 20.3346 157.035 21.7113C157.035 23.0979 159.11 23.5234 161.692 24.0526C165.94 24.9236 171.559 26.0757 171.559 32.2538C171.559 36.7443 167.749 40.163 160.944 40.163Z" fill="#FF4C00"/>
<path d="M184.554 40.163C180.039 40.163 177.595 37.8161 177.595 33.4365V20.5933H176.021C175.269 20.5841 174.546 20.27 174.021 19.7248C173.496 19.1797 173.206 18.4497 173.224 17.6921C173.261 16.1675 174.5 14.9479 176.021 14.9387H177.595V11.1134C177.67 10.2867 178.044 9.51831 178.646 8.95925C179.247 8.40019 180.031 8.09086 180.844 8.09205C182.545 8.09205 183.966 9.40408 184.093 11.1134V14.9387H186.636C187.359 14.9601 188.047 15.2662 188.554 15.7931C189.062 16.3201 189.35 17.0269 189.359 17.766C189.35 18.5051 189.062 19.2119 188.554 19.7389C188.047 20.2658 187.359 20.5719 186.636 20.5933H184.093V31.6994C184.093 33.6398 185.314 34.3974 186.328 34.3974H186.889C188.717 34.3974 189.731 35.6171 189.731 37.2063C189.731 38.7955 188.78 40.163 184.554 40.163Z" fill="#FF4C00"/>
</g>
</g>
</svg>
