<svg width="96" height="96" viewBox="0 0 96 96" fill="none" xmlns="http://www.w3.org/2000/svg">
<mask id="mask0_1452_29996" style="mask-type:luminance" maskUnits="userSpaceOnUse" x="0" y="0" width="96" height="96">
<path d="M96 0H0V96H96V0Z" fill="white"/>
</mask>
<g mask="url(#mask0_1452_29996)">
<path fill-rule="evenodd" clip-rule="evenodd" d="M28.701 49.6378C30.4524 51.148 31.5612 53.3933 31.5253 56.2477C31.5612 59.1021 30.4524 61.3473 28.701 62.8575C27.7369 63.6888 26.6052 64.2752 25.4105 64.6304C26.5282 65.6214 27.363 66.8322 28.0173 68.0987C28.8138 69.6403 29.3748 71.328 29.8484 72.9063C29.9942 73.3922 30.1302 73.8616 30.2616 74.3153L30.2623 74.3175C30.5518 75.3172 30.8195 76.2412 31.1216 77.0982C31.2835 77.2822 31.703 77.5339 32.7511 77.7075C33.2653 77.7927 33.81 77.8435 34.3919 77.8836C33.8565 73.0425 35.2338 69.2099 37.7613 66.5443C39.1087 65.1233 40.7467 64.0722 42.5195 63.3783C42.2885 63.2168 42.0647 63.0433 41.8493 62.8575C40.0978 61.3473 38.989 59.1021 39.025 56.2477C38.989 53.3933 40.0978 51.148 41.8493 49.6378C43.5716 48.1527 45.8283 47.4492 48.0251 47.4492C50.2219 47.4492 52.4787 48.1527 54.2011 49.6378C55.9525 51.148 57.0614 53.3933 57.0254 56.2477C57.0614 59.1021 55.9525 61.3473 54.2011 62.8575C53.9852 63.0436 53.761 63.2175 53.5295 63.3792C55.304 64.0739 56.9434 65.1262 58.2917 66.5488C60.8183 69.2145 62.1951 73.0458 61.6591 77.8836C62.2408 77.8435 62.7853 77.7927 63.2995 77.7075C64.3476 77.5339 64.7671 77.2822 64.929 77.0982C65.2311 76.2411 65.4987 75.3174 65.7883 74.3177L65.7888 74.3159L65.7901 74.3114C65.9212 73.8589 66.0568 73.3908 66.2022 72.9063C66.6758 71.328 67.2367 69.6403 68.0332 68.0987C68.6876 66.8322 69.5222 65.6214 70.64 64.6305C69.4452 64.2753 68.3136 63.6889 67.3494 62.8575C65.5979 61.3473 64.4891 59.1021 64.5251 56.2477C64.4891 53.3933 65.5979 51.148 67.3494 49.6378C69.0717 48.1527 71.3284 47.4492 73.5252 47.4492C75.722 47.4492 77.9787 48.1527 79.7011 49.6378C81.4525 51.148 82.5614 53.3933 82.5254 56.2477C82.5582 58.8515 81.6384 60.9484 80.1471 62.4429C82.2444 62.9996 83.9245 64.4258 85.2388 66.2419C87.1008 68.815 88.3679 72.3297 89.3033 75.8223C90.1588 79.0171 90.7707 82.3324 91.2818 85.1013L91.433 85.9193C91.7068 87.3947 91.6334 86.7465 91.8752 87.7433C92.1352 88.8149 92.341 89.3304 92.4473 89.486C92.9145 90.1702 92.7386 91.1035 92.0545 91.5707C91.3704 92.0379 90.437 91.862 89.9698 91.1779C89.5108 90.5057 89.2057 89.4642 88.9598 88.4506C88.6957 87.3622 88.7553 87.932 88.4834 86.4667C88.4351 86.2066 88.3862 85.9421 88.3367 85.6738L88.3331 85.6541C87.8191 82.8706 87.2284 79.6716 86.4054 76.5984C85.4948 73.198 84.3403 70.1176 82.8084 68.0007C81.3149 65.937 79.614 64.9631 77.4643 65.2358C77.4075 65.243 77.3503 65.2469 77.293 65.2476C75.4724 65.2688 74.1633 65.7433 73.165 66.4504C72.1494 67.1697 71.3579 68.1994 70.6985 69.4757C70.0353 70.7593 69.5383 72.2265 69.0756 73.7685C68.9502 74.1866 68.8256 74.6165 68.7001 75.0496C68.3784 76.1598 68.0507 77.291 67.6872 78.2947C67.6557 78.3816 67.6163 78.4653 67.5694 78.5449C66.7201 79.9876 65.0773 80.4539 63.7898 80.6672C62.8227 80.8274 61.6895 80.8918 60.6465 80.951C60.2525 80.9734 59.8707 80.9951 59.5163 81.0209C58.0898 81.1248 57.0169 81.2954 56.3205 81.6487C56.0054 81.8085 55.829 81.9769 55.7236 82.1444C55.621 82.3073 55.5199 82.5734 55.5255 83.0423C55.5258 83.0718 55.5253 83.1013 55.5239 83.1308C55.5047 83.5379 55.5935 83.7597 55.6832 83.896C55.7811 84.0448 55.9632 84.216 56.3139 84.3798C56.6561 84.5398 57.089 84.6612 57.6029 84.7477H63.025C63.1272 84.7477 63.2269 84.7579 63.3234 84.7773L63.6264 84.7577C63.8719 84.7417 64.1159 84.7258 64.3569 84.7108C65.0821 84.6656 65.7908 84.6281 66.4166 84.6269C66.9632 84.6257 67.542 84.6505 68.051 84.7586C69.8833 84.851 71.1684 83.613 72.3241 81.1862C72.8951 79.9873 73.3596 78.6443 73.8081 77.3037C73.8495 77.1799 73.891 77.0555 73.9325 76.9309C74.3245 75.7549 74.7244 74.555 75.1676 73.6105C75.5196 72.8605 76.4128 72.5378 77.1628 72.8897C77.9127 73.2417 78.2354 74.1349 77.8835 74.8849C77.5197 75.6602 77.1772 76.6861 76.7663 77.9169L76.6532 78.2555C76.2073 79.5884 75.6917 81.0921 75.0326 82.4761C74.9254 82.7013 74.8121 82.9278 74.6922 83.1535L76.2009 90.4308C76.3672 91.2423 75.8442 92.0351 75.0326 92.2014C74.2211 92.3678 73.4283 91.8448 73.262 91.0332L72.2741 86.2965C71.1031 87.2761 69.6185 87.889 67.7184 87.7433C67.6325 87.7367 67.5473 87.7227 67.4638 87.7015C67.3023 87.6605 66.9747 87.6257 66.4227 87.6269C65.8949 87.6279 65.2646 87.6601 64.5433 87.705C64.3202 87.7189 64.0889 87.734 63.851 87.7495C62.5867 87.8322 61.1377 87.9269 59.7611 87.9131C58.9783 87.9052 58.1613 87.8633 57.3705 87.7477H38.6801C37.8893 87.8633 37.0723 87.9052 36.2894 87.9131C34.9129 87.9269 33.4639 87.8322 32.1996 87.7495C31.9617 87.734 31.7304 87.7189 31.5073 87.705C30.7859 87.6601 30.1556 87.6279 29.6278 87.6269C29.0759 87.6257 28.7483 87.6605 28.5868 87.7015C28.5033 87.7227 28.4181 87.7367 28.3322 87.7433C26.3184 87.8977 24.7713 87.2 23.5695 86.1169L22.6081 90.592C22.4725 91.4093 21.7001 91.962 20.8829 91.8264C20.0656 91.6909 19.5129 90.9185 19.6485 90.1012L21.0451 83.0023C21.0624 82.8975 21.0903 82.7971 21.1273 82.702C21.0901 82.6266 21.0537 82.5512 21.0179 82.4761C20.3588 81.0921 19.8432 79.5884 19.3973 78.2555L19.2843 77.917C18.8733 76.6861 18.5308 75.6602 18.167 74.8849C17.8151 74.1349 18.1378 73.2417 18.8877 72.8897C19.6377 72.5378 20.5309 72.8605 20.8829 73.6105C21.3261 74.555 21.726 75.7549 22.118 76.9309C22.1595 77.0555 22.201 77.1799 22.2424 77.3037C22.6909 78.6443 23.1555 79.9873 23.7264 81.1862C24.8821 83.613 26.1673 84.851 27.9996 84.7586C28.5085 84.6505 29.0873 84.6257 29.634 84.6269C30.2598 84.6281 30.9685 84.6656 31.6937 84.7108C31.9345 84.7258 32.178 84.7416 32.4234 84.7576L32.7267 84.7773C32.823 84.7579 32.9228 84.7477 33.0249 84.7477H38.4476C38.9615 84.6612 39.3945 84.5398 39.7367 84.3798C40.0873 84.216 40.2695 84.0448 40.3674 83.896C40.4571 83.7597 40.5459 83.5379 40.5267 83.1308C40.5253 83.1013 40.5248 83.0718 40.5251 83.0423C40.5307 82.5734 40.4295 82.3073 40.327 82.1444C40.2216 81.9769 40.0451 81.8085 39.7301 81.6487C39.0336 81.2954 37.9608 81.1248 36.5343 81.0209C36.18 80.9951 35.799 80.9734 35.4051 80.9511L35.4041 80.951C34.3611 80.8918 33.2279 80.8274 32.2608 80.6672C30.9733 80.4539 29.3304 79.9876 28.4811 78.5449C28.4343 78.4653 28.3949 78.3816 28.3634 78.2947C27.9999 77.2911 27.6722 76.1603 27.3506 75.0502C27.2251 74.617 27.1004 74.1867 26.9749 73.7685C26.5122 72.2265 26.0152 70.7593 25.352 69.4757C24.6926 68.1994 23.9011 67.1697 22.8855 66.4504C21.8872 65.7433 20.5781 65.2688 18.7575 65.2476C18.7002 65.2469 18.643 65.243 18.5862 65.2358C16.4365 64.9631 14.7356 65.937 13.2421 68.0007C11.7102 70.1176 10.5558 73.198 9.64515 76.5984C8.82215 79.6715 8.23147 82.8706 7.71749 85.6541C7.66669 85.9292 7.61664 86.2002 7.56719 86.4667C7.29525 87.932 7.64968 86.2856 7.3856 87.374C7.13968 88.3876 6.83462 89.4291 6.37558 90.1012C5.90839 90.7854 4.97507 90.9612 4.29094 90.494C3.60682 90.0269 3.43096 89.0935 3.89815 88.4094C4.00442 88.2538 4.21018 87.7383 4.47019 86.6667C4.71203 85.6699 4.34374 87.3947 4.61755 85.9193C4.66704 85.6526 4.7174 85.3797 4.76879 85.1013C5.27983 82.3324 5.89173 79.0171 6.74729 75.8223C7.68262 72.3297 8.94968 68.815 10.8117 66.2419C12.126 64.4259 13.806 62.9997 15.9032 62.443C14.4119 60.9485 13.4921 58.8515 13.5249 56.2477C13.4889 53.3933 14.5978 51.148 16.3492 49.6378C18.0716 48.1527 20.3282 47.4492 22.525 47.4492C24.7219 47.4492 26.9786 48.1527 28.701 49.6378ZM16.5249 56.2257C16.4956 54.2249 17.2428 52.8286 18.3083 51.9098C19.4073 50.9622 20.9362 50.4492 22.525 50.4492C24.1139 50.4492 25.6428 50.9622 26.7418 51.9098C27.8073 52.8286 28.5546 54.2249 28.5253 56.2257C28.5251 56.2403 28.5251 56.255 28.5253 56.2696C28.5546 58.2704 27.8073 59.6667 26.7418 60.5855C25.6428 61.5331 24.1139 62.0461 22.525 62.0461C20.9362 62.0461 19.4073 61.5331 18.3083 60.5855C17.2428 59.6667 16.4956 58.2704 16.5249 56.2696C16.5251 56.255 16.5251 56.2403 16.5249 56.2257ZM58.6099 78.0858C59.2286 73.7443 58.0419 70.6462 56.1143 68.6125C54.0887 66.4753 51.0949 65.3563 48.0263 65.3555C44.9576 65.3546 41.9641 66.4719 39.9383 68.6085C38.0105 70.6416 36.823 73.7405 37.4409 78.0858C38.6711 78.2024 39.9992 78.4213 41.0873 78.9732C41.7679 79.3185 42.4081 79.8187 42.8661 80.5466C43.3199 81.2677 43.5296 82.1085 43.5253 83.0343C43.5489 83.6418 43.4678 84.2177 43.2743 84.7477H52.7763C52.5827 84.2177 52.5017 83.6418 52.5253 83.0342C52.521 82.1085 52.7307 81.2677 53.1845 80.5466C53.6425 79.8187 54.2826 79.3185 54.9633 78.9732C56.0514 78.4213 57.3796 78.2023 58.6099 78.0858ZM67.5251 56.2257C67.4958 54.2249 68.243 52.8286 69.3085 51.9098C70.4075 50.9622 71.9364 50.4492 73.5252 50.4492C75.1141 50.4492 76.643 50.9622 77.742 51.9098C78.8075 52.8286 79.5547 54.2249 79.5254 56.2257L79.5253 56.2444L79.5254 56.2696C79.5547 58.2704 78.8075 59.6667 77.742 60.5855C76.643 61.5331 75.1141 62.0461 73.5252 62.0461C71.9364 62.0461 70.4075 61.5331 69.3085 60.5855C68.243 59.6667 67.4958 58.2704 67.5251 56.2696C67.5253 56.255 67.5253 56.2403 67.5251 56.2257ZM43.8083 51.9098C42.7428 52.8286 41.9957 54.2249 42.025 56.2257C42.0252 56.2403 42.0252 56.255 42.025 56.2696C41.9957 58.2704 42.7428 59.6667 43.8083 60.5855C44.9074 61.5331 46.4363 62.0461 48.0251 62.0461C49.6139 62.0461 51.143 61.5331 52.242 60.5855C53.3075 59.6667 54.0547 58.2704 54.0254 56.2696C54.0252 56.255 54.0252 56.2403 54.0254 56.2257C54.0547 54.2249 53.3075 52.8286 52.242 51.9098C51.143 50.9622 49.6139 50.4492 48.0251 50.4492C46.4363 50.4492 44.9074 50.9622 43.8083 51.9098Z" fill="#006FFF"/>
<g clip-path="url(#clip0_1452_29996)">
<path d="M81.82 26.1675C81.82 23.6975 81.65 20.8275 80.39 18.2175C79.14 15.6275 76.99 13.6675 73.83 12.2175C72.18 9.5075 69.38 7.5475 65.28 6.2075C60.59 4.6775 54.08 3.9375 45.39 3.9375C32.75 3.9375 24.72 5.4875 20.13 8.8275C15.62 12.0975 15 16.6675 15 21.1275C15 24.8575 15.41 28.7475 18.36 31.8875C21.13 34.8275 25.86 36.6975 32.82 37.6175L30.78 42.5775C30.54 43.1575 30.7 43.8275 31.17 44.2475C31.64 44.6575 32.32 44.7275 32.87 44.4175L43.6 38.3075C44.19 38.3075 44.78 38.3075 45.41 38.3175H45.43C53.15 38.2075 59.09 37.5975 63.58 36.4775C68.04 35.3575 71.17 33.7075 73.16 31.4075C75 29.2875 75.89 26.5875 75.88 23.1575C75.88 21.2575 75.59 19.0475 75 16.2575C76.24 17.1675 77.14 18.2275 77.75 19.4875C78.75 21.5575 78.88 24.0175 78.88 26.1475C78.88 29.9575 78.38 32.9575 75.95 35.2575C73.05 37.9975 67.5 39.6075 58.99 40.1675C58.87 40.1675 58.76 40.1875 58.66 40.2175C58.58 40.2375 58.5 40.2675 58.42 40.3075C57.73 40.6375 57.4 41.4475 57.68 42.1675L58.31 43.8075L52.12 40.5775C51.77 40.3975 51.37 40.3575 51 40.4775C50.62 40.5975 50.32 40.8475 50.14 41.1975C49.76 41.9175 50.04 42.8075 50.76 43.1875L60.4 48.2175C60.61 48.3275 60.85 48.3875 61.08 48.3875C61.43 48.3875 61.79 48.2575 62.06 48.0175C62.52 47.6175 62.67 46.9575 62.46 46.3875L61.15 42.9675C69.41 42.2275 74.76 40.4575 77.99 37.4075C81.38 34.2075 81.84 30.1175 81.84 26.1575L81.82 26.1675ZM36.28 36.9475C36.36 36.7475 36.4 36.5375 36.39 36.3275C36.36 35.5975 35.79 34.9975 35.07 34.9275C27.77 34.1775 23 32.5275 20.51 29.8775C18.39 27.6275 17.95 24.7575 17.95 21.1375C17.95 16.7675 18.6 13.5775 21.86 11.2175C25.87 8.3075 33.57 6.8975 45.4 6.8975C53.78 6.8975 59.99 7.5975 64.38 9.0275C67.87 10.1675 70.18 11.7775 71.43 13.9475C72.2 17.0875 72.92 20.3775 72.93 23.1975C72.94 25.9175 72.31 27.9175 70.93 29.5075C69.35 31.3375 66.71 32.6875 62.86 33.6475C58.59 34.7175 52.87 35.2875 45.39 35.3975C44.66 35.3975 43.96 35.3975 43.26 35.3775C43.07 35.3775 42.89 35.3975 42.71 35.4675C42.63 35.4975 42.55 35.5275 42.48 35.5675L35.11 39.7575L36.26 36.9475H36.28Z" fill="#006FFF"/>
</g>
</g>
<defs>
<clipPath id="clip0_1452_29996">
<rect width="66.82" height="44.45" fill="white" transform="translate(15 3.9375)"/>
</clipPath>
</defs>
</svg>
