<svg width="96" height="96" viewBox="0 0 96 96" fill="none" xmlns="http://www.w3.org/2000/svg">
<g id="Clip path group">
<mask id="mask0_1452_30013" style="mask-type:luminance" maskUnits="userSpaceOnUse" x="0" y="0" width="96" height="96">
<g id="clippath-1">
<path id="Vector" d="M96 0H0V96H96V0Z" fill="white"/>
</g>
</mask>
<g mask="url(#mask0_1452_30013)">
<g id="Vector_2">
<path fill-rule="evenodd" clip-rule="evenodd" d="M48.6189 40.182C45.1242 39.2704 41.2605 40.1682 38.5319 42.8837C34.4411 46.9549 34.4411 53.5499 38.5319 57.6211C42.6267 61.6962 49.2709 61.6962 53.3657 57.6211C57.4565 53.5499 57.4565 46.9549 53.3657 42.8837C52.7785 42.2994 52.7762 41.3496 53.3605 40.7624C53.9449 40.1752 54.8947 40.1729 55.4819 40.7573C60.7511 46.0012 60.7511 54.5036 55.4819 59.7475C50.2167 64.9874 41.6809 64.9874 36.4157 59.7475C31.1465 54.5036 31.1465 46.0012 36.4157 40.7573C39.9346 37.2553 44.9058 36.1131 49.3761 37.2791C50.1777 37.4882 50.658 38.3075 50.4489 39.1091C50.2399 39.9107 49.4205 40.391 48.6189 40.182Z" fill="#006FFF"/>
<path fill-rule="evenodd" clip-rule="evenodd" d="M58.7407 29.5324C49.3088 23.7594 36.8087 24.917 28.6431 33.0437C19.0923 42.5486 19.0923 57.9524 28.6431 67.4573C38.2018 76.9663 53.696 76.966 63.2506 67.4573C72.8014 57.9524 72.8014 42.5486 63.2506 33.0437C62.6634 32.4593 62.6612 31.5096 63.2455 30.9224C63.8299 30.3352 64.7796 30.3329 65.3668 30.9173C76.096 41.5949 76.096 58.9061 65.3668 69.5837C54.6415 80.2574 37.2559 80.2572 26.5271 69.5839C15.7979 58.9063 15.7977 41.5949 26.5269 30.9173C35.7013 21.7865 49.7287 20.4991 60.3068 26.9736C61.0134 27.4061 61.2356 28.3295 60.8031 29.0361C60.3706 29.7426 59.4473 29.9648 58.7407 29.5324Z" fill="#006FFF"/>
<path fill-rule="evenodd" clip-rule="evenodd" d="M16.642 21.0808C29.3359 8.4531 48.2076 5.73416 63.5634 12.9064C64.314 13.257 64.6383 14.1497 64.2877 14.9003C63.9371 15.6509 63.0444 15.9751 62.2939 15.6246C48.0397 8.96684 30.5289 11.4979 18.7578 23.2077C3.74697 38.1463 3.74719 62.3586 18.758 77.2973C33.7728 92.2399 58.1207 92.2399 73.1355 77.2973C86.3916 64.1061 87.9335 43.6814 77.7772 28.8024C77.3102 28.1182 77.4863 27.1849 78.1705 26.7179C78.8547 26.2508 79.788 26.4269 80.255 27.1111C91.2113 43.1621 89.5506 65.1948 75.2517 79.4237C59.0665 95.5311 32.827 95.5311 16.6418 79.4237C0.452593 63.3123 0.452809 37.1922 16.642 21.0808Z" fill="#006FFF"/>
<path fill-rule="evenodd" clip-rule="evenodd" d="M69.0774 27.2404C69.6615 27.828 69.6587 28.7777 69.0712 29.3618L67.7924 30.633C67.2049 31.2171 66.2552 31.2143 65.6711 30.6268C65.087 30.0393 65.0898 29.0895 65.6773 28.5055L66.9561 27.2342C67.5436 26.6502 68.4933 26.6529 69.0774 27.2404Z" fill="#006FFF"/>
<path fill-rule="evenodd" clip-rule="evenodd" d="M65.3717 30.9223C65.9561 31.5094 65.954 32.4591 65.3668 33.0436L55.4818 42.8836C54.8947 43.468 53.945 43.4659 53.3605 42.8787C52.7761 42.2916 52.7782 41.3419 53.3654 40.7574L63.2504 30.9174C63.8375 30.333 64.7872 30.3352 65.3717 30.9223Z" fill="#006FFF"/>
<path fill-rule="evenodd" clip-rule="evenodd" d="M55.4871 40.7625C56.0714 41.3498 56.0691 42.2993 55.4818 42.8836L46.4743 51.8463C45.887 52.4306 44.9373 52.4283 44.353 51.841C43.7686 51.2538 43.771 50.304 44.3583 49.7197L53.3654 40.7574C53.9526 40.1731 54.9028 40.1753 55.4871 40.7625Z" fill="#006FFF"/>
<path fill-rule="evenodd" clip-rule="evenodd" d="M73.1268 23.2085C73.7112 23.7957 73.709 24.7454 73.1219 25.3299L69.0719 29.3611C68.4847 29.9455 67.535 29.9433 66.9506 29.3562C66.3661 28.769 66.3683 27.8193 66.9555 27.2349L71.0055 23.2036C71.5926 22.6192 72.5424 22.6214 73.1268 23.2085Z" fill="#006FFF"/>
<path fill-rule="evenodd" clip-rule="evenodd" d="M67.7989 28.5119C68.3829 29.0995 68.38 30.049 67.7924 30.633L65.3661 33.0444C64.7785 33.6284 63.8287 33.6255 63.2448 33.0379C62.6608 32.4503 62.6638 31.5005 63.2514 30.9165L65.6773 28.5055C66.2649 27.9215 67.215 27.9243 67.7989 28.5119Z" fill="#006FFF"/>
<path fill-rule="evenodd" clip-rule="evenodd" d="M66.4057 26.6462C67.2289 26.5535 67.9714 27.1457 68.0641 27.969L68.2253 29.4015C68.318 30.2247 67.7258 30.9672 66.9025 31.0598C66.0793 31.1525 65.3368 30.5603 65.2442 29.7371L65.0829 28.3046C64.9903 27.4813 65.5825 26.7388 66.4057 26.6462Z" fill="#006FFF"/>
<path fill-rule="evenodd" clip-rule="evenodd" d="M77.3923 15.3418C78.2208 15.3418 78.8923 16.0133 78.8923 16.8418V18.9643C78.8923 19.7927 78.2208 20.4643 77.3923 20.4643C76.5639 20.4643 75.8923 19.7927 75.8923 18.9643V16.8418C75.8923 16.0133 76.5639 15.3418 77.3923 15.3418Z" fill="#006FFF"/>
<path fill-rule="evenodd" clip-rule="evenodd" d="M77.9681 6.97037C78.5277 7.20295 78.8924 7.74946 78.8924 8.35551L78.8923 16.8418C78.8923 17.6702 78.2208 18.3418 77.3924 18.3418C76.564 18.3418 75.8923 17.6702 75.8923 16.8418L75.8924 11.9648L72.0568 15.7824C71.4697 16.3668 70.5199 16.3646 69.9355 15.7774C69.3511 15.1903 69.3533 14.2405 69.9405 13.6561L76.3343 7.29236C76.7638 6.86483 77.4084 6.73778 77.9681 6.97037Z" fill="#006FFF"/>
<path fill-rule="evenodd" clip-rule="evenodd" d="M72.0624 13.6616C72.6465 14.2491 72.6443 15.1983 72.0568 15.7824L69.4126 18.4117C68.8252 18.9958 67.8754 18.9931 67.2913 18.4056C66.7072 17.8182 66.7099 16.8685 67.2973 16.2843L69.9411 13.6556C70.5285 13.0715 71.4783 13.0742 72.0624 13.6616Z" fill="#006FFF"/>
<path fill-rule="evenodd" clip-rule="evenodd" d="M69.4187 16.2903C70.0028 16.8777 70.0001 17.8275 69.4126 18.4117L67.2375 20.5747L68.0645 27.97C68.1566 28.7933 67.5638 29.5354 66.7405 29.6274C65.9172 29.7195 65.1751 29.1267 65.0831 28.3034L64.1756 20.1884C64.1247 19.7338 64.2842 19.2807 64.6086 18.9581L67.2973 16.2843C67.8848 15.7002 68.8345 15.7029 69.4187 16.2903Z" fill="#006FFF"/>
<path fill-rule="evenodd" clip-rule="evenodd" d="M80.0791 26.8946C80.6637 27.4816 80.6617 28.4313 80.0747 29.0159L77.3859 31.6934C77.064 32.014 76.6141 32.1714 76.1626 32.1214L66.5701 31.0602C65.7467 30.9691 65.153 30.2277 65.2441 29.4043C65.3352 28.5809 66.0765 27.9873 66.8999 28.0784L75.7782 29.0606L77.9578 26.8901C78.5448 26.3056 79.4946 26.3076 80.0791 26.8946Z" fill="#006FFF"/>
<path fill-rule="evenodd" clip-rule="evenodd" d="M75.8923 18.9643C75.8923 18.1359 76.5639 17.4643 77.3923 17.4643H79.5261C80.3545 17.4643 81.0261 18.1359 81.0261 18.9643C81.0261 19.7927 80.3545 20.4643 79.5261 20.4643H77.3923C76.5639 20.4643 75.8923 19.7927 75.8923 18.9643Z" fill="#006FFF"/>
<path fill-rule="evenodd" clip-rule="evenodd" d="M78.0261 18.9643C78.0261 18.1359 78.6977 17.4643 79.5261 17.4643H88.0536C88.661 17.4643 89.2085 17.8306 89.4402 18.3921C89.6719 18.9536 89.5421 19.5994 89.1114 20.0278L80.0739 29.0165C79.4865 29.6007 78.5368 29.5982 77.9526 29.0108C77.3684 28.4234 77.371 27.4737 77.9583 26.8895L84.4184 20.4643H79.5261C78.6977 20.4643 78.0261 19.7927 78.0261 18.9643Z" fill="#006FFF"/>
<path fill-rule="evenodd" clip-rule="evenodd" d="M65.0828 27.9698C65.175 27.1466 65.9171 26.5539 66.7404 26.6461L68.1804 26.8073C69.0037 26.8995 69.5964 27.6416 69.5042 28.4649C69.412 29.2882 68.6699 29.8809 67.8466 29.7887L66.4066 29.6274C65.5833 29.5353 64.9906 28.7931 65.0828 27.9698Z" fill="#006FFF"/>
</g>
</g>
</g>
</svg>
