<svg width="96" height="96" viewBox="0 0 96 96" fill="none" xmlns="http://www.w3.org/2000/svg">
<path fill-rule="evenodd" clip-rule="evenodd" d="M51.9485 60.7736C52.3602 60.0547 53.2767 59.8056 53.9956 60.2173L54.4606 60.4836C55.1795 60.8952 55.4286 61.8117 55.017 62.5306C54.6053 63.2495 53.6888 63.4986 52.9699 63.087L52.5049 62.8207C51.786 62.4091 51.5369 61.4926 51.9485 60.7736Z" fill="#006FFF"/>
<path fill-rule="evenodd" clip-rule="evenodd" d="M52.4166 61.0348C52.831 60.3175 53.7485 60.072 54.4658 60.4865C55.7127 61.207 58.448 62.7839 61.523 64.5567C62.7832 65.2832 64.1005 66.0427 65.3959 66.7895C66.1135 67.2034 66.3599 68.1206 65.946 68.8383C65.5322 69.5559 64.615 69.8023 63.8973 69.3885C62.603 68.6421 61.2862 67.883 60.0263 67.1567C56.9506 65.3835 54.2131 63.8053 52.9649 63.084C52.2476 62.6696 52.0021 61.7521 52.4166 61.0348Z" fill="#006FFF"/>
<path fill-rule="evenodd" clip-rule="evenodd" d="M46.8301 67.3848C47.2563 66.6744 48.1777 66.444 48.888 66.8702L48.963 66.9152C49.6734 67.3415 49.9038 68.2629 49.4776 68.9732C49.0513 69.6836 48.13 69.914 47.4196 69.4877L47.3446 69.4427C46.6342 69.0165 46.4039 68.0951 46.8301 67.3848Z" fill="#006FFF"/>
<path fill-rule="evenodd" clip-rule="evenodd" d="M46.8917 67.4526C47.3054 66.7348 48.2225 66.4882 48.9403 66.9018C49.4754 67.2101 50.2492 67.6565 51.1855 68.1966C52.796 69.1254 54.887 70.3315 57.0702 71.5893C57.788 72.0028 58.0347 72.9199 57.6212 73.6378C57.2076 74.3556 56.2905 74.6023 55.5726 74.1888C53.3908 72.9318 51.2939 71.7224 49.6815 70.7923C48.7462 70.2528 47.9738 69.8073 47.4425 69.5012C46.7247 69.0876 46.4781 68.1704 46.8917 67.4526Z" fill="#006FFF"/>
<path fill-rule="evenodd" clip-rule="evenodd" d="M53.741 60.0698L53.8118 60.1107C53.8571 60.1369 53.9225 60.1749 54.004 60.2222C54.7199 60.6384 54.9631 61.556 54.5473 62.2721C54.1316 62.9883 53.2141 63.232 52.4978 62.8167L52.239 62.6667C51.5228 62.2515 51.2784 61.3346 51.6929 60.618C52.1073 59.9014 53.024 59.656 53.741 60.0698Z" fill="#006FFF"/>
<path d="M41.1753 72.889C41.1753 73.7174 40.5037 74.389 39.6753 74.389C38.8469 74.389 38.1753 73.7174 38.1753 72.889C38.1753 72.0606 38.8469 71.389 39.6753 71.389C40.5037 71.389 41.1753 72.0606 41.1753 72.889Z" fill="#006FFF"/>
<path d="M32.8542 68.089C32.8542 68.9174 32.1827 69.589 31.3542 69.589C30.5258 69.589 29.8542 68.9174 29.8542 68.089C29.8542 67.2606 30.5258 66.589 31.3542 66.589C32.1827 66.589 32.8542 67.2606 32.8542 68.089Z" fill="#006FFF"/>
<path fill-rule="evenodd" clip-rule="evenodd" d="M46.3618 67.1408C46.7777 66.4244 47.6957 66.1808 48.4121 66.5968C48.4348 66.61 48.4584 66.6237 48.4829 66.6379C48.5888 66.6995 48.7126 66.7715 48.8616 66.8563C49.5818 67.2658 49.8336 68.1816 49.4241 68.9017C49.0146 69.6218 48.0989 69.8737 47.3787 69.4642C47.2155 69.3714 47.0769 69.2907 46.9707 69.2289C46.9475 69.2154 46.9258 69.2028 46.9057 69.1912C46.1893 68.7752 45.9458 67.8572 46.3618 67.1408Z" fill="#006FFF"/>
<path fill-rule="evenodd" clip-rule="evenodd" d="M37.5219 71.6424C37.937 70.9255 38.8547 70.6808 39.5716 71.0959L40.4266 71.5909C41.1436 72.0059 41.3883 72.9236 40.9732 73.6405C40.5581 74.3575 39.6405 74.6022 38.9235 74.1871L38.0685 73.6921C37.3516 73.2771 37.1069 72.3594 37.5219 71.6424Z" fill="#006FFF"/>
<path fill-rule="evenodd" clip-rule="evenodd" d="M29.7982 67.2065C30.2069 66.4859 31.1223 66.2331 31.8429 66.6418L32.0942 66.7843C32.8148 67.193 33.0676 68.1084 32.6589 68.829C32.2502 69.5496 31.3347 69.8025 30.6142 69.3938L30.3629 69.2513C29.6423 68.8426 29.3895 67.9271 29.7982 67.2065Z" fill="#006FFF"/>
<path fill-rule="evenodd" clip-rule="evenodd" d="M38.1753 72.889C38.1753 72.0606 38.8469 71.389 39.6753 71.389H39.679C40.5075 71.389 41.179 72.0606 41.179 72.889C41.179 73.7174 40.5075 74.389 39.679 74.389H39.6753C38.8469 74.389 38.1753 73.7174 38.1753 72.889Z" fill="#006FFF"/>
<path fill-rule="evenodd" clip-rule="evenodd" d="M52.4159 61.0359C52.8298 60.3183 53.747 60.072 54.4647 60.4858L65.3959 66.7895C66.1135 67.2034 66.3599 68.1206 65.946 68.8383C65.5322 69.5559 64.615 69.8023 63.8973 69.3885L52.966 63.0847C52.2483 62.6708 52.0021 61.7536 52.4159 61.0359Z" fill="#006FFF"/>
<path fill-rule="evenodd" clip-rule="evenodd" d="M70.8977 62.9627C70.8977 62.1343 71.5693 61.4627 72.3977 61.4627H72.4015C73.2299 61.4627 73.9015 62.1343 73.9015 62.9627C73.9015 63.7912 73.2299 64.4627 72.4015 64.4627H72.3977C71.5693 64.4627 70.8977 63.7912 70.8977 62.9627Z" fill="#006FFF"/>
<path fill-rule="evenodd" clip-rule="evenodd" d="M46.2671 67.1071C46.6747 66.386 47.5898 66.1318 48.311 66.5394L48.3973 66.5882C49.1184 66.9958 49.3726 67.9109 48.965 68.6321C48.5573 69.3533 47.6422 69.6075 46.921 69.1998L46.8348 69.1511C46.1136 68.7434 45.8594 67.8283 46.2671 67.1071Z" fill="#006FFF"/>
<path fill-rule="evenodd" clip-rule="evenodd" d="M45.486 76.2379C45.9001 75.5204 46.8175 75.2745 47.535 75.6886L48.75 76.3899C49.4675 76.804 49.7134 77.7213 49.2993 78.4388C48.8852 79.1563 47.9678 79.4023 47.2504 78.9881L46.0354 78.2869C45.3179 77.8728 45.0719 76.9554 45.486 76.2379Z" fill="#006FFF"/>
<path fill-rule="evenodd" clip-rule="evenodd" d="M48.3803 66.5788C47.694 66.1428 46.7817 66.3333 46.3284 67.0132C45.8689 67.7025 46.0551 68.6338 46.7444 69.0933C46.7914 69.1246 46.8793 69.1812 46.9881 69.2356C47.7291 69.6061 48.6301 69.3058 49.0006 68.5648C49.3625 67.8409 49.0842 66.9643 48.3803 66.5788Z" fill="#006FFF"/>
<path fill-rule="evenodd" clip-rule="evenodd" d="M48.1137 66.4252L47.3854 67.7365C48.1137 66.4252 48.1137 66.4252 48.1137 66.4252L48.1167 66.4268L48.1212 66.4294L48.1349 66.4371C48.146 66.4434 48.1613 66.452 48.1803 66.4629C48.2184 66.4848 48.2719 66.5158 48.3387 66.5555C49.0484 66.9769 49.2843 67.8925 48.8666 68.6044C48.4488 69.3163 47.5344 69.5569 46.8203 69.1428L46.6328 69.0341C45.9209 68.6212 45.6746 67.7118 46.0809 66.996C46.4872 66.2803 47.3942 66.0256 48.1137 66.4252Z" fill="#006FFF"/>
<path fill-rule="evenodd" clip-rule="evenodd" d="M51.9567 60.7658C52.3727 60.0494 53.2907 59.8058 54.0071 60.2218C54.0298 60.235 54.0533 60.2487 54.0779 60.2629C54.1838 60.3245 54.3075 60.3965 54.4566 60.4813C55.1768 60.8908 55.4286 61.8066 55.0191 62.5267C54.6096 63.2468 53.6939 63.4987 52.9737 63.0892C52.8105 62.9964 52.6719 62.9157 52.5657 62.8539C52.5424 62.8404 52.5208 62.8278 52.5007 62.8162C51.7843 62.4002 51.5407 61.4822 51.9567 60.7658Z" fill="#006FFF"/>
<path fill-rule="evenodd" clip-rule="evenodd" d="M46.3579 67.1475C46.7702 66.4289 47.6869 66.1807 48.4055 66.593L48.863 66.8555C49.5815 67.2677 49.8298 68.1845 49.4175 68.903C49.0052 69.6216 48.0885 69.8698 47.3699 69.4576L46.9124 69.195C46.1939 68.7828 45.9456 67.866 46.3579 67.1475Z" fill="#006FFF"/>
<path fill-rule="evenodd" clip-rule="evenodd" d="M46.8917 67.4526C47.3054 66.7348 48.2225 66.4882 48.9403 66.9018L57.0702 71.5893C57.788 72.0028 58.0347 72.9199 57.6212 73.6378C57.2076 74.3556 56.2905 74.6023 55.5726 74.1888L47.4425 69.5012C46.7247 69.0876 46.4781 68.1704 46.8917 67.4526Z" fill="#006FFF"/>
<path fill-rule="evenodd" clip-rule="evenodd" d="M46.814 67.4123C47.225 66.693 48.1413 66.4431 48.8606 66.8541C48.8957 66.8742 48.9262 66.893 48.9379 66.9002C48.9386 66.9007 48.9397 66.9015 48.9403 66.9018C48.9423 66.903 48.9435 66.9037 48.9447 66.9044C49.6569 67.3179 49.903 68.2295 49.4937 68.9457C49.0827 69.665 48.1664 69.9149 47.4471 69.5039C47.412 69.4838 47.3816 69.4647 47.3699 69.4576C47.3691 69.4571 47.3683 69.4569 47.3677 69.4565C47.3658 69.4553 47.3642 69.4544 47.363 69.4536C46.6508 69.0401 46.4047 68.1285 46.814 67.4123Z" fill="#006FFF"/>
<path fill-rule="evenodd" clip-rule="evenodd" d="M55.5791 72.4548C55.9949 71.7383 56.9128 71.4946 57.6293 71.9104C60.3344 73.4803 61.2403 76.9297 59.6758 79.6422L59.6721 79.6486L59.621 79.7361C58.0923 82.3781 54.7059 83.2866 52.0583 81.7597L47.2544 78.9883C46.5368 78.5743 46.2906 77.657 46.7046 76.9395C47.1186 76.2219 48.0359 75.9757 48.7535 76.3897L53.557 79.1609C53.557 79.1608 53.5571 79.1609 53.557 79.1609C54.7709 79.8608 56.3256 79.443 57.0251 78.2323L57.0283 78.2269L57.0787 78.1404C57.8219 76.8485 57.385 75.2372 56.1235 74.5051C55.407 74.0893 55.1632 73.1714 55.5791 72.4548Z" fill="#006FFF"/>
<path fill-rule="evenodd" clip-rule="evenodd" d="M55.8509 53.4197C56.2647 52.7021 57.1819 52.4557 57.8995 52.8695L73.0964 61.6309C73.2204 61.6965 73.3443 61.7841 73.4585 61.8983C73.7339 62.1738 73.8799 62.5297 73.8963 62.8904C73.91 63.1683 73.8466 63.4532 73.6972 63.7121C73.2834 64.4298 72.3661 64.676 71.6485 64.2621L56.4011 55.4685C55.6836 55.0546 55.4371 54.1373 55.8509 53.4197Z" fill="#006FFF"/>
<path fill-rule="evenodd" clip-rule="evenodd" d="M63.357 67.3294C63.7765 66.615 64.6957 66.376 65.41 66.7956C65.6404 66.9309 65.8752 67.0666 66.1071 67.1991C66.8264 67.6101 67.0763 68.5264 66.6653 69.2457C66.2542 69.965 65.338 70.2149 64.6187 69.8038C64.3781 69.6664 64.1329 69.5246 63.8908 69.3824C63.1764 68.9629 62.9374 68.0437 63.357 67.3294Z" fill="#006FFF"/>
<path fill-rule="evenodd" clip-rule="evenodd" d="M63.3465 67.3404C63.7599 66.6225 64.6771 66.3757 65.395 66.7892L66.1112 67.2016C66.8291 67.6151 67.0759 68.5322 66.6625 69.2501C66.249 69.968 65.3319 70.2148 64.614 69.8013L63.8973 69.3885C63.1794 68.975 62.9331 68.0583 63.3465 67.3404Z" fill="#006FFF"/>
<path fill-rule="evenodd" clip-rule="evenodd" d="M55.0216 72.1536C55.4278 71.4316 56.3424 71.1755 57.0644 71.5816C57.2543 71.6884 57.4424 71.7982 57.6188 71.9011L57.6248 71.9046C57.7237 71.9623 57.8144 72.0303 57.8959 72.1069C58.3724 72.5477 58.5232 73.2658 58.2193 73.8762C57.8501 74.6178 56.9496 74.9197 56.208 74.5505L56.8765 73.2077C56.208 74.5505 56.2083 74.5507 56.208 74.5505L56.2059 74.5495L56.2038 74.5484L56.1994 74.5462L56.1902 74.5415C56.1839 74.5383 56.1772 74.5348 56.1701 74.531C56.1561 74.5235 56.1397 74.5145 56.1217 74.504C56.1016 74.4924 56.0743 74.4759 56.0422 74.4545C55.8869 74.364 55.7396 74.2785 55.5936 74.1964C54.8716 73.7902 54.6155 72.8756 55.0216 72.1536ZM58.2941 72.732C58.338 72.8649 58.369 73.0218 58.369 73.2002C58.369 73.0388 58.343 72.881 58.2941 72.732Z" fill="#006FFF"/>
<path d="M25.099 62.9627C25.099 63.7912 24.4274 64.4627 23.599 64.4627C22.7706 64.4627 22.099 63.7912 22.099 62.9627C22.099 62.1343 22.7706 61.4627 23.599 61.4627C24.4274 61.4627 25.099 62.1343 25.099 62.9627Z" fill="#006FFF"/>
<path fill-rule="evenodd" clip-rule="evenodd" d="M55.0209 72.1419C55.4335 71.4236 56.3503 71.1757 57.0687 71.5882L57.6237 71.907C58.3421 72.3195 58.59 73.2364 58.1774 73.9548C57.7648 74.6731 56.848 74.921 56.1296 74.5085L55.5746 74.1897C54.8563 73.7771 54.6083 72.8603 55.0209 72.1419Z" fill="#006FFF"/>
<path fill-rule="evenodd" clip-rule="evenodd" d="M71.1041 62.2098C71.5199 61.4933 72.4378 61.2496 73.1543 61.6654C75.8515 63.2306 76.7781 66.6813 75.2148 69.3838C73.6524 72.0886 70.1896 73.0149 67.4825 71.4549L64.614 69.8013C63.8963 69.3876 63.6494 68.4701 64.0631 67.7524C64.4769 67.0346 65.3935 66.7879 66.1112 67.2016L68.9804 68.8556C68.9803 68.8555 68.9804 68.8556 68.9804 68.8556C70.2554 69.5902 71.8846 69.152 72.6174 67.8827L72.618 67.8817C73.3497 66.6167 72.9189 64.9973 71.6485 64.2601C70.932 63.8443 70.6883 62.9263 71.1041 62.2098Z" fill="#006FFF"/>
<path fill-rule="evenodd" clip-rule="evenodd" d="M74.7417 54.7019C75.1575 53.9854 76.0754 53.7416 76.7919 54.1575C79.489 55.7227 80.4157 59.1733 78.8524 61.8759C77.29 64.5807 73.8272 65.507 71.1201 63.947L68.2511 62.2931C67.5334 61.8794 67.287 60.9621 67.7007 60.2444C68.1145 59.5267 69.0317 59.2803 69.7494 59.694L72.618 61.3477C72.6179 61.3476 72.618 61.3477 72.618 61.3477C73.893 62.0823 75.5221 61.6441 76.255 60.3748L76.2556 60.3737C76.9873 59.1088 76.5565 57.4894 75.2861 56.7522C74.5696 56.3363 74.3258 55.4184 74.7417 54.7019Z" fill="#006FFF"/>
<path fill-rule="evenodd" clip-rule="evenodd" d="M64.0637 67.7515C64.4779 67.034 65.3953 66.7882 66.1127 67.2025C68.8257 68.7688 69.7306 72.2252 68.161 74.9378L68.1585 74.9422L68.1074 75.0297C66.5787 77.6718 63.1923 78.5803 60.5446 77.0534L56.1266 74.5031C55.4091 74.0889 55.1632 73.1715 55.5774 72.4541C55.9915 71.7366 56.9089 71.4907 57.6264 71.9049L62.0433 74.4546C63.2572 75.1542 64.812 74.7366 65.5115 73.526L65.5145 73.5208L65.5644 73.4352C65.5648 73.4345 65.5652 73.4339 65.5656 73.4332C66.3119 72.141 65.8741 70.5288 64.6127 69.8005C63.8953 69.3863 63.6495 68.4689 64.0637 67.7515Z" fill="#006FFF"/>
<path fill-rule="evenodd" clip-rule="evenodd" d="M10.5733 50.3523C10.987 49.6346 11.9043 49.3882 12.622 49.802L19.8295 53.957C20.1703 54.1534 20.4203 54.476 20.5256 54.855C20.5536 54.9559 20.5733 55.0126 20.6009 55.0922C20.6257 55.1635 20.6568 55.2533 20.7061 55.4098C20.9548 56.2 20.5159 57.0422 19.7257 57.291C18.9355 57.5398 18.0933 57.1009 17.8445 56.3107C17.8415 56.3009 17.8366 56.2861 17.8303 56.2673L11.1237 52.401C10.4059 51.9873 10.1595 51.07 10.5733 50.3523Z" fill="#006FFF"/>
<path d="M13.3729 51.0978C13.3729 51.9262 12.7014 52.5978 11.8729 52.5978C11.0445 52.5978 10.3729 51.9262 10.3729 51.0978C10.3729 50.2693 11.0445 49.5978 11.8729 49.5978C12.7014 49.5978 13.3729 50.2693 13.3729 51.0978Z" fill="#006FFF"/>
<path fill-rule="evenodd" clip-rule="evenodd" d="M24.7218 25.8723C25.1356 25.1546 26.0528 24.9082 26.7705 25.322L33.3538 29.1171L35.1584 28.4117C39.5085 26.7134 44.2993 26.7893 48.5611 28.5078C49.3294 28.8177 49.7011 29.6917 49.3913 30.46C49.0814 31.2283 48.2074 31.6 47.4391 31.2901C43.8711 29.8513 39.8722 29.7921 36.25 31.2061C36.2498 31.2061 36.2502 31.206 36.25 31.2061L33.775 32.1735C33.3508 32.3394 32.8743 32.3035 32.4797 32.076L25.2722 27.921C24.5545 27.5073 24.3081 26.5901 24.7218 25.8723Z" fill="#006FFF"/>
<path fill-rule="evenodd" clip-rule="evenodd" d="M0.166343 48.8143C0.545178 48.0776 1.44953 47.7874 2.18626 48.1663L9.62389 51.9908L10.5742 50.347C10.9888 49.6298 11.9064 49.3845 12.6236 49.7991C13.3408 50.2138 13.586 51.1313 13.1714 51.8485L11.5064 54.7285C11.1061 55.4208 10.2331 55.6774 9.52187 55.3117L0.814372 50.8342C0.0776396 50.4554 -0.212493 49.551 0.166343 48.8143Z" fill="#006FFF"/>
<path fill-rule="evenodd" clip-rule="evenodd" d="M11.2258 14.251C11.6396 13.5333 12.5568 13.287 13.2745 13.7008L28.4358 22.442C28.7807 22.6409 29.0324 22.9687 29.1354 23.3532C29.2385 23.7378 29.1844 24.1475 28.9852 24.4922L13.1714 51.8485C12.7568 52.5657 11.8393 52.811 11.1221 52.3964C10.4049 51.9818 10.1596 51.0642 10.5742 50.347L25.6364 24.2909L11.7761 16.2997C11.0584 15.886 10.812 14.9687 11.2258 14.251Z" fill="#006FFF"/>
<path fill-rule="evenodd" clip-rule="evenodd" d="M24.8963 62.2136C25.3121 62.9301 25.0684 63.848 24.3519 64.2638C23.0815 65.0011 22.6507 66.6205 23.3824 67.8854L23.383 67.8865C24.1159 69.1558 25.745 69.5941 27.02 68.8593L29.2882 67.5509C30.0058 67.137 30.9231 67.3831 31.337 68.1007C31.751 68.8183 31.5048 69.7356 30.7872 70.1496L28.5179 71.4586C25.8108 73.0187 22.348 72.0924 20.7856 69.3876C20.7854 69.3872 20.7851 69.3868 20.7849 69.3865C19.2225 66.6841 20.1493 63.2342 22.8461 61.6691C23.5626 61.2533 24.4805 61.4971 24.8963 62.2136Z" fill="#006FFF"/>
<path fill-rule="evenodd" clip-rule="evenodd" d="M20.1486 55.4358C20.5523 56.1369 20.3156 57.0351 19.62 57.442C18.3867 58.1634 16.8717 59.839 17.5822 61.7169L17.5828 61.718C18.2943 62.96 19.8759 63.3888 21.1138 62.6699L23.3158 61.3896C24.0125 60.9846 24.903 61.2254 25.3049 61.9276C25.7068 62.6297 25.4678 63.5273 24.7712 63.9324L22.568 65.2133C19.9398 66.7397 16.5779 65.8334 15.0611 63.1867L15.0605 63.1857C12.867 59.4721 15.5399 56.4345 18.1581 54.9031C18.8537 54.4962 19.7449 54.7347 20.1486 55.4358Z" fill="#006FFF"/>
<path fill-rule="evenodd" clip-rule="evenodd" d="M44.5532 79.662C44.9733 80.376 44.7351 81.2954 44.0211 81.7155L43.9574 81.753C43.2434 82.1732 42.324 81.935 41.9039 81.221C41.4837 80.507 41.7219 79.5876 42.4359 79.1675L42.4997 79.13C43.2136 78.7098 44.133 78.948 44.5532 79.662Z" fill="#006FFF"/>
<path fill-rule="evenodd" clip-rule="evenodd" d="M32.7948 67.3033C33.1915 68.0305 32.9235 68.9417 32.1962 69.3384L32.0724 69.4059C31.3451 69.8026 30.434 69.5345 30.0373 68.8073C29.6406 68.08 29.9086 67.1688 30.6359 66.7722L30.7597 66.7047C31.4869 66.308 32.3981 66.576 32.7948 67.3033Z" fill="#006FFF"/>
<path fill-rule="evenodd" clip-rule="evenodd" d="M24.2839 64.2977C23.7185 64.5879 23.0077 64.4952 22.5356 64.0206C21.9513 63.4333 21.9538 62.4836 22.5411 61.8993L23.599 62.9627C22.5411 61.8993 22.5408 61.8996 22.5411 61.8993L22.5432 61.8973L22.5453 61.8952L22.5496 61.8909L22.5587 61.8821C22.5649 61.8761 22.5715 61.8699 22.5785 61.8634C22.5924 61.8504 22.6084 61.8361 22.6264 61.8208C22.6607 61.7915 22.7098 61.7522 22.7723 61.7108C22.8488 61.6601 23.156 61.459 23.6065 61.459C24.4349 61.459 25.1065 62.1306 25.1065 62.959C25.1065 63.5437 24.772 64.0503 24.2839 64.2977Z" fill="#006FFF"/>
<path fill-rule="evenodd" clip-rule="evenodd" d="M54.8218 72.889C54.8218 72.0606 55.4934 71.389 56.3218 71.389H56.3255C57.154 71.389 57.8255 72.0606 57.8255 72.889C57.8255 73.7174 57.154 74.389 56.3255 74.389H56.3218C55.4934 74.389 54.8218 73.7174 54.8218 72.889Z" fill="#006FFF"/>
<path fill-rule="evenodd" clip-rule="evenodd" d="M46.146 78.7582C46.5599 79.4758 46.3137 80.3931 45.5961 80.8071L44.0099 81.7221C43.2923 82.136 42.375 81.8898 41.9611 81.1722C41.5471 80.4546 41.7933 79.5373 42.5109 79.1234L44.0971 78.2084C44.8147 77.7945 45.732 78.0406 46.146 78.7582Z" fill="#006FFF"/>
<path d="M66.1465 68.089C66.1465 68.9174 65.4749 69.589 64.6465 69.589C63.8181 69.589 63.1465 68.9174 63.1465 68.089C63.1465 67.2606 63.8181 66.589 64.6465 66.589C65.4749 66.589 66.1465 67.2606 66.1465 68.089Z" fill="#006FFF"/>
<path fill-rule="evenodd" clip-rule="evenodd" d="M30.7196 66.7273C30.6835 66.7481 30.6458 66.7697 30.6063 66.7924C29.8882 67.2054 29.6408 68.1224 30.0538 68.8405C30.4668 69.5587 31.3838 69.806 32.1019 69.393C32.358 69.2458 32.5431 69.1393 32.6645 69.0694L32.8342 68.9716L32.8445 68.9657L32.8503 68.9623L32.8572 68.9582L32.8672 68.9523L32.8802 68.9444C32.8871 68.9401 32.9089 68.9263 32.9238 68.9165C32.9827 68.8755 33.4415 67.0047 31.7498 66.2065C31.5967 66.2514 31.4272 66.3232 31.4053 66.3343C31.3965 66.3389 31.383 66.346 31.3783 66.3486L31.3683 66.3541L31.3559 66.361L31.349 66.3649L31.3391 66.3706L31.3382 66.3711C31.3393 66.3705 31.34 66.3701 31.34 66.3701C31.34 66.3701 31.339 66.3707 31.3369 66.3719L31.1866 66.4583C31.081 66.519 30.9261 66.6083 30.729 66.7218C30.7259 66.7236 30.7227 66.7255 30.7196 66.7273Z" fill="#006FFF"/>
<path fill-rule="evenodd" clip-rule="evenodd" d="M31.9282 67.7568C32.3436 68.4735 32.0993 69.3913 31.3826 69.8068L30.7938 70.148C30.0771 70.5634 29.1593 70.3192 28.7439 69.6024C28.3284 68.8857 28.5727 67.9679 29.2894 67.5525L29.8782 67.2112C30.5949 66.7958 31.5127 67.0401 31.9282 67.7568Z" fill="#006FFF"/>
<path fill-rule="evenodd" clip-rule="evenodd" d="M25.0199 62.1381C25.436 62.8545 25.1926 63.7725 24.4762 64.1886L24.3599 64.2561C23.6436 64.6722 22.7256 64.4287 22.3095 63.7124C21.8934 62.996 22.1368 62.078 22.8532 61.6619L22.9694 61.5944C23.6858 61.1783 24.6038 61.4217 25.0199 62.1381Z" fill="#006FFF"/>
<path fill-rule="evenodd" clip-rule="evenodd" d="M25.038 62.1739C25.4364 62.9002 25.1706 63.812 24.4442 64.2104L24.328 64.2742C23.6017 64.6726 22.6899 64.4067 22.2915 63.6804C21.893 62.9541 22.1589 62.0423 22.8852 61.6439L23.0015 61.5801C23.7278 61.1817 24.6396 61.4475 25.038 62.1739Z" fill="#006FFF"/>
<path fill-rule="evenodd" clip-rule="evenodd" d="M49.2996 76.9396C49.7135 77.6573 49.4672 78.5745 48.7496 78.9884L45.5961 80.8071C44.8785 81.2209 43.9609 80.9747 43.547 80.2571C43.1332 79.5395 43.3795 78.6223 44.0971 78.2084L47.2508 76.3896C47.9685 75.9757 48.8857 76.222 49.2996 76.9396Z" fill="#006FFF"/>
<path fill-rule="evenodd" clip-rule="evenodd" d="M25.7293 61.7308C26.144 62.4466 25.9009 63.363 25.1859 63.7792L24.4772 64.1917C23.7612 64.6084 22.8429 64.3657 22.4262 63.6497C22.2882 63.4125 22.2225 63.153 22.2224 62.8969C22.221 62.3769 22.4905 61.8705 22.9733 61.5921L23.682 61.1833C24.3987 60.7701 25.3146 61.015 25.7293 61.7308Z" fill="#006FFF"/>
<path fill-rule="evenodd" clip-rule="evenodd" d="M32.6513 67.3361C33.0671 68.0526 32.8233 68.9706 32.1068 69.3864L31.3826 69.8068C30.666 70.2226 29.7486 69.9784 29.3328 69.2619C28.917 68.5454 29.1607 67.6274 29.8773 67.2116L30.601 66.7916C31.3175 66.3758 32.2355 66.6196 32.6513 67.3361Z" fill="#006FFF"/>
<path fill-rule="evenodd" clip-rule="evenodd" d="M24.9495 62.291C25.3184 63.0327 25.0162 63.9331 24.2745 64.302L24.267 64.3058C23.5253 64.6747 22.6249 64.3725 22.2559 63.6308C21.887 62.8891 22.1892 61.9887 22.9309 61.6197L22.9384 61.616C23.6801 61.247 24.5805 61.5492 24.9495 62.291Z" fill="#006FFF"/>
<path fill-rule="evenodd" clip-rule="evenodd" d="M30.5967 66.7942C31.3118 66.376 32.2305 66.6166 32.6488 67.3317C33.067 68.0468 32.8264 68.9655 32.1113 69.3838C31.9205 69.4954 31.703 69.6223 31.4278 69.7798C30.8487 70.144 30.0747 70.0742 29.5701 69.5702C28.9841 68.9847 28.9836 68.035 29.569 67.4489L30.6302 68.509C29.569 67.4489 29.5689 67.449 29.569 67.4489L29.5711 67.4468L29.5733 67.4446L29.5779 67.4401L29.5881 67.4301C29.5953 67.4232 29.6038 67.4151 29.6135 67.4061C29.6312 67.3898 29.6599 67.364 29.6968 67.3344C29.7279 67.3096 29.7972 67.2556 29.8934 67.2006C29.8946 67.1999 29.896 67.1991 29.8977 67.1981C29.9065 67.193 29.9215 67.1844 29.9421 67.1735C30.2031 67.0241 30.4101 66.9033 30.5967 66.7942Z" fill="#006FFF"/>
<path fill-rule="evenodd" clip-rule="evenodd" d="M71.2787 25.8723C71.6924 26.5901 71.446 27.5073 70.7283 27.921L63.5208 32.076C63.1262 32.3035 62.6497 32.3394 62.2255 32.1735L59.7511 31.2063C56.1289 29.7923 52.1294 29.8513 48.5614 31.2901C47.7931 31.6 46.9191 31.2283 46.6093 30.46C46.2994 29.6917 46.6711 28.8177 47.4394 28.5078C51.7012 26.7893 56.492 26.7134 60.8422 28.4117L62.6467 29.1171L69.23 25.322C69.9477 24.9082 70.8649 25.1546 71.2787 25.8723Z" fill="#006FFF"/>
<path fill-rule="evenodd" clip-rule="evenodd" d="M31.927 67.755C32.3434 68.4712 32.1004 69.3893 31.3842 69.8057C30.1271 70.5367 29.6917 72.1436 30.4386 73.4369L30.4897 73.5244L30.4928 73.5298C31.1924 74.7405 32.747 75.1584 33.9609 74.4583L36.3378 73.0862C37.0553 72.672 37.9727 72.9179 38.3868 73.6353C38.801 74.3528 38.5552 75.2701 37.8377 75.6843L35.4596 77.0571C32.812 78.584 29.4256 77.6756 27.8969 75.0336L27.8432 74.9415C26.2743 72.2301 27.1741 68.7834 29.8763 67.2123C30.5925 66.7959 31.5106 67.0389 31.927 67.755Z" fill="#006FFF"/>
<path d="M73.9015 62.9627C73.9015 63.7912 73.2299 64.4627 72.4015 64.4627C71.573 64.4627 70.9017 63.7912 70.9017 62.9627C70.9017 62.1343 71.573 61.4627 72.4015 61.4627C73.2299 61.4627 73.9015 62.1343 73.9015 62.9627Z" fill="#006FFF"/>
<path fill-rule="evenodd" clip-rule="evenodd" d="M40.4208 72.4575C40.8372 73.1737 40.5942 74.0918 39.8781 74.5082C38.6191 75.2403 38.1824 76.8486 38.9255 78.1405L38.976 78.2269L38.9797 78.2334C39.6785 79.445 41.2316 79.8619 42.4472 79.1609C43.1649 78.747 44.0821 78.9933 44.496 79.7109C44.9099 80.4285 44.6636 81.3458 43.946 81.7597C41.3002 83.2855 37.9127 82.3838 36.3829 79.7356L36.3322 79.6486L36.3285 79.6422C34.7639 76.9296 35.67 73.4847 38.3701 71.9148C39.0863 71.4984 40.0044 71.7414 40.4208 72.4575Z" fill="#006FFF"/>
<path fill-rule="evenodd" clip-rule="evenodd" d="M40.9731 72.1371C41.3883 72.854 41.1438 73.7717 40.427 74.187L39.8832 74.502C39.1664 74.9172 38.2487 74.6727 37.8334 73.9559C37.4182 73.239 37.6626 72.3213 38.3795 71.9061L38.9232 71.5911C39.6401 71.1758 40.5578 71.4203 40.9731 72.1371Z" fill="#006FFF"/>
<path fill-rule="evenodd" clip-rule="evenodd" d="M42.1491 73.1945C41.9355 73.3177 41.4197 73.6149 40.4241 74.1887C39.7069 74.602 38.7903 74.3561 38.3763 73.6393C37.9622 72.9224 38.2068 72.0058 38.9232 71.5911L39.2114 71.4243L40.7685 70.5275L40.7774 70.5224L40.7816 70.52L40.7866 70.5172L40.804 70.5075C40.8322 70.4925 42.8169 71.0669 42.3718 73.0606C42.3378 73.0833 42.2966 73.1091 42.29 73.113L42.2813 73.1181L42.2779 73.1202L42.256 73.1328L42.1491 73.1945Z" fill="#006FFF"/>
<path fill-rule="evenodd" clip-rule="evenodd" d="M40.9688 72.1297C41.3882 72.8442 41.149 73.7633 40.4345 74.1826C40.296 74.2639 40.16 74.3418 40.0162 74.4242C39.9723 74.4494 39.9277 74.4749 39.882 74.5011C39.6548 74.6316 39.3973 74.7003 39.1352 74.7003H39.1318C38.3034 74.7003 37.6315 74.0287 37.6315 73.2003C37.6315 72.6147 37.967 72.1075 38.4563 71.8604C38.4833 71.845 38.5093 71.8301 38.5346 71.8156C38.6747 71.7353 38.7923 71.668 38.9159 71.5954C39.6304 71.176 40.5495 71.4153 40.9688 72.1297Z" fill="#006FFF"/>
<path fill-rule="evenodd" clip-rule="evenodd" d="M51.9211 41.5542C52.3351 40.8367 53.2525 40.5907 53.97 41.0048L56.79 42.6323C57.5075 43.0464 57.7535 43.9638 57.3394 44.6813C56.9253 45.3988 56.0079 45.6448 55.2904 45.2307L52.4704 43.6032C51.7529 43.1891 51.507 42.2717 51.9211 41.5542Z" fill="#006FFF"/>
<path fill-rule="evenodd" clip-rule="evenodd" d="M51.9211 41.5542C52.3351 40.8367 53.2525 40.5907 53.97 41.0048C54.3052 41.1982 54.6476 41.3959 54.9991 41.5989C55.5701 41.9287 56.1647 42.272 56.7891 42.6318C57.5069 43.0454 57.7535 43.9626 57.3399 44.6804C56.9263 45.3982 56.0091 45.6448 55.2913 45.2312C54.6662 44.871 54.0687 44.526 53.4964 44.1955C53.1452 43.9927 52.8033 43.7952 52.4704 43.6032C51.7529 43.1891 51.507 42.2717 51.9211 41.5542Z" fill="#006FFF"/>
<path fill-rule="evenodd" clip-rule="evenodd" d="M54.7412 43.178C55.1553 42.4604 56.0727 42.2145 56.7902 42.6286C60.279 44.642 64.419 47.0288 68.3461 49.2928C71.7319 51.2449 74.9596 53.1057 77.4751 54.5573C78.1927 54.9713 78.4387 55.8887 78.0246 56.6062C77.6106 57.3237 76.6932 57.5697 75.9757 57.1557C73.4671 55.7081 70.2383 53.8466 66.8503 51.8934C62.9194 49.6271 58.7741 47.2373 55.2906 45.2269C54.5731 44.8128 54.3272 43.8955 54.7412 43.178Z" fill="#006FFF"/>
<path fill-rule="evenodd" clip-rule="evenodd" d="M51.7275 42.1589C51.8076 41.3344 52.541 40.7309 53.3655 40.811C56.5264 41.1182 60.4751 41.3665 64.9692 41.3665C65.7976 41.3665 66.4692 42.0381 66.4692 42.8665C66.4692 43.6949 65.7976 44.3665 64.9692 44.3665C60.3658 44.3665 56.3195 44.1123 53.0753 43.797C52.2508 43.7168 51.6473 42.9834 51.7275 42.1589Z" fill="#006FFF"/>
<path fill-rule="evenodd" clip-rule="evenodd" d="M49.3903 29.3394C49.7015 30.1071 49.3313 30.9818 48.5635 31.2929C47.8898 31.566 47.2605 31.8553 46.6656 32.1991L43.6224 33.9514L43.6154 33.9554L38.3205 36.9666C38.3205 36.9666 38.3206 36.9666 38.3205 36.9666C36.8482 37.804 35.7792 39.2065 35.3658 40.8447L33.3291 48.8977C33.2408 49.246 33.5042 49.594 33.8777 49.594C35.7561 49.594 37.4552 48.4812 38.2067 46.7626C38.2066 46.7629 38.2068 46.7624 38.2067 46.7626L39.7929 43.1289C39.9083 42.8647 40.0972 42.6394 40.3373 42.4798L44.196 39.9148C44.53 39.6928 44.939 39.6138 45.3317 39.6954L45.3368 39.6965L45.3596 39.7011C45.3806 39.7053 45.4134 39.7119 45.4577 39.7206C45.5463 39.738 45.6808 39.7639 45.8593 39.7967C46.2162 39.8623 46.7486 39.9558 47.4401 40.0648C48.8233 40.2828 50.8419 40.5629 53.3647 40.8072C54.1893 40.8871 54.793 41.6203 54.7132 42.4448C54.6333 43.2694 53.9001 43.8731 53.0756 43.7933C50.4871 43.5426 48.4089 43.2545 46.973 43.0282C46.2734 42.9179 45.726 42.8223 45.3462 42.7526L42.3657 44.7338L40.9559 47.9635C39.7272 50.7745 36.949 52.594 33.8777 52.594C31.5586 52.594 29.8495 50.4145 30.4212 48.1603L31.8751 48.529L30.4209 48.1612L30.4212 48.1603L32.457 40.1108L33.9114 40.4777L32.4572 40.11C33.0715 37.6761 34.6574 35.5988 36.8373 34.3589L42.1289 31.3496L42.1254 31.3516L42.8739 32.6515L42.1324 31.3476L45.1647 29.6015C45.1651 29.6012 45.1655 29.601 45.1659 29.6008C45.9206 29.1648 46.6859 28.8169 47.4368 28.5126C48.2045 28.2014 49.0792 28.5716 49.3903 29.3394Z" fill="#006FFF"/>
<path fill-rule="evenodd" clip-rule="evenodd" d="M85.4273 50.3486C85.841 51.0663 85.5946 51.9835 84.8769 52.3973L78.1702 56.2635C78.164 56.2824 78.1591 56.2972 78.156 56.3069C77.9073 57.0971 77.065 57.536 76.2748 57.2873C75.4846 57.0385 75.0457 56.1963 75.2945 55.4061C75.3438 55.2495 75.3749 55.1598 75.3997 55.0884C75.4273 55.0089 75.447 54.9521 75.475 54.8513C75.5803 54.4722 75.8303 54.1497 76.1711 53.9532L83.3786 49.7982C84.0963 49.3845 85.0135 49.6309 85.4273 50.3486Z" fill="#006FFF"/>
<path d="M85.6278 51.0978C85.6278 51.9262 84.9562 52.5978 84.1278 52.5978C83.2994 52.5978 82.6278 51.9262 82.6278 51.0978C82.6278 50.2693 83.2994 49.5978 84.1278 49.5978C84.9562 49.5978 85.6278 50.2693 85.6278 51.0978Z" fill="#006FFF"/>
<path fill-rule="evenodd" clip-rule="evenodd" d="M40.4306 72.4544C40.8446 73.172 40.5985 74.0893 39.881 74.5033L37.8335 75.6845C37.1159 76.0985 36.1986 75.8524 35.7846 75.1349C35.3706 74.4173 35.6167 73.5 36.3343 73.086L38.3818 71.9047C39.0993 71.4907 40.0167 71.7369 40.4306 72.4544Z" fill="#006FFF"/>
<path fill-rule="evenodd" clip-rule="evenodd" d="M38.0673 72.1433C38.6531 71.5575 39.6029 71.5575 40.1886 72.1433C40.7744 72.7291 40.7744 73.6789 40.1886 74.2646L40.1824 74.2709C39.5973 74.8573 38.6475 74.8585 38.061 74.2734C37.4746 73.6883 37.4735 72.7385 38.0586 72.152L38.0673 72.1433Z" fill="#006FFF"/>
<path fill-rule="evenodd" clip-rule="evenodd" d="M95.8342 48.8143C96.213 49.551 95.9229 50.4554 95.1861 50.8342L86.4786 55.3117C85.7674 55.6774 84.8944 55.4208 84.4941 54.7285L82.8291 51.8485C82.4145 51.1313 82.6597 50.2138 83.3769 49.7991C84.0941 49.3845 85.0117 49.6298 85.4263 50.347L86.3766 51.9908L93.8142 48.1663C94.551 47.7874 95.4553 48.0776 95.8342 48.8143Z" fill="#006FFF"/>
<path fill-rule="evenodd" clip-rule="evenodd" d="M84.7748 14.251C85.1886 14.9687 84.9423 15.886 84.2246 16.2997L70.3643 24.2909L85.4263 50.347C85.8409 51.0642 85.5958 51.9818 84.8785 52.3964C84.1613 52.811 83.2437 52.5657 82.8291 51.8485L67.0155 24.4922C66.8162 24.1475 66.7622 23.7378 66.8652 23.3532C66.9683 22.9687 67.22 22.6409 67.5649 22.442L82.7261 13.7008C83.4438 13.287 84.3611 13.5333 84.7748 14.251Z" fill="#006FFF"/>
<path fill-rule="evenodd" clip-rule="evenodd" d="M23.599 61.4627C24.4274 61.4627 25.099 62.1343 25.099 62.9627V62.9665C25.099 63.7949 24.4274 64.4665 23.599 64.4665C22.7706 64.4665 22.099 63.7949 22.099 62.9665V62.9627C22.099 62.1343 22.7706 61.4627 23.599 61.4627Z" fill="#006FFF"/>
<path fill-rule="evenodd" clip-rule="evenodd" d="M23.7189 61.3915C24.5473 61.3915 25.2189 62.0631 25.2189 62.8915C25.2189 63.3843 24.9834 63.7133 24.8894 63.8309C24.7786 63.9694 24.6681 64.0569 24.6159 64.0961C24.555 64.1418 24.5022 64.1742 24.4693 64.1935C24.4608 64.1984 24.4528 64.203 24.4451 64.2073L24.3384 64.2678C23.6176 64.6762 22.7022 64.423 22.2938 63.7022C21.8854 62.9814 22.1387 62.0661 22.8594 61.6577L22.8982 61.6357C23.134 61.4813 23.416 61.3915 23.7189 61.3915ZM22.2189 62.8915C22.2189 62.8373 22.2218 62.7851 22.227 62.735C22.2216 62.7864 22.2189 62.8386 22.2189 62.8915Z" fill="#006FFF"/>
<path fill-rule="evenodd" clip-rule="evenodd" d="M18.8037 54.3994C21.5111 52.8391 24.9745 53.7658 26.5367 56.4715L26.5371 56.4723C28.0936 59.1719 27.1754 62.6221 24.4762 64.1886C23.7597 64.6044 22.8411 64.3609 22.4253 63.6444C22.0094 62.9279 22.2529 62.0102 22.9694 61.5944C24.2375 60.8585 24.669 59.2392 23.9386 57.9715M23.9386 57.9715C23.2057 56.7023 21.5765 56.2639 20.3016 56.9986C19.5838 57.4123 18.6666 57.1657 18.253 56.4479C17.8393 55.7302 18.0859 54.813 18.8037 54.3994" fill="#006FFF"/>
<path fill-rule="evenodd" clip-rule="evenodd" d="M24.8982 62.2169C25.3122 62.9345 25.0661 63.8518 24.3485 64.2658L22.301 65.447C21.5834 65.861 20.6661 65.6149 20.2521 64.8973C19.8381 64.1798 20.0842 63.2625 20.8018 62.8485L22.8493 61.6672C23.5669 61.2532 24.4842 61.4993 24.8982 62.2169Z" fill="#006FFF"/>
<path d="M27.3754 61.654C27.3754 62.4824 26.7038 63.154 25.8754 63.154C25.0469 63.154 24.3754 62.4824 24.3754 61.654C24.3754 60.8256 25.0469 60.154 25.8754 60.154C26.7038 60.154 27.3754 60.8256 27.3754 61.654Z" fill="#006FFF"/>
<path fill-rule="evenodd" clip-rule="evenodd" d="M30.2621 63.9281C29.5249 62.6556 27.8978 62.2197 26.6242 62.9537C25.9064 63.3673 24.9892 63.1207 24.5756 62.403C24.162 61.6852 24.4085 60.768 25.1263 60.3544C27.8351 58.7934 31.2929 59.7223 32.8582 62.4247C34.1007 64.5708 33.7526 67.1617 32.2461 68.9219C31.7074 69.5513 30.7605 69.6248 30.1311 69.0861C29.5018 68.5474 29.4282 67.6005 29.9669 66.9711C30.6878 66.1289 30.8344 64.9169 30.2621 63.9281Z" fill="#006FFF"/>
<path fill-rule="evenodd" clip-rule="evenodd" d="M32.0737 66.8033C32.7051 67.3396 32.7821 68.2862 32.2458 68.9176C31.8577 69.3745 31.3813 69.8047 30.7905 70.1476C30.074 70.5634 29.1561 70.3197 28.7403 69.6032C28.3244 68.8867 28.5682 67.9687 29.2847 67.5529C29.5339 67.4083 29.755 67.216 29.9594 66.9754C30.4957 66.344 31.4423 66.267 32.0737 66.8033Z" fill="#006FFF"/>
<path fill-rule="evenodd" clip-rule="evenodd" d="M37.4046 72.9199C38.2139 73.0969 38.7265 73.8965 38.5494 74.7058L37.0841 74.3852C38.5494 74.7058 38.4762 74.9437 38.3648 75.1662C38.349 75.1915 38.3116 75.2473 38.2897 75.2777C38.2616 75.3157 38.2378 75.3439 38.23 75.3532C38.2109 75.3757 38.1954 75.3928 38.1911 75.3974C38.18 75.4095 38.171 75.419 38.1688 75.4213C38.1626 75.4278 38.1576 75.4329 38.1566 75.4339L38.1503 75.4403L38.1471 75.4435L38.1451 75.4456L38.141 75.4497C37.5552 76.0354 36.6054 76.0354 36.0197 75.4497C35.4484 74.8783 35.4342 73.9609 35.9773 73.3724C36.3265 72.9915 36.8634 72.8015 37.4046 72.9199Z" fill="#006FFF"/>
<path fill-rule="evenodd" clip-rule="evenodd" d="M39.4048 71.0164C40.1677 71.3393 40.5244 72.2195 40.2015 72.9824C39.7441 74.0631 38.9543 75.0337 37.8371 75.6824C37.1207 76.0984 36.2027 75.8549 35.7867 75.1385C35.3707 74.422 35.6142 73.504 36.3307 73.0881C36.8409 72.7918 37.2137 72.3449 37.4388 71.8131C37.7617 71.0502 38.6419 70.6935 39.4048 71.0164Z" fill="#006FFF"/>
<path fill-rule="evenodd" clip-rule="evenodd" d="M37.3042 69.4622C36.5667 68.1904 34.9401 67.7549 33.6668 68.4887C32.949 68.9023 32.0318 68.6557 31.6182 67.938C31.2046 67.2202 31.4511 66.303 32.1689 65.8894C34.8777 64.3284 38.3355 65.2573 39.9008 67.9597L39.9021 67.9619C40.8264 69.564 40.8605 71.4165 40.203 72.9794C39.8817 73.743 39.0023 74.1016 38.2387 73.7804C37.4751 73.4591 37.1165 72.5797 37.4377 71.8161C37.755 71.0619 37.7293 70.1999 37.3042 69.4622Z" fill="#006FFF"/>
<path d="M34.418 67.189C34.418 68.0174 33.7464 68.689 32.918 68.689C32.0895 68.689 31.418 68.0174 31.418 67.189C31.418 66.3606 32.0895 65.689 32.918 65.689C33.7464 65.689 34.418 66.3606 34.418 67.189Z" fill="#006FFF"/>
<path fill-rule="evenodd" clip-rule="evenodd" d="M40.9783 72.1391C41.3924 72.8566 41.1464 73.774 40.4289 74.1881L39.8702 74.5106C39.1527 74.9247 38.2353 74.6788 37.8212 73.9613C37.4071 73.2438 37.653 72.3265 38.3705 71.9123L38.9293 71.5898C39.6468 71.1757 40.5641 71.4217 40.9783 72.1391Z" fill="#006FFF"/>
<path fill-rule="evenodd" clip-rule="evenodd" d="M40.4193 72.4617C40.8335 73.1791 40.5877 74.0965 39.8702 74.5106L37.8301 75.6881C37.1126 76.1023 36.1952 75.8564 35.7811 75.1389C35.367 74.4214 35.6129 73.504 36.3303 73.0899L38.3705 71.9123C39.088 71.4982 40.0052 71.7442 40.4193 72.4617Z" fill="#006FFF"/>
<path fill-rule="evenodd" clip-rule="evenodd" d="M44.5532 79.662C44.9733 80.376 44.7351 81.2954 44.0211 81.7155L43.9574 81.753C43.2434 82.1732 42.324 81.935 41.9039 81.221C41.4837 80.507 41.7219 79.5876 42.4359 79.1675L42.4997 79.13C43.2136 78.7098 44.133 78.948 44.5532 79.662Z" fill="#006FFF"/>
<path fill-rule="evenodd" clip-rule="evenodd" d="M46.146 78.7582C46.5599 79.4758 46.3137 80.3931 45.5961 80.8071L44.0099 81.7221C43.2923 82.136 42.375 81.8898 41.9611 81.1722C41.5471 80.4546 41.7933 79.5373 42.5109 79.1234L44.0971 78.2084C44.8147 77.7945 45.732 78.0406 46.146 78.7582Z" fill="#006FFF"/>
<path fill-rule="evenodd" clip-rule="evenodd" d="M39.9349 71.0081C42.6421 69.4481 46.1051 70.3744 47.6674 73.0795C48.4522 74.4356 48.6108 75.9808 48.2332 77.3789C48.0172 78.1786 47.1938 78.6519 46.394 78.4359C45.5942 78.2199 45.121 77.3965 45.337 76.5967C45.5143 75.94 45.4405 75.2206 45.0707 74.5818L45.0698 74.5803C44.3371 73.3112 42.7086 72.8729 41.4337 73.6069C41.4334 73.6071 41.4331 73.6073 41.4328 73.6074L40.4298 74.1875C39.7127 74.6023 38.7951 74.3571 38.3804 73.64C37.9656 72.9229 38.2107 72.0053 38.9279 71.5906L39.9349 71.0081Z" fill="#006FFF"/>
<path fill-rule="evenodd" clip-rule="evenodd" d="M47.1763 75.5396C47.9761 75.7556 48.4492 76.5791 48.2332 77.3789C47.8562 78.7748 46.9464 80.0275 45.5961 80.8071C44.8785 81.2209 43.9609 80.9747 43.547 80.2571C43.1328 79.5397 43.379 78.6229 44.0964 78.2087C44.7337 77.8408 45.159 77.2557 45.337 76.5967C45.553 75.7969 46.3765 75.3236 47.1763 75.5396Z" fill="#006FFF"/>
<path fill-rule="evenodd" clip-rule="evenodd" d="M44.496 79.7109C44.9099 80.4285 44.6636 81.3458 43.946 81.7597L43.4322 82.0559C42.7145 82.4698 41.7972 82.2234 41.3834 81.5058C40.9696 80.7881 41.2159 79.8709 41.9336 79.457L42.4472 79.1609C43.1649 78.747 44.0821 78.9933 44.496 79.7109Z" fill="#006FFF"/>
<path fill-rule="evenodd" clip-rule="evenodd" d="M34.2165 66.4382C34.6311 67.1554 34.3859 68.073 33.6687 68.4876L32.2287 69.3201C31.5115 69.7347 30.594 69.4895 30.1793 68.7723C29.7647 68.0551 30.01 67.1375 30.7271 66.7229L32.1671 65.8904C32.8843 65.4758 33.8019 65.721 34.2165 66.4382Z" fill="#006FFF"/>
<path fill-rule="evenodd" clip-rule="evenodd" d="M34.9419 66.0249C35.3549 66.7431 35.1076 67.66 34.3894 68.073L33.6657 68.4893C32.9475 68.9023 32.0306 68.655 31.6176 67.9368C31.2046 67.2187 31.4519 66.3017 32.17 65.8887L32.8938 65.4725C33.6119 65.0594 34.5289 65.3068 34.9419 66.0249Z" fill="#006FFF"/>
<path fill-rule="evenodd" clip-rule="evenodd" d="M27.1763 60.9072C27.5887 61.6257 27.3406 62.5425 26.6222 62.9549L25.1784 63.7837C24.4599 64.1961 23.5432 63.948 23.1307 63.2295C22.7183 62.511 22.9664 61.5943 23.6849 61.1818L25.1286 60.3531C25.8471 59.9407 26.7639 60.1888 27.1763 60.9072Z" fill="#006FFF"/>
<path fill-rule="evenodd" clip-rule="evenodd" d="M27.8939 60.487C28.3085 61.2042 28.0632 62.1217 27.346 62.5364L26.626 62.9526C25.9088 63.3672 24.9913 63.1219 24.5766 62.4047C24.162 61.6875 24.4073 60.77 25.1245 60.3554L25.8445 59.9391C26.5617 59.5245 27.4792 59.7698 27.8939 60.487Z" fill="#006FFF"/>
</svg>
