<svg width="32" height="32" viewBox="0 0 32 32" fill="none" xmlns="http://www.w3.org/2000/svg">
<g id="32px">
<g id="Union">
<path d="M15 11C15 10.4477 15.4477 10 16 10C16.5523 10 17 10.4477 17 11V17C17 17.5523 16.5523 18 16 18C15.4477 18 15 17.5523 15 17V11Z" fill="#37008F"/>
<path fill-rule="evenodd" clip-rule="evenodd" d="M13 4C13 4.55228 13.4477 5 14 5H15V7C15 7.55228 15.4477 9 16 9C16.5523 9 17 7.55228 17 7V5H18C18.5523 5 19 4.55228 19 4C19 3.44772 18.5523 3 18 3H16H14C13.4477 3 13 3.44772 13 4Z" fill="#37008F"/>
<path fill-rule="evenodd" clip-rule="evenodd" d="M7 18C7 12.3922 10.3922 9 16 9C21.6078 9 25 12.3922 25 18C25 23.6078 21.6078 27 16 27C10.3922 27 7 23.6078 7 18ZM16 7C9.37258 7 5 11.3726 5 18C5 24.6274 9.37258 29 16 29C22.6274 29 27 24.6274 27 18C27 11.3726 22.6274 7 16 7Z" fill="#37008F"/>
<path fill-rule="evenodd" clip-rule="evenodd" d="M20.7681 5.13409C20.4919 5.61238 20.6558 6.22397 21.1341 6.50012L20.6341 7.36614C20.3579 7.84443 20.5218 8.45603 21.0001 8.73217C21.4784 9.00831 22.09 8.84443 22.3661 8.36614L22.8661 7.50012C23.3444 7.77626 23.956 7.61238 24.2322 7.13409C24.5083 6.6558 24.3444 6.04421 23.8661 5.76807L23.0001 5.26807L22.1341 4.76807C21.6558 4.49192 21.0442 4.6558 20.7681 5.13409Z" fill="#37008F"/>
</g>
</g>
</svg>
