<svg xmlns="http://www.w3.org/2000/svg" width="24" height="24" viewBox="0 0 24 24" fill="none">
  <path fill-rule="evenodd" clip-rule="evenodd" d="M6.75 3.75C5.50736 3.75 4.5 4.75736 4.5 6V18C4.5 19.2426 5.50736 20.25 6.75 20.25H17.25C18.4926 20.25 19.5 19.2426 19.5 18V6C19.5 4.75736 18.4926 3.75 17.25 3.75H15.75H11.25H6.75ZM10.5 5.25H6.75C6.33579 5.25 6 5.58579 6 6V18C6 18.4142 6.33579 18.75 6.75 18.75H17.25C17.6642 18.75 18 18.4142 18 18V6C18 5.58579 17.6642 5.25 17.25 5.25H16.5V9.75C16.5 10.0533 16.3173 10.3268 16.037 10.4429C15.7568 10.559 15.4342 10.4948 15.2197 10.2803L13.5 8.56066L11.7803 10.2803C11.5658 10.4948 11.2432 10.559 10.963 10.4429C10.6827 10.3268 10.5 10.0533 10.5 9.75V5.25ZM15 5.25H12V7.93934L12.9697 6.96967C13.2626 6.67678 13.7374 6.67678 14.0303 6.96967L15 7.93934V5.25ZM7.5 13.5C7.5 13.0858 7.83579 12.75 8.25 12.75H10.5C10.9142 12.75 11.25 13.0858 11.25 13.5C11.25 13.9142 10.9142 14.25 10.5 14.25H8.25C7.83579 14.25 7.5 13.9142 7.5 13.5ZM8.25 15.75C7.83579 15.75 7.5 16.0858 7.5 16.5C7.5 16.9142 7.83579 17.25 8.25 17.25H13.5C13.9142 17.25 14.25 16.9142 14.25 16.5C14.25 16.0858 13.9142 15.75 13.5 15.75H8.25Z" fill="#313131" fill-opacity="0.5"/>
</svg>