<svg width="32" height="32" viewBox="0 0 32 32" fill="none" xmlns="http://www.w3.org/2000/svg">
<g id="32px">
<g id="Union">
<path d="M17.0261 16.981C17.0261 16.4287 16.5784 15.981 16.0261 15.981C15.4738 15.981 15.0261 16.4287 15.0261 16.981V20.5048C15.0261 21.0571 15.4738 21.5048 16.0261 21.5048C16.5784 21.5048 17.0261 21.0571 17.0261 20.5048V16.981Z" fill="#006FFF"/>
<path fill-rule="evenodd" clip-rule="evenodd" d="M14.3879 4C11.6265 4 9.38794 6.23857 9.38794 9V11.0476H8.75C5.98858 11.0476 3.75 13.2862 3.75 16.0476V23.5524C3.75 26.3138 5.98858 28.5524 8.75 28.5524H23.3024C26.0638 28.5524 28.3024 26.3138 28.3024 23.5524V16.0476C28.3024 13.2862 26.0638 11.0476 23.3024 11.0476H22.6641V9C22.6641 6.23858 20.4256 4 17.6641 4H14.3879ZM21.6593 13.0476L21.6641 13.0476L21.669 13.0476H23.3024C24.9592 13.0476 26.3024 14.3908 26.3024 16.0476V23.5524C26.3024 25.2092 24.9592 26.5524 23.3024 26.5524H8.75C7.09315 26.5524 5.75 25.2092 5.75 23.5524V16.0476C5.75 14.3908 7.09315 13.0476 8.75 13.0476H10.3831L10.3879 13.0476L10.3928 13.0476H21.6593ZM20.6641 11.0476V9C20.6641 7.34315 19.321 6 17.6641 6H14.3879C12.7311 6 11.3879 7.34315 11.3879 9V11.0476H20.6641Z" fill="#006FFF"/>
</g>
</g>
</svg>
