<svg width="24" height="24" viewBox="0 0 24 24" fill="none" xmlns="http://www.w3.org/2000/svg">
<path fill-rule="evenodd" clip-rule="evenodd" d="M2.99976 8.25C2.99976 5.3505 5.35026 3 8.24976 3H15.7069C18.6064 3 20.9569 5.35051 20.9569 8.25V15.7071C20.9569 18.6066 18.6064 20.9571 15.7069 20.9571H8.24975C5.35026 20.9571 2.99976 18.6066 2.99976 15.7071V8.25ZM8.24976 4.5C6.17869 4.5 4.49976 6.17893 4.49976 8.25V15.7071C4.49976 17.7782 6.17869 19.4571 8.24975 19.4571H15.7069C17.778 19.4571 19.4569 17.7782 19.4569 15.7071V8.25C19.4569 6.17893 17.778 4.5 15.7069 4.5H8.24976ZM9.13373 14.6908C8.84084 14.3979 8.84084 13.9231 9.13373 13.6302L10.7853 11.9786L9.13373 10.3269C8.84084 10.034 8.84084 9.55917 9.13373 9.26628C9.42663 8.97338 9.9015 8.97338 10.1944 9.26628L11.846 10.9179L13.4976 9.26631C13.7905 8.97341 14.2654 8.97341 14.5583 9.26631C14.8511 9.5592 14.8511 10.0341 14.5583 10.327L12.9067 11.9786L14.5583 13.6301C14.8511 13.923 14.8511 14.3979 14.5583 14.6908C14.2654 14.9837 13.7905 14.9837 13.4976 14.6908L11.846 13.0392L10.1944 14.6908C9.9015 14.9837 9.42663 14.9837 9.13373 14.6908Z" fill="#313131" fill-opacity="0.5"/>
</svg>
