<svg xmlns="http://www.w3.org/2000/svg" width="24" height="24" viewBox="0 0 24 24" fill="none">
  <path fill-rule="evenodd" clip-rule="evenodd" d="M11.7418 3.04584C11.9085 2.98472 12.0915 2.98472 12.2582 3.04584L19.0082 5.52084C19.3036 5.62916 19.5 5.91036 19.5 6.225V12C19.5 14.8169 17.5926 17.071 15.8626 18.5511C14.9805 19.3058 14.102 19.8959 13.4458 20.297C13.1168 20.498 12.8417 20.6528 12.647 20.7581C12.5497 20.8108 12.4723 20.8512 12.4183 20.879C12.3913 20.8928 12.3701 20.9035 12.3552 20.911L12.3375 20.9198L12.3322 20.9224L12.3305 20.9233C12.3305 20.9233 12.3294 20.9238 12 20.25C11.6706 20.9238 11.6701 20.9236 11.6701 20.9236L11.6678 20.9224L11.6625 20.9198L11.6448 20.911C11.6299 20.9035 11.6087 20.8928 11.5817 20.879C11.5277 20.8512 11.4503 20.8108 11.353 20.7581C11.1583 20.6528 10.8832 20.498 10.5542 20.297C9.89796 19.8959 9.01954 19.3058 8.13743 18.5511C6.40736 17.071 4.5 14.8169 4.5 12V6.225C4.5 5.91036 4.6964 5.62916 4.99181 5.52084L11.7418 3.04584ZM12 20.25L11.6701 20.9236C11.878 21.0252 12.1216 21.0254 12.3294 20.9238L12 20.25ZM12 19.4025C12.1696 19.3094 12.3966 19.1802 12.6636 19.0171C13.273 18.6447 14.082 18.1004 14.8874 17.4114C16.5324 16.004 18 14.1331 18 12V6.74883L12 4.54883L6 6.74883V12C6 14.1331 7.46764 16.004 9.11257 17.4114C9.91796 18.1004 10.727 18.6447 11.3364 19.0171C11.6034 19.1802 11.8304 19.3094 12 19.4025Z" fill="#313131" fill-opacity="0.5"/>
  <path fill-rule="evenodd" clip-rule="evenodd" d="M9.89571 11.9063C9.59186 11.6248 9.11733 11.6429 8.83582 11.9467C8.55431 12.2506 8.57242 12.7251 8.87627 13.0066L10.6763 14.6743C10.972 14.9482 11.4313 14.9395 11.7163 14.6544L16.0802 10.2906C16.3731 9.99769 16.3731 9.52282 16.0802 9.22992C15.7873 8.93703 15.3124 8.93703 15.0195 9.22992L11.1661 13.0833L9.89571 11.9063Z" fill="#313131" fill-opacity="0.5"/>
</svg>