<svg width="32" height="32" viewBox="0 0 32 32" fill="none" xmlns="http://www.w3.org/2000/svg">
<g id="32px">
<path id="Vector (Stroke)" fill-rule="evenodd" clip-rule="evenodd" d="M15.6557 4.06112C15.878 3.97963 16.122 3.97963 16.3443 4.06112L25.3443 7.36112C25.7381 7.50555 26 7.88047 26 8.3V16C26 19.7558 23.4569 22.7613 21.1501 24.7349C19.9739 25.7411 18.8027 26.5279 17.9277 27.0627C17.4891 27.3307 17.1222 27.537 16.8627 27.6775C16.7329 27.7478 16.6298 27.8016 16.5578 27.8386C16.5217 27.8571 16.4935 27.8714 16.4735 27.8813L16.4499 27.8931L16.4429 27.8966L16.4407 27.8977C16.4407 27.8977 16.4392 27.8984 16 27C15.5608 27.8984 15.5602 27.8981 15.5602 27.8981L15.5571 27.8966L15.5501 27.8931L15.5265 27.8813C15.5065 27.8714 15.4783 27.8571 15.4422 27.8386C15.3702 27.8016 15.2671 27.7478 15.1373 27.6775C14.8778 27.537 14.5109 27.3307 14.0723 27.0627C13.1973 26.5279 12.0261 25.7411 10.8499 24.7349C8.54315 22.7613 6 19.7558 6 16V8.3C6 7.88047 6.26186 7.50555 6.65575 7.36112L15.6557 4.06112ZM16 27L15.5602 27.8981C15.8373 28.0336 16.1621 28.0339 16.4392 27.8984L16 27ZM16 25.8699C16.2261 25.7459 16.5288 25.5736 16.8848 25.3561C17.6973 24.8596 18.7761 24.1339 19.8499 23.2151C22.0431 21.3387 24 18.8442 24 16V8.99844L16 6.0651L8 8.99844V16C8 18.8442 9.95685 21.3387 12.1501 23.2151C13.2239 24.1339 14.3027 24.8596 15.1152 25.3561C15.4712 25.5736 15.7739 25.7459 16 25.8699Z" fill="#006FFF"/>
<path id="Union" fill-rule="evenodd" clip-rule="evenodd" d="M13.1943 15.8751C12.7891 15.4997 12.1564 15.5239 11.7811 15.929C11.4057 16.3341 11.4299 16.9668 11.835 17.3422L14.235 19.5657C14.6293 19.931 15.2417 19.9193 15.6218 19.5393L21.4402 13.7208C21.8308 13.3303 21.8308 12.6971 21.4402 12.3066C21.0497 11.916 20.4165 11.916 20.026 12.3066L14.8882 17.4444L13.1943 15.8751Z" fill="#006FFF"/>
</g>
</svg>
