<svg width="149" height="28" viewBox="0 0 149 28" fill="none" xmlns="http://www.w3.org/2000/svg">
<g clip-path="url(#clip0_1419_6844)">
<path d="M148.878 0.0078125H134.999V27.9929H148.878V0.0078125Z" fill="#DCDCE6"/>
<path d="M0.30957 0.0078125H28.1889V27.9929H0.30957V0.0078125ZM30.5122 0.0078125H58.3915V27.9929H30.5122V0.0078125ZM60.7147 0.0078125H88.5941V27.9929H60.7147V0.0078125ZM90.9173 0.0078125H118.797V27.9929H90.9173V0.0078125ZM121.12 0.0078125H134.999V27.9929H121.12V0.0078125Z" fill="#00B67A"/>
<path d="M14.249 18.8688L18.4889 17.7902L20.2604 23.2706L14.249 18.8688ZM24.0067 11.785H16.5432L14.249 4.73047L11.9547 11.785H4.49121L10.5317 16.1577L8.23749 23.2123L14.278 18.8396L17.9952 16.1577L24.0067 11.785ZM44.4516 18.8688L48.6915 17.7902L50.463 23.2706L44.4516 18.8688ZM54.2093 11.785H46.7458L44.4516 4.73047L42.1573 11.785H34.6938L40.7343 16.1577L38.4401 23.2123L44.4806 18.8396L48.1978 16.1577L54.2093 11.785ZM74.6541 18.8688L78.8941 17.7902L80.6656 23.2706L74.6541 18.8688ZM84.4119 11.785H76.9484L74.6541 4.73047L72.3599 11.785H64.8964L70.9369 16.1577L68.6427 23.2123L74.6832 18.8396L78.4004 16.1577L84.4119 11.785ZM104.857 18.8688L109.097 17.7902L110.868 23.2706L104.857 18.8688ZM114.614 11.785H107.151L104.857 4.73047L102.562 11.785H95.099L101.139 16.1577L98.8452 23.2123L104.886 18.8396L108.603 16.1577L114.614 11.785ZM135.059 18.8688L139.299 17.7902L141.071 23.2706L135.059 18.8688ZM144.817 11.785H137.354L135.059 4.73047L132.765 11.785H125.302L131.342 16.1577L129.048 23.2123L135.088 18.8396L138.806 16.1577L144.817 11.785Z" fill="white"/>
</g>
<defs>
<clipPath id="clip0_1419_6844">
<rect width="148.69" height="28" fill="white" transform="translate(0.30957)"/>
</clipPath>
</defs>
</svg>
