<svg width="18" height="18" viewBox="0 0 18 18" fill="none" xmlns="http://www.w3.org/2000/svg">
<path fill-rule="evenodd" clip-rule="evenodd" d="M7.88432 4.06197C8.94917 3.82138 10.0633 3.93146 11.0604 4.37577C11.3442 4.50221 11.6767 4.37467 11.8032 4.09091C11.9296 3.80714 11.8021 3.47461 11.5183 3.34817C10.2995 2.80511 8.93787 2.67058 7.63639 2.96463C6.33491 3.25868 5.16335 3.96557 4.29644 4.97986C3.42952 5.99414 2.9137 7.26149 2.82591 8.59289C2.73812 9.92428 3.08306 11.2484 3.80928 12.3677C4.53551 13.4871 5.6041 14.3417 6.8557 14.8041C8.10731 15.2665 9.47485 15.3119 10.7544 14.9336C12.0339 14.5553 13.1569 13.7735 13.9558 12.7048C14.7547 11.6361 15.1867 10.3375 15.1875 9.00322V8.48572C15.1875 8.17506 14.9357 7.92322 14.625 7.92322C14.3143 7.92322 14.0625 8.17506 14.0625 8.48572V9.0029C14.0619 10.0946 13.7084 11.1568 13.0547 12.0312C12.4011 12.9056 11.4823 13.5452 10.4354 13.8547C9.38851 14.1643 8.26961 14.1271 7.24558 13.7488C6.22154 13.3705 5.34723 12.6712 4.75305 11.7554C4.15887 10.8396 3.87665 9.75623 3.94847 8.66691C4.0203 7.57758 4.44234 6.54066 5.15163 5.71079C5.86092 4.88092 6.81947 4.30256 7.88432 4.06197ZM15.0229 4.90084C15.2425 4.68106 15.2423 4.32491 15.0225 4.10535C14.8028 3.88579 14.4466 3.88597 14.2271 4.10575L8.9998 9.33823L7.71025 8.04867C7.49058 7.829 7.13442 7.829 6.91475 8.04867C6.69508 8.26834 6.69508 8.6245 6.91475 8.84417L8.60225 10.5317C8.70778 10.6372 8.85091 10.6965 9.00014 10.6964C9.14937 10.6964 9.29248 10.637 9.39795 10.5315L15.0229 4.90084Z" fill="#AFB5BF"/>
</svg>
