<svg width="24" height="24" viewBox="0 0 24 24" fill="none" xmlns="http://www.w3.org/2000/svg">
<path fill-rule="evenodd" clip-rule="evenodd" d="M6.75 5.25C4.67893 5.25 3 6.92893 3 9V15.0018C3 17.0729 4.67893 18.7518 6.75 18.7518H17.2511C19.3222 18.7518 21.0011 17.0729 21.0011 15.0018V9C21.0011 6.92893 19.3222 5.25 17.2511 5.25H6.75ZM4.79533 7.88489C5.18293 7.20691 5.91311 6.75 6.75 6.75H17.2511C18.0879 6.75 18.8179 7.20671 19.2056 7.88445L13.1424 11.4573C12.4375 11.8727 11.5627 11.8727 10.8578 11.4573L4.79533 7.88489ZM4.5 9.45192V15.0018C4.5 16.2445 5.50736 17.2518 6.75 17.2518H17.2511C18.4938 17.2518 19.5011 16.2445 19.5011 15.0018V9.45134L13.9039 12.7497C12.7291 13.4419 11.2711 13.4419 10.0963 12.7497L4.5 9.45192Z" fill="#004AD9"/>
</svg>
