<svg id="eNSbiA65QZF1" xmlns="http://www.w3.org/2000/svg" xmlns:xlink="http://www.w3.org/1999/xlink" viewBox="0 0 100 160" shape-rendering="geometricPrecision" text-rendering="geometricPrecision"><g id="eNSbiA65QZF2" transform="translate(4.500001 78.999802)"><path d="M45.5031,29.0126C22.8882,29.0126,0,24.1469,0,14.8464C0,8.50664,9.97243,5.00258,18.3366,3.18496c1.2605-.29356,2.4652.52468,2.7322,1.7739.2732,1.24921-.5154,2.4797-1.7635,2.74828C8.5132,10.0557,4.59502,13.2662,4.59502,14.8464c0,3.2355,14.43708,9.5378,40.90188,9.5378s40.9019-6.2149,40.9019-9.5378-14.0459-9.53776-40.9019-9.53776h-3.3842c-1.2729,0-2.2975-1.03061-2.2975-2.31106s1.0246-2.311057,2.2975-2.311057h3.3842C68.1118,0.686523,91,5.54599,91,14.8527s-22.8882,14.1661-45.5031,14.1661l.0062-.0062Z" fill="#006fff"/><path d="M45.5047,21.3796c-14.642,0-32.0906-1.1305-32.0906-6.5396s17.4548-6.53971,32.0906-6.53971c3.7381,0,7.2713,0,10.6182.27483c1.2667.10619,2.2044,1.22424,2.105,2.49848-.1055,1.2742-1.2295,2.2173-2.4838,2.1174-3.1544-.2686-6.5945-.2686-10.2332-.2686-12.065,0-20.3547.9744-24.6455,1.9113c4.2908.9369,12.5805,1.9113,24.6455,1.9113s20.4975-.9869,24.7572-1.93c-.5713-.1374-1.2357-.2811-2.0181-.4248-1.2481-.2373-2.0739-1.4428-1.838-2.7045.236-1.2555,1.4655-2.07373,2.6887-1.84887c5.1104.96187,8.507,2.17987,8.507,4.99687c0,5.4091-17.4548,6.5397-32.0906,6.5397l-.0124.0062Z" fill="#006fff"/><path d="M45.5017,79.0002c-16.3496,0-32.904-4.1599-32.904-12.1237c0-1.2805,1.0245-2.3111,2.2975-2.3111c1.2729,0,2.2975,1.0306,2.2975,2.3111c0,2.5422,9.991,7.4953,28.3028,7.4953s28.4394-4.9531,28.4394-7.4953c0-1.2805,1.0246-2.3111,2.2976-2.3111c1.2729,0,2.2975,1.0306,2.2975,2.3111c0,8.3323-17.1258,12.1237-33.0407,12.1237h.0124Z" fill="#006fff"/><path d="M14.8952,69.1938c-1.273,0-2.2975-1.0306-2.2975-2.311c0-10.4373,1.4033-22.4235,2.7694-34.0163.3539-3.0044.7079-6.015,1.0432-9.0131.1428-1.2742,1.304-2.1611,2.5397-2.0425c1.2605.1437,2.1733,1.2867,2.0305,2.5547-.3291,3.0044-.6831,6.0212-1.0432,9.0381-1.3413,11.4616-2.7384,23.3104-2.7384,33.4728c0,1.2805-1.0246,2.3111-2.2975,2.3111l-.0062.0062Z" fill="#006fff"/><path d="M76.2383,69.1938c-1.2729,0-2.2975-1.0306-2.2975-2.3111c0-10.1624-1.3971-22.0112-2.7384-33.4728-.3539-3.0169-.7078-6.0337-1.0432-9.0381-.1428-1.2742.77-2.4173,2.0306-2.5547c1.2543-.1436,2.403.7683,2.5396,2.0425.3291,2.9919.6831,6.0088,1.0432,9.0131c1.3599,11.599,2.7695,23.579,2.7695,34.0163c0,1.2804-1.0246,2.311-2.2976,2.311l-.0062-.0062Z" fill="#006fff"/><path d="M45.5023,37.5882c-10.0905,0-19.8642-1.0056-28.2656-2.9169-1.2357-.2811-2.0181-1.5178-1.7387-2.767.2732-1.2492,1.4903-2.0487,2.7508-1.7489c8.0724,1.8301,17.4921,2.8045,27.2535,2.8045c5.8679,0,11.2826-.3123,16.0887-.9369c1.2916-.1937,2.4155.7245,2.577,1.9987.1614,1.2742-.7265,2.4297-1.9871,2.5921-5.0048.6496-10.612.9744-16.6786.9744Z" fill="#006fff"/></g><g><path id="eNSbiA65QZF10" d="M14.2435,26.2833c-.6893,0-1.3475-.3123-1.7945-.8557l-4.10451-5.103L2.07291,18.863c-.73893-.1749-1.341248-.6933-1.620675-1.4054-.273217-.7058-.192494-1.5053.223542-2.1424L4.2897,9.86859L3.68738,3.32893c-.06831-.76202.23596-1.50531.81965-1.99251.5899-.487191,1.3785-.64959,2.11122-.443469L12.8712,2.70432l5.8866-2.523424c.6892-.293566,1.4841-.231105,2.1174.162399.6396.39975,1.0432,1.086825,1.0867,1.842595l.3601,6.5584l4.2163,4.84701c.4967.5746.683,1.3491.5029,2.0862s-.714,1.3366-1.4157,1.6052l-6.0294,2.3111-3.378,5.584c-.3912.6496-1.068,1.0618-1.8132,1.1055-.0496,0-.1055,0-.1552,0h-.0062ZM6.35746,15.1091l3.80024.8807c.4967.1186.95.3997,1.2729.7995l2.5459,3.1667l2.0864-3.4541c.267-.4434.6706-.7807,1.1549-.9619l3.6761-1.4053-2.5583-2.9419c-.3416-.3873-.5403-.8807-.5713-1.39916l-.2236-4.04747-3.6139,1.55528c-.4905.20612-1.037.23735-1.5461.09369L8.58045,6.28958l.36636,3.97872c.04968.5247-.08693,1.0556-.37257,1.4991L6.35746,15.1091Z" transform="translate(50.738952 64.561955)" opacity="0" fill="#006fff"/><path id="eNSbiA65QZF11" d="M15.9313,32.7148c-.0497,0-.1056,0-.1615,0-.7575-.05-1.4343-.4747-1.8193-1.1243L9.62867,24.2576L1.58738,21.2782c-.707877-.2624-1.241892-.8557-1.434386-1.5928-.186285-.737-.000001-1.5178.490548-2.0924L6.21345,11.1158l.37257-8.45723c.03105-.74953.42845-1.44285,1.06182-1.842601.62716-.412243,1.41576-.480949,2.11122-.199875L17.701,3.85782l8.1903-2.24235c.7389-.19988,1.5089-.03123,2.0864.45596.5713.4872.8817,1.23049.8134,1.98002l-.7389,8.46345l4.7068,7.2267c.4098.6309.4905,1.4304.2049,2.1362-.2794.7058-.8942,1.2242-1.6269,1.3929L23.0536,25.132L17.732,31.8466c-.4408.5559-1.099.8744-1.8007.8744v-.0062ZM6.30038,18.0802l5.68792,2.1049c.4967.1812.9128.5372,1.1798.9931l3.0426,5.1531L19.955,21.603c.3291-.4123.7824-.7058,1.2978-.8183l5.8307-1.3116L23.7552,14.37c-.2856-.431-.4098-.9557-.3663-1.4678l.5216-5.95256-5.75,1.57401c-.4843.13742-.9997.10618-1.4717-.08744L11.0506,6.1314l-.267,5.9838c-.0248.5184-.2173,1.0181-.5588,1.4116L6.30659,18.0864l-.00621-.0062Z" transform="translate(17.83205 61.118746)" opacity="0" fill="#006fff"/><path id="eNSbiA65QZF12" d="M15.9313,32.7148c-.0497,0-.1056,0-.1615,0-.7575-.05-1.4343-.4747-1.8193-1.1243L9.62867,24.2576L1.58738,21.2782c-.707877-.2624-1.241892-.8557-1.434386-1.5928-.186285-.737-.000001-1.5178.490548-2.0924L6.21345,11.1158l.37257-8.45723c.03105-.74953.42845-1.44285,1.06182-1.842601.62716-.412243,1.41576-.480949,2.11122-.199875L17.701,3.85782l8.1903-2.24235c.7389-.19988,1.5089-.03123,2.0864.45596.5713.4872.8817,1.23049.8134,1.98002l-.7389,8.46345l4.7068,7.2267c.4098.6309.4905,1.4304.2049,2.1362-.2794.7058-.8942,1.2242-1.6269,1.3929L23.0536,25.132L17.732,31.8466c-.4408.5559-1.099.8744-1.8007.8744v-.0062ZM6.30038,18.0802l5.68792,2.1049c.4967.1812.9128.5372,1.1798.9931l3.0426,5.1531L19.955,21.603c.3291-.4123.7824-.7058,1.2978-.8183l5.8307-1.3116L23.7552,14.37c-.2856-.431-.4098-.9557-.3663-1.4678l.5216-5.95256-5.75,1.57401c-.4843.13742-.9997.10618-1.4717-.08744L11.0506,6.1314l-.267,5.9838c-.0248.5184-.2173,1.0181-.5588,1.4116L6.30659,18.0864l-.00621-.0062Z" transform="translate(17.83205 61.118746)" opacity="0" fill="#006fff"/><path id="eNSbiA65QZF13" d="M14.2435,26.2833c-.6893,0-1.3475-.3123-1.7945-.8557l-4.10451-5.103L2.07291,18.863c-.73893-.1749-1.341248-.6933-1.620675-1.4054-.273217-.7058-.192494-1.5053.223542-2.1424L4.2897,9.86859L3.68738,3.32893c-.06831-.76202.23596-1.50531.81965-1.99251.5899-.487191,1.3785-.64959,2.11122-.443469L12.8712,2.70432l5.8866-2.523424c.6892-.293566,1.4841-.231105,2.1174.162399.6396.39975,1.0432,1.086825,1.0867,1.842595l.3601,6.5584l4.2163,4.84701c.4967.5746.683,1.3491.5029,2.0862s-.714,1.3366-1.4157,1.6052l-6.0294,2.3111-3.378,5.584c-.3912.6496-1.068,1.0618-1.8132,1.1055-.0496,0-.1055,0-.1552,0h-.0062ZM6.35746,15.1091l3.80024.8807c.4967.1186.95.3997,1.2729.7995l2.5459,3.1667l2.0864-3.4541c.267-.4434.6706-.7807,1.1549-.9619l3.6761-1.4053-2.5583-2.9419c-.3416-.3873-.5403-.8807-.5713-1.39916l-.2236-4.04747-3.6139,1.55528c-.4905.20612-1.037.23735-1.5461.09369L8.58045,6.28958l.36636,3.97872c.04968.5247-.08693,1.0556-.37257,1.4991L6.35746,15.1091Z" transform="translate(50.738952 64.561955)" opacity="0" fill="#006fff"/><path id="eNSbiA65QZF14" d="M2.50064,5.73009c-1.27295,0-2.297515-1.03061-2.297515-2.31106s1.024565-2.517175,2.297515-2.517175s2.2975.830735,2.2975,2.111185v.40599c0,1.28045-1.02456,2.31106-2.2975,2.31106Z" transform="translate(41.939025 74.38642)" opacity="0" fill="#006fff"/><path id="eNSbiA65QZF15" d="M2.50064,5.73009c-1.27295,0-2.297515-1.03061-2.297515-2.31106s1.024565-2.517175,2.297515-2.517175s2.2975.830735,2.2975,2.111185v.40599c0,1.28045-1.02456,2.31106-2.2975,2.31106Z" transform="translate(47.939025 74.38642)" opacity="0" fill="#006fff"/><path id="eNSbiA65QZF16" d="M2.50064,5.73009c-1.27295,0-2.297515-1.03061-2.297515-2.31106s1.024565-2.517175,2.297515-2.517175s2.2975.830735,2.2975,2.111185v.40599c0,1.28045-1.02456,2.31106-2.2975,2.31106Z" transform="translate(71.939025 74.38642)" opacity="0" fill="#006fff"/><path id="eNSbiA65QZF17" d="M2.50064,5.73009c-1.27295,0-2.297515-1.03061-2.297515-2.31106s1.024565-2.517175,2.297515-2.517175s2.2975.830735,2.2975,2.111185v.40599c0,1.28045-1.02456,2.31106-2.2975,2.31106Z" transform="translate(77.939025 74.38642)" opacity="0" fill="#006fff"/><path id="eNSbiA65QZF18" d="M2.50064,5.73009c-1.27295,0-2.297515-1.03061-2.297515-2.31106s1.024565-2.517175,2.297515-2.517175s2.2975.830735,2.2975,2.111185v.40599c0,1.28045-1.02456,2.31106-2.2975,2.31106Z" transform="translate(11.939025 74.38642)" opacity="0" fill="#006fff"/><path id="eNSbiA65QZF19" d="M2.50064,5.73009c-1.27295,0-2.297515-1.03061-2.297515-2.31106s1.024565-2.517175,2.297515-2.517175s2.2975.830735,2.2975,2.111185v.40599c0,1.28045-1.02456,2.31106-2.2975,2.31106Z" transform="translate(17.939025 74.38642)" opacity="0" fill="#006fff"/></g><g><path id="eNSbiA65QZF21" d="M14.2435,26.2833c-.6893,0-1.3475-.3123-1.7945-.8557l-4.10451-5.103L2.07291,18.863c-.73893-.1749-1.341248-.6933-1.620675-1.4054-.273217-.7058-.192494-1.5053.223542-2.1424L4.2897,9.86859L3.68738,3.32893c-.06831-.76202.23596-1.50531.81965-1.99251.5899-.487191,1.3785-.64959,2.11122-.443469L12.8712,2.70432l5.8866-2.523424c.6892-.293566,1.4841-.231105,2.1174.162399.6396.39975,1.0432,1.086825,1.0867,1.842595l.3601,6.5584l4.2163,4.84701c.4967.5746.683,1.3491.5029,2.0862s-.714,1.3366-1.4157,1.6052l-6.0294,2.3111-3.378,5.584c-.3912.6496-1.068,1.0618-1.8132,1.1055-.0496,0-.1055,0-.1552,0h-.0062ZM6.35746,15.1091l3.80024.8807c.4967.1186.95.3997,1.2729.7995l2.5459,3.1667l2.0864-3.4541c.267-.4434.6706-.7807,1.1549-.9619l3.6761-1.4053-2.5583-2.9419c-.3416-.3873-.5403-.8807-.5713-1.39916l-.2236-4.04747-3.6139,1.55528c-.4905.20612-1.037.23735-1.5461.09369L8.58045,6.28958l.36636,3.97872c.04968.5247-.08693,1.0556-.37257,1.4991L6.35746,15.1091Z" transform="translate(50.738952 64.561955)" opacity="0" fill="#006fff"/><path id="eNSbiA65QZF22" d="M15.9313,32.7148c-.0497,0-.1056,0-.1615,0-.7575-.05-1.4343-.4747-1.8193-1.1243L9.62867,24.2576L1.58738,21.2782c-.707877-.2624-1.241892-.8557-1.434386-1.5928-.186285-.737-.000001-1.5178.490548-2.0924L6.21345,11.1158l.37257-8.45723c.03105-.74953.42845-1.44285,1.06182-1.842601.62716-.412243,1.41576-.480949,2.11122-.199875L17.701,3.85782l8.1903-2.24235c.7389-.19988,1.5089-.03123,2.0864.45596.5713.4872.8817,1.23049.8134,1.98002l-.7389,8.46345l4.7068,7.2267c.4098.6309.4905,1.4304.2049,2.1362-.2794.7058-.8942,1.2242-1.6269,1.3929L23.0536,25.132L17.732,31.8466c-.4408.5559-1.099.8744-1.8007.8744v-.0062ZM6.30038,18.0802l5.68792,2.1049c.4967.1812.9128.5372,1.1798.9931l3.0426,5.1531L19.955,21.603c.3291-.4123.7824-.7058,1.2978-.8183l5.8307-1.3116L23.7552,14.37c-.2856-.431-.4098-.9557-.3663-1.4678l.5216-5.95256-5.75,1.57401c-.4843.13742-.9997.10618-1.4717-.08744L11.0506,6.1314l-.267,5.9838c-.0248.5184-.2173,1.0181-.5588,1.4116L6.30659,18.0864l-.00621-.0062Z" transform="translate(17.83205 61.118746)" opacity="0" fill="#006fff"/><path id="eNSbiA65QZF23" d="M15.9313,32.7148c-.0497,0-.1056,0-.1615,0-.7575-.05-1.4343-.4747-1.8193-1.1243L9.62867,24.2576L1.58738,21.2782c-.707877-.2624-1.241892-.8557-1.434386-1.5928-.186285-.737-.000001-1.5178.490548-2.0924L6.21345,11.1158l.37257-8.45723c.03105-.74953.42845-1.44285,1.06182-1.842601.62716-.412243,1.41576-.480949,2.11122-.199875L17.701,3.85782l8.1903-2.24235c.7389-.19988,1.5089-.03123,2.0864.45596.5713.4872.8817,1.23049.8134,1.98002l-.7389,8.46345l4.7068,7.2267c.4098.6309.4905,1.4304.2049,2.1362-.2794.7058-.8942,1.2242-1.6269,1.3929L23.0536,25.132L17.732,31.8466c-.4408.5559-1.099.8744-1.8007.8744v-.0062ZM6.30038,18.0802l5.68792,2.1049c.4967.1812.9128.5372,1.1798.9931l3.0426,5.1531L19.955,21.603c.3291-.4123.7824-.7058,1.2978-.8183l5.8307-1.3116L23.7552,14.37c-.2856-.431-.4098-.9557-.3663-1.4678l.5216-5.95256-5.75,1.57401c-.4843.13742-.9997.10618-1.4717-.08744L11.0506,6.1314l-.267,5.9838c-.0248.5184-.2173,1.0181-.5588,1.4116L6.30659,18.0864l-.00621-.0062Z" transform="translate(17.83205 61.118746)" opacity="0" fill="#006fff"/><path id="eNSbiA65QZF24" d="M14.2435,26.2833c-.6893,0-1.3475-.3123-1.7945-.8557l-4.10451-5.103L2.07291,18.863c-.73893-.1749-1.341248-.6933-1.620675-1.4054-.273217-.7058-.192494-1.5053.223542-2.1424L4.2897,9.86859L3.68738,3.32893c-.06831-.76202.23596-1.50531.81965-1.99251.5899-.487191,1.3785-.64959,2.11122-.443469L12.8712,2.70432l5.8866-2.523424c.6892-.293566,1.4841-.231105,2.1174.162399.6396.39975,1.0432,1.086825,1.0867,1.842595l.3601,6.5584l4.2163,4.84701c.4967.5746.683,1.3491.5029,2.0862s-.714,1.3366-1.4157,1.6052l-6.0294,2.3111-3.378,5.584c-.3912.6496-1.068,1.0618-1.8132,1.1055-.0496,0-.1055,0-.1552,0h-.0062ZM6.35746,15.1091l3.80024.8807c.4967.1186.95.3997,1.2729.7995l2.5459,3.1667l2.0864-3.4541c.267-.4434.6706-.7807,1.1549-.9619l3.6761-1.4053-2.5583-2.9419c-.3416-.3873-.5403-.8807-.5713-1.39916l-.2236-4.04747-3.6139,1.55528c-.4905.20612-1.037.23735-1.5461.09369L8.58045,6.28958l.36636,3.97872c.04968.5247-.08693,1.0556-.37257,1.4991L6.35746,15.1091Z" transform="translate(50.738952 64.561955)" opacity="0" fill="#006fff"/><path id="eNSbiA65QZF25" d="M2.50064,5.73009c-1.27295,0-2.297515-1.03061-2.297515-2.31106s1.024565-2.517175,2.297515-2.517175s2.2975.830735,2.2975,2.111185v.40599c0,1.28045-1.02456,2.31106-2.2975,2.31106Z" transform="translate(41.939025 74.38642)" opacity="0" fill="#006fff"/><path id="eNSbiA65QZF26" d="M2.50064,5.73009c-1.27295,0-2.297515-1.03061-2.297515-2.31106s1.024565-2.517175,2.297515-2.517175s2.2975.830735,2.2975,2.111185v.40599c0,1.28045-1.02456,2.31106-2.2975,2.31106Z" transform="translate(47.939025 74.38642)" opacity="0" fill="#006fff"/><path id="eNSbiA65QZF27" d="M2.50064,5.73009c-1.27295,0-2.297515-1.03061-2.297515-2.31106s1.024565-2.517175,2.297515-2.517175s2.2975.830735,2.2975,2.111185v.40599c0,1.28045-1.02456,2.31106-2.2975,2.31106Z" transform="translate(71.939025 74.38642)" opacity="0" fill="#006fff"/><path id="eNSbiA65QZF28" d="M2.50064,5.73009c-1.27295,0-2.297515-1.03061-2.297515-2.31106s1.024565-2.517175,2.297515-2.517175s2.2975.830735,2.2975,2.111185v.40599c0,1.28045-1.02456,2.31106-2.2975,2.31106Z" transform="translate(77.939025 74.38642)" opacity="0" fill="#006fff"/><path id="eNSbiA65QZF29" d="M2.50064,5.73009c-1.27295,0-2.297515-1.03061-2.297515-2.31106s1.024565-2.517175,2.297515-2.517175s2.2975.830735,2.2975,2.111185v.40599c0,1.28045-1.02456,2.31106-2.2975,2.31106Z" transform="translate(11.939025 74.38642)" opacity="0" fill="#006fff"/><path id="eNSbiA65QZF30" d="M2.50064,5.73009c-1.27295,0-2.297515-1.03061-2.297515-2.31106s1.024565-2.517175,2.297515-2.517175s2.2975.830735,2.2975,2.111185v.40599c0,1.28045-1.02456,2.31106-2.2975,2.31106Z" transform="translate(17.939025 74.38642)" opacity="0" fill="#006fff"/></g>
</svg>
