<svg width="24" height="24" viewBox="0 0 24 24" fill="none" xmlns="http://www.w3.org/2000/svg">
<path fill-rule="evenodd" clip-rule="evenodd" d="M9 3C6.92893 3 5.25 4.61178 5.25 6.6V17.4C5.25 19.3882 6.92893 21 9 21H15C17.0711 21 18.75 19.3882 18.75 17.4V6.6C18.75 4.61178 17.0711 3 15 3H9ZM6.75 6.6C6.75 5.40707 7.75736 4.44 9 4.44H15C16.2426 4.44 17.25 5.40707 17.25 6.6V17.4C17.25 18.5929 16.2426 19.56 15 19.56H9C7.75736 19.56 6.75 18.5929 6.75 17.4V6.6ZM12 17.4C11.5858 17.4 11.25 17.7224 11.25 18.12C11.25 18.5176 11.5858 18.84 12 18.84C12.4142 18.84 12.75 18.5176 12.75 18.12C12.75 17.7224 12.4142 17.4 12 17.4Z" fill="#004AD9"/>
</svg>
