<svg width="18" height="18" viewBox="0 0 18 18" fill="none" xmlns="http://www.w3.org/2000/svg">
<path d="M9.57719 9.55179C9.57719 9.24113 9.32535 8.98929 9.01469 8.98929C8.70403 8.98929 8.45219 9.24113 8.45219 9.55179V11.5339C8.45219 11.8446 8.70403 12.0964 9.01469 12.0964C9.32535 12.0964 9.57719 11.8446 9.57719 11.5339V9.55179Z" fill="#37008F"/>
<path fill-rule="evenodd" clip-rule="evenodd" d="M8.09322 2.25C6.53992 2.25 5.28072 3.5092 5.28072 5.0625V6.21428H4.92188C3.36857 6.21428 2.10938 7.47348 2.10938 9.02678V13.2482C2.10938 14.8015 3.36858 16.0607 4.92188 16.0607H13.1076C14.6609 16.0607 15.9201 14.8015 15.9201 13.2482V9.02678C15.9201 7.47348 14.6609 6.21428 13.1076 6.21428H12.7486V5.0625C12.7486 3.5092 11.4894 2.25 9.93607 2.25H8.09322ZM12.1834 7.33928L12.1861 7.33929L12.1888 7.33928H13.1076C14.0396 7.33928 14.7951 8.0948 14.7951 9.02678V13.2482C14.7951 14.1802 14.0396 14.9357 13.1076 14.9357H4.92188C3.9899 14.9357 3.23438 14.1802 3.23438 13.2482V9.02678C3.23438 8.0948 3.98989 7.33928 4.92188 7.33928H5.8405L5.84322 7.33929L5.84594 7.33928H12.1834ZM11.6236 6.21428V5.0625C11.6236 4.13052 10.8681 3.375 9.93607 3.375H8.09322C7.16124 3.375 6.40572 4.13052 6.40572 5.0625V6.21428H11.6236Z" fill="#37008F"/>
</svg>
