<svg width="53" height="40" viewBox="0 0 53 40" fill="none" xmlns="http://www.w3.org/2000/svg">
<g id="Group 29">
<path id="Vector" d="M34.6121 12.2563C35.9642 12.2563 36.5139 11.8007 36.7252 10.4739C36.8328 9.79707 36.8541 9.11743 36.7229 8.43495C36.4506 7.01653 35.9993 6.62581 34.5505 6.62524C28.4086 6.62297 13.6866 6.61103 7.5447 6.64174C6.76243 6.64572 6.2058 6.43756 5.65895 5.87964C3.85207 4.03751 0.552734 0.266237 0.552734 0.266237C9.09187 0.266237 26.2105 0.262236 34.7496 0.263394C38.9995 0.263963 41.6876 2.21699 42.8061 6.28856C43.6747 9.45128 43.3926 12.5236 41.5426 15.3394C40.1265 17.4949 38.0981 18.5914 35.4934 18.6284C34.7036 18.6397 33.9133 18.6301 32.9203 18.6301C35.6649 21.6495 49.332 36.7134 52.0783 39.7346C50.8268 39.7346 49.7642 39.7346 48.7016 39.7346C47.0968 39.7346 45.492 39.7323 43.8877 39.7368C43.551 39.738 43.2643 39.7158 43.0018 39.4246C38.6604 34.6041 18.3864 12.2534 18.3864 12.2534C23.7949 12.258 29.2035 12.2563 34.6121 12.2563Z" fill="#FF5E54"/>
<path id="Vector_2" d="M19.5849 18.6964C16.0091 18.6964 13.2977 18.6946 10.011 18.6986C9.65226 18.6986 9.29008 18.7072 8.93481 18.7534C7.74059 18.9087 7.04674 19.5664 7.03408 20.7583C6.99607 24.2697 6.99607 27.7817 7.03696 31.2925C7.0502 32.4394 7.74059 33.0925 8.89277 33.2517C9.27453 33.3048 9.66493 33.3111 10.0519 33.3111C16.9719 33.3145 25.0435 33.3202 31.9635 33.3031C32.5106 33.302 32.8745 33.4589 33.2355 33.8688C34.9215 35.7835 36.6425 37.6679 38.4684 39.6934C29.4287 39.6934 18.7766 39.6858 9.73691 39.6997C6.85558 39.7042 4.44929 38.6961 2.55432 36.5376C1.45107 35.2812 0.748017 33.8135 0.666829 32.1517C0.472207 28.151 0.420384 24.1384 0.66107 20.1446C0.916152 15.9162 4.42453 12.6275 8.70218 12.3637C10.2189 12.2701 11.7453 12.3272 13.2677 12.3135C13.4917 12.3112 13.6915 12.3266 13.8712 12.5047C15.9055 14.5153 17.3709 16.5196 19.5843 18.6964H19.5849Z" fill="#313131"/>
</g>
</svg>
