<svg xmlns="http://www.w3.org/2000/svg" width="46" height="61" viewBox="0 0 46 61" fill="none">
  <path d="M44.1498 17.1191H30.2222C29.4414 17.1191 28.8086 16.4914 28.8086 15.7169V1.90186H31.6357V14.3148H44.1498V17.1191Z" fill="#262626"/>
  <path d="M35.2007 36.3623H10.8086V39.1666H35.2007V36.3623Z" fill="#262626"/>
  <path d="M35.2007 45.8984H10.8086V48.7027H35.2007V45.8984Z" fill="#262626"/>
  <path d="M23.4445 15.5H1.55674C1.00979 15.5 0.566406 15.9398 0.566406 16.4823V26.6706C0.566406 27.2131 1.00979 27.6529 1.55674 27.6529H23.4445C23.9915 27.6529 24.4349 27.2131 24.4349 26.6706V16.4823C24.4349 15.9398 23.9915 15.5 23.4445 15.5Z" fill="#004AD9"/>
  <path d="M3.26465 12.5V7.28269C3.26465 5.08919 5.06408 3.3043 7.27545 3.3043H29.6366L42.7361 16.2979V17.1194H45.5633V15.8466C45.5633 15.392 45.3813 14.956 45.0571 14.6345L31.3137 1.00205C30.9895 0.680548 30.5499 0.5 30.0917 0.5H7.27545C3.49882 0.5 0.4375 3.53658 0.4375 7.28269V12.5H3.26465Z" fill="#262626"/>
  <path d="M42.7361 19.4785V53.7177C42.7361 55.9112 40.9367 57.6961 38.7253 57.6961H7.27545C5.06408 57.6961 3.26465 55.9112 3.26465 53.7177V30.5007H0.4375V53.7177C0.4375 57.4638 3.49882 60.5004 7.27545 60.5004H38.7253C42.502 60.5004 45.5633 57.4638 45.5633 53.7177V19.4785H42.7361Z" fill="#262626"/>
</svg>