<svg width="170" height="42" viewBox="0 0 170 42" fill="none" xmlns="http://www.w3.org/2000/svg">
<path d="M169.601 1.13892V4.22017H164.529V20.1718H160.712V4.22017H155.64V1.13892H169.601Z" fill="#37008F"/>
<path d="M146.604 20.3628C145.277 20.3628 144.078 20.1355 143.005 19.6811C141.951 19.2266 141.114 18.5722 140.496 17.7178C139.878 16.8634 139.56 15.8545 139.542 14.6911H143.632C143.687 15.4728 143.959 16.0908 144.45 16.5453C144.959 16.9998 145.65 17.227 146.523 17.227C147.413 17.227 148.113 17.0179 148.622 16.5998C149.131 16.1635 149.386 15.6 149.386 14.9092C149.386 14.3457 149.213 13.8821 148.868 13.5186C148.522 13.155 148.086 12.8732 147.559 12.6733C147.05 12.4551 146.341 12.2188 145.432 11.9643C144.196 11.6007 143.187 11.2463 142.405 10.9009C141.642 10.5373 140.978 10.001 140.415 9.29207C139.869 8.56493 139.597 7.60147 139.597 6.40169C139.597 5.27462 139.878 4.29298 140.442 3.45677C141.005 2.62056 141.796 1.98431 142.814 1.54803C143.832 1.09356 144.996 0.866333 146.304 0.866333C148.268 0.866333 149.858 1.34806 151.076 2.31152C152.312 3.25681 152.994 4.58384 153.121 6.29262H148.922C148.886 5.63819 148.604 5.10192 148.077 4.68382C147.568 4.24753 146.886 4.02939 146.032 4.02939C145.286 4.02939 144.687 4.22027 144.232 4.60202C143.796 4.98376 143.578 5.53821 143.578 6.26535C143.578 6.77435 143.741 7.20154 144.068 7.54693C144.414 7.87415 144.832 8.14682 145.323 8.36497C145.832 8.56493 146.541 8.80125 147.45 9.07393C148.686 9.4375 149.695 9.80107 150.476 10.1646C151.258 10.5282 151.931 11.0736 152.494 11.8007C153.058 12.5278 153.34 13.4822 153.34 14.6638C153.34 15.6818 153.076 16.6271 152.549 17.4997C152.022 18.3722 151.249 19.0721 150.231 19.5993C149.213 20.1083 148.004 20.3628 146.604 20.3628Z" fill="#37008F"/>
<path d="M129.338 4.2201V8.99195H135.745V12.0187H129.338V17.0632H136.563V20.1717H125.52V1.11157H136.563V4.2201H129.338Z" fill="#37008F"/>
<path d="M117.868 20.1718L113.669 12.755H111.869V20.1718H108.052V1.13892H115.196C116.668 1.13892 117.923 1.4025 118.959 1.92968C119.995 2.43868 120.768 3.13855 121.277 4.0293C121.804 4.90187 122.067 5.8835 122.067 6.97422C122.067 8.22853 121.704 9.36469 120.977 10.3827C120.25 11.3825 119.168 12.0733 117.732 12.455L122.286 20.1718H117.868ZM111.869 9.89187H115.06C116.096 9.89187 116.868 9.64646 117.377 9.15564C117.886 8.64664 118.141 7.94677 118.141 7.05602C118.141 6.18345 117.886 5.51085 117.377 5.03821C116.868 4.54739 116.096 4.30198 115.06 4.30198H111.869V9.89187Z" fill="#37008F"/>
<path d="M86.1938 10.6283C86.1938 8.75588 86.612 7.08346 87.4482 5.611C88.3026 4.12036 89.4569 2.96603 90.9112 2.14799C92.3836 1.31178 94.0288 0.893677 95.8467 0.893677C97.9736 0.893677 99.8369 1.43903 101.437 2.52974C103.036 3.62045 104.154 5.12927 104.791 7.05619H100.4C99.9641 6.14726 99.346 5.46557 98.5462 5.01111C97.7645 4.55665 96.8556 4.32941 95.8194 4.32941C94.7105 4.32941 93.7198 4.593 92.8472 5.12018C91.9928 5.62918 91.3202 6.35632 90.8294 7.3016C90.3567 8.24688 90.1204 9.35577 90.1204 10.6283C90.1204 11.8826 90.3567 12.9915 90.8294 13.9549C91.3202 14.9002 91.9928 15.6364 92.8472 16.1636C93.7198 16.6726 94.7105 16.9271 95.8194 16.9271C96.8556 16.9271 97.7645 16.6999 98.5462 16.2454C99.346 15.7728 99.9641 15.082 100.4 14.1731H104.791C104.154 16.1182 103.036 17.6361 101.437 18.7268C99.855 19.7993 97.9917 20.3356 95.8467 20.3356C94.0288 20.3356 92.3836 19.9266 90.9112 19.1085C89.4569 18.2723 88.3026 17.118 87.4482 15.6455C86.612 14.1731 86.1938 12.5007 86.1938 10.6283Z" fill="#37008F"/>
<path d="M69.9288 4.2201V8.99195H76.3368V12.0187H69.9288V17.0632H77.1548V20.1717H66.1113V1.11157H77.1548V4.2201H69.9288Z" fill="#37008F"/>
<path d="M58.4337 6.86532C57.9974 6.06546 57.3975 5.45648 56.634 5.03838C55.8705 4.62027 54.9797 4.41122 53.9617 4.41122C52.8347 4.41122 51.8349 4.66572 50.9623 5.17472C50.0897 5.68371 49.408 6.41085 48.9172 7.35614C48.4264 8.30142 48.181 9.39213 48.181 10.6283C48.181 11.9008 48.4264 13.0097 48.9172 13.9549C49.4262 14.9002 50.1261 15.6274 51.0168 16.1364C51.9076 16.6454 52.9437 16.8999 54.1254 16.8999C55.5796 16.8999 56.7703 16.5181 57.6974 15.7546C58.6245 14.9729 59.2335 13.8913 59.5244 12.5097H52.9801V9.59209H63.2873V12.9188C63.0328 14.2458 62.4875 15.4728 61.6513 16.5999C60.8151 17.727 59.7334 18.6359 58.4064 19.3267C57.0975 19.9993 55.6251 20.3356 53.989 20.3356C52.153 20.3356 50.4896 19.9266 48.999 19.1085C47.5265 18.2723 46.3631 17.118 45.5087 15.6455C44.6725 14.1731 44.2544 12.5007 44.2544 10.6283C44.2544 8.75588 44.6725 7.08346 45.5087 5.611C46.3631 4.12036 47.5265 2.96603 48.999 2.14799C50.4896 1.31178 52.1439 0.893677 53.9617 0.893677C56.1068 0.893677 57.9701 1.42085 59.5517 2.47521C61.1332 3.51138 62.2239 4.97475 62.8238 6.86532H58.4337Z" fill="#37008F"/>
<path d="M32.2886 1.13892C34.2882 1.13892 36.0425 1.52975 37.5513 2.31143C39.0783 3.0931 40.2508 4.21108 41.0689 5.66536C41.9051 7.10147 42.3232 8.77389 42.3232 10.6826C42.3232 12.5914 41.9051 14.2638 41.0689 15.6999C40.2508 17.1178 39.0783 18.2176 37.5513 18.9993C36.0425 19.781 34.2882 20.1718 32.2886 20.1718H25.6353V1.13892H32.2886ZM32.1523 16.9269C34.1519 16.9269 35.6971 16.3816 36.7878 15.2909C37.8785 14.2002 38.4239 12.6641 38.4239 10.6826C38.4239 8.70117 37.8785 7.156 36.7878 6.04711C35.6971 4.92004 34.1519 4.35651 32.1523 4.35651H29.4528V16.9269H32.1523Z" fill="#37008F"/>
<path d="M21.8639 1.13892V20.1718H18.0464V1.13892H21.8639Z" fill="#37008F"/>
<path d="M10.3945 20.1718L6.1953 12.755H4.39562V20.1718H0.578125V1.13892H7.7223C9.19476 1.13892 10.4491 1.4025 11.4853 1.92968C12.5214 2.43868 13.294 3.13855 13.803 4.0293C14.3302 4.90187 14.5938 5.8835 14.5938 6.97422C14.5938 8.22853 14.2302 9.36469 13.5031 10.3827C12.7759 11.3825 11.6943 12.0733 10.2582 12.455L14.8119 20.1718H10.3945ZM4.39562 9.89187H7.58596C8.62214 9.89187 9.39473 9.64646 9.90373 9.15564C10.4127 8.64664 10.6672 7.94677 10.6672 7.05602C10.6672 6.18345 10.4127 5.51085 9.90373 5.03821C9.39473 4.54739 8.62214 4.30198 7.58596 4.30198H4.39562V9.89187Z" fill="#37008F"/>
<rect x="0.578125" y="26.7867" width="169.286" height="14.3468" rx="3.39372" fill="#00B977"/>
<path d="M163.864 32.4252C163.864 32.861 163.759 33.2696 163.549 33.6509C163.347 34.0322 163.024 34.3396 162.58 34.5731C162.144 34.8066 161.592 34.9233 160.922 34.9233H159.557V38.0518H157.922V29.9037H160.922C161.553 29.9037 162.09 30.0126 162.533 30.2305C162.977 30.4485 163.308 30.7481 163.526 31.1294C163.751 31.5107 163.864 31.9427 163.864 32.4252ZM160.852 33.6042C161.304 33.6042 161.638 33.503 161.856 33.3007C162.074 33.0906 162.183 32.7987 162.183 32.4252C162.183 31.6314 161.74 31.2345 160.852 31.2345H159.557V33.6042H160.852Z" fill="white"/>
<path d="M147.542 29.9037V34.9466C147.542 35.4992 147.686 35.9233 147.974 36.2191C148.262 36.507 148.667 36.651 149.188 36.651C149.717 36.651 150.126 36.507 150.414 36.2191C150.702 35.9233 150.846 35.4992 150.846 34.9466V29.9037H152.492V34.935C152.492 35.6276 152.34 36.2152 152.036 36.6977C151.741 37.1724 151.34 37.5304 150.834 37.7716C150.336 38.0129 149.779 38.1335 149.165 38.1335C148.558 38.1335 148.005 38.0129 147.507 37.7716C147.017 37.5304 146.628 37.1724 146.34 36.6977C146.052 36.2152 145.908 35.6276 145.908 34.935V29.9037H147.542Z" fill="white"/>
<path d="M136.695 38.1333C135.932 38.1333 135.232 37.9543 134.594 37.5963C133.955 37.2383 133.45 36.7442 133.076 36.1138C132.702 35.4756 132.516 34.7558 132.516 33.9542C132.516 33.1604 132.702 32.4483 133.076 31.8179C133.45 31.1798 133.955 30.6817 134.594 30.3237C135.232 29.9657 135.932 29.7867 136.695 29.7867C137.465 29.7867 138.166 29.9657 138.796 30.3237C139.434 30.6817 139.936 31.1798 140.302 31.8179C140.675 32.4483 140.862 33.1604 140.862 33.9542C140.862 34.7558 140.675 35.4756 140.302 36.1138C139.936 36.7442 139.434 37.2383 138.796 37.5963C138.158 37.9543 137.457 38.1333 136.695 38.1333ZM136.695 36.6741C137.185 36.6741 137.617 36.5652 137.991 36.3473C138.364 36.1216 138.656 35.8025 138.866 35.39C139.076 34.9776 139.181 34.499 139.181 33.9542C139.181 33.4094 139.076 32.9347 138.866 32.53C138.656 32.1176 138.364 31.8024 137.991 31.5845C137.617 31.3666 137.185 31.2576 136.695 31.2576C136.204 31.2576 135.769 31.3666 135.387 31.5845C135.014 31.8024 134.722 32.1176 134.512 32.53C134.302 32.9347 134.197 33.4094 134.197 33.9542C134.197 34.499 134.302 34.9776 134.512 35.39C134.722 35.8025 135.014 36.1216 135.387 36.3473C135.769 36.5652 136.204 36.6741 136.695 36.6741Z" fill="white"/>
<path d="M125.785 38.0518L123.987 34.8766H123.217V38.0518H121.583V29.9037H124.641C125.271 29.9037 125.808 30.0165 126.252 30.2422C126.696 30.4601 127.026 30.7597 127.244 31.1411C127.47 31.5146 127.583 31.9349 127.583 32.4018C127.583 32.9388 127.427 33.4252 127.116 33.861C126.804 34.289 126.341 34.5848 125.727 34.7482L127.676 38.0518H125.785ZM123.217 33.6509H124.583C125.026 33.6509 125.357 33.5458 125.575 33.3357C125.793 33.1178 125.902 32.8182 125.902 32.4368C125.902 32.0633 125.793 31.7753 125.575 31.573C125.357 31.3629 125.026 31.2578 124.583 31.2578H123.217V33.6509Z" fill="white"/>
<path d="M114.443 32.3548C114.256 32.0124 113.999 31.7517 113.672 31.5727C113.345 31.3937 112.964 31.3042 112.528 31.3042C112.046 31.3042 111.618 31.4132 111.244 31.6311C110.871 31.849 110.579 32.1603 110.369 32.565C110.159 32.9696 110.054 33.4366 110.054 33.9658C110.054 34.5106 110.159 34.9853 110.369 35.39C110.587 35.7946 110.886 36.1059 111.268 36.3238C111.649 36.5417 112.093 36.6507 112.598 36.6507C113.221 36.6507 113.731 36.4873 114.128 36.1604C114.525 35.8258 114.785 35.3627 114.91 34.7713H112.108V33.5222H116.521V34.9464C116.412 35.5145 116.178 36.0398 115.82 36.5223C115.462 37.0048 114.999 37.3939 114.431 37.6896C113.871 37.9776 113.24 38.1216 112.54 38.1216C111.754 38.1216 111.042 37.9465 110.404 37.5963C109.773 37.2383 109.275 36.7441 108.91 36.1137C108.552 35.4833 108.373 34.7674 108.373 33.9658C108.373 33.1642 108.552 32.4482 108.91 31.8179C109.275 31.1797 109.773 30.6855 110.404 30.3353C111.042 29.9773 111.75 29.7983 112.528 29.7983C113.447 29.7983 114.244 30.024 114.921 30.4754C115.598 30.919 116.065 31.5455 116.322 32.3548H114.443Z" fill="white"/>
<path d="M94.5596 36.756H97.2445V38.0518H92.9253V29.9037H94.5596V36.756Z" fill="white"/>
<path d="M85.7131 36.4991H82.4678L81.9309 38.0516H80.2148L83.1449 29.8918H85.0477L87.9778 38.0516H86.2501L85.7131 36.4991ZM85.2695 35.1916L84.0905 31.783L82.9114 35.1916H85.2695Z" fill="white"/>
<path d="M75.2495 29.9037V38.0518H73.6152V29.9037H75.2495Z" fill="white"/>
<path d="M60.4067 33.9658C60.4067 33.1642 60.5857 32.4482 60.9437 31.8179C61.3095 31.1797 61.8037 30.6855 62.4263 30.3353C63.0566 29.9773 63.7609 29.7983 64.5392 29.7983C65.4497 29.7983 66.2474 30.0318 66.9323 30.4988C67.6171 30.9657 68.0957 31.6116 68.3681 32.4366H66.4887C66.3019 32.0474 66.0373 31.7556 65.6949 31.561C65.3602 31.3665 64.9711 31.2692 64.5275 31.2692C64.0528 31.2692 63.6286 31.382 63.2551 31.6077C62.8893 31.8256 62.6014 32.1369 62.3912 32.5416C62.1889 32.9463 62.0877 33.421 62.0877 33.9658C62.0877 34.5028 62.1889 34.9775 62.3912 35.39C62.6014 35.7946 62.8893 36.1098 63.2551 36.3355C63.6286 36.5534 64.0528 36.6624 64.5275 36.6624C64.9711 36.6624 65.3602 36.5651 65.6949 36.3705C66.0373 36.1682 66.3019 35.8725 66.4887 35.4833H68.3681C68.0957 36.3161 67.6171 36.9659 66.9323 37.4328C66.2552 37.892 65.4575 38.1216 64.5392 38.1216C63.7609 38.1216 63.0566 37.9465 62.4263 37.5963C61.8037 37.2383 61.3095 36.7441 60.9437 36.1137C60.5857 35.4833 60.4067 34.7674 60.4067 33.9658Z" fill="white"/>
<path d="M55.3358 38.0516H53.7015L50.001 32.46V38.0516H48.3667V29.8918H50.001L53.7015 35.4951V29.8918H55.3358V38.0516Z" fill="white"/>
<path d="M41.1545 36.4991H37.9092L37.3723 38.0516H35.6562L38.5863 29.8918H40.4891L43.4192 38.0516H41.6915L41.1545 36.4991ZM40.7109 35.1916L39.5319 31.783L38.3528 35.1916H40.7109Z" fill="white"/>
<path d="M30.6908 38.0516H29.0565L25.356 32.46V38.0516H23.7217V29.8918H25.356L29.0565 35.4951V29.8918H30.6908V38.0516Z" fill="white"/>
<path d="M18.2549 29.9037V38.0518H16.6206V29.9037H18.2549Z" fill="white"/>
<path d="M11.6094 29.9037V31.2228H8.21242V33.3124H10.8156V34.6081H8.21242V38.0518H6.57812V29.9037H11.6094Z" fill="white"/>
</svg>
