<svg width="163" height="40" viewBox="0 0 163 40" fill="none" xmlns="http://www.w3.org/2000/svg">
<path d="M162.702 0.976807V3.94028H157.824V19.2822H154.153V3.94028H149.275V0.976807H162.702Z" fill="#313131"/>
<path d="M140.584 19.4658C139.308 19.4658 138.154 19.2473 137.123 18.8102C136.109 18.3731 135.304 17.7437 134.71 16.9219C134.115 16.1002 133.809 15.1299 133.792 14.0109H137.726C137.778 14.7627 138.041 15.3572 138.513 15.7942C139.002 16.2313 139.667 16.4499 140.506 16.4499C141.362 16.4499 142.036 16.2488 142.525 15.8467C143.015 15.4271 143.259 14.8851 143.259 14.2207C143.259 13.6787 143.093 13.2329 142.761 12.8832C142.429 12.5335 142.009 12.2625 141.502 12.0702C141.013 11.8604 140.331 11.6331 139.457 11.3884C138.268 11.0387 137.297 10.6978 136.546 10.3656C135.811 10.0159 135.173 9.50013 134.631 8.81827C134.107 8.11892 133.844 7.19229 133.844 6.03837C133.844 4.95438 134.115 4.01027 134.657 3.20602C135.199 2.40177 135.96 1.78984 136.939 1.37024C137.918 0.933145 139.037 0.7146 140.296 0.7146C142.184 0.7146 143.714 1.17792 144.885 2.10455C146.074 3.0137 146.73 4.29001 146.852 5.93347H142.814C142.779 5.30406 142.508 4.78829 142.001 4.38617C141.511 3.96656 140.855 3.75675 140.034 3.75675C139.317 3.75675 138.74 3.94033 138.303 4.30749C137.883 4.67465 137.673 5.2079 137.673 5.90724C137.673 6.39678 137.831 6.80765 138.145 7.13984C138.478 7.45455 138.88 7.7168 139.352 7.9266C139.841 8.11892 140.523 8.34621 141.397 8.60847C142.586 8.95814 143.557 9.30781 144.308 9.65749C145.06 10.0072 145.707 10.5317 146.249 11.231C146.791 11.9304 147.062 12.8483 147.062 13.9847C147.062 14.9638 146.809 15.8729 146.302 16.7121C145.795 17.5514 145.051 18.2245 144.072 18.7315C143.093 19.221 141.931 19.4658 140.584 19.4658Z" fill="#313131"/>
<path d="M123.978 3.94014V8.5296H130.141V11.4406H123.978V16.2923H130.928V19.282H120.306V0.950439H130.928V3.94014H123.978Z" fill="#313131"/>
<path d="M112.947 19.2822L108.908 12.1489H107.177V19.2822H103.506V0.976807H110.377C111.793 0.976807 112.999 1.23032 113.996 1.73734C114.992 2.22689 115.735 2.90001 116.225 3.75671C116.732 4.59592 116.986 5.54004 116.986 6.58906C116.986 7.79543 116.636 8.88816 115.937 9.86724C115.237 10.8288 114.197 11.4932 112.816 11.8604L117.195 19.2822H112.947ZM107.177 9.39518H110.246C111.242 9.39518 111.985 9.15915 112.475 8.6871C112.964 8.19755 113.209 7.52443 113.209 6.66773C113.209 5.82852 112.964 5.18162 112.475 4.72705C111.985 4.25499 111.242 4.01896 110.246 4.01896H107.177V9.39518Z" fill="#313131"/>
<path d="M82.4833 10.1035C82.4833 8.30265 82.8854 6.69415 83.6897 5.27797C84.5114 3.84431 85.6216 2.7341 87.0203 1.94734C88.4365 1.14309 90.0188 0.740967 91.7671 0.740967C93.8127 0.740967 95.6048 1.26548 97.1434 2.3145C98.6819 3.36351 99.7572 4.81466 100.369 6.66792H96.1468C95.7272 5.79374 95.1327 5.1381 94.3634 4.70101C93.6116 4.26392 92.7375 4.04538 91.7409 4.04538C90.6744 4.04538 89.7215 4.29889 88.8823 4.80591C88.0606 5.29546 87.4137 5.9948 86.9416 6.90395C86.487 7.8131 86.2598 8.87961 86.2598 10.1035C86.2598 11.3098 86.487 12.3763 86.9416 13.303C87.4137 14.2121 88.0606 14.9202 88.8823 15.4272C89.7215 15.9168 90.6744 16.1615 91.7409 16.1615C92.7375 16.1615 93.6116 15.943 94.3634 15.5059C95.1327 15.0513 95.7272 14.387 96.1468 13.5128H100.369C99.7572 15.3835 98.6819 16.8434 97.1434 17.8924C95.6223 18.924 93.8302 19.4397 91.7671 19.4397C90.0188 19.4397 88.4365 19.0463 87.0203 18.2596C85.6216 17.4553 84.5114 16.3451 83.6897 14.9289C82.8854 13.5128 82.4833 11.9043 82.4833 10.1035Z" fill="#313131"/>
<path d="M66.84 3.94014V8.5296H73.003V11.4406H66.84V16.2923H73.7898V19.282H63.1685V0.950439H73.7898V3.94014H66.84Z" fill="#313131"/>
<path d="M55.784 6.48435C55.3644 5.71507 54.7874 5.12936 54.0531 4.72724C53.3188 4.32512 52.4621 4.12405 51.483 4.12405C50.399 4.12405 49.4374 4.36882 48.5982 4.85837C47.759 5.34791 47.1034 6.04725 46.6313 6.9564C46.1592 7.86555 45.9232 8.91457 45.9232 10.1035C45.9232 11.3273 46.1592 12.3938 46.6313 13.303C47.1208 14.2121 47.794 14.9115 48.6507 15.401C49.5074 15.8906 50.5039 16.1353 51.6404 16.1353C53.0391 16.1353 54.1843 15.7682 55.0759 15.0339C55.9676 14.2821 56.5533 13.2418 56.833 11.913H50.5389V9.10689H60.4522V12.3064C60.2074 13.5827 59.6829 14.7629 58.8786 15.8468C58.0744 16.9308 57.0341 17.805 55.7578 18.4694C54.499 19.1163 53.0828 19.4397 51.5093 19.4397C49.7434 19.4397 48.1436 19.0463 46.71 18.2596C45.2938 17.4553 44.1748 16.3451 43.3531 14.9289C42.5489 13.5128 42.1467 11.9043 42.1467 10.1035C42.1467 8.30265 42.5489 6.69415 43.3531 5.27797C44.1748 3.84431 45.2938 2.7341 46.71 1.94734C48.1436 1.14309 49.7347 0.740967 51.483 0.740967C53.5461 0.740967 55.3382 1.24799 56.8593 2.26204C58.3803 3.25861 59.4294 4.66605 60.0063 6.48435H55.784Z" fill="#313131"/>
<path d="M30.6385 0.976807C32.5617 0.976807 34.2489 1.3527 35.7001 2.1045C37.1687 2.8563 38.2964 3.93154 39.0832 5.33024C39.8874 6.71144 40.2895 8.31994 40.2895 10.1557C40.2895 11.9915 39.8874 13.6 39.0832 14.9812C38.2964 16.3449 37.1687 17.4027 35.7001 18.1545C34.2489 18.9063 32.5617 19.2822 30.6385 19.2822H24.2395V0.976807H30.6385ZM30.5074 16.1614C32.4306 16.1614 33.9167 15.6368 34.9658 14.5878C36.0148 13.5388 36.5393 12.0614 36.5393 10.1557C36.5393 8.25 36.0148 6.76389 34.9658 5.69739C33.9167 4.6134 32.4306 4.07141 30.5074 4.07141H27.9111V16.1614H30.5074Z" fill="#313131"/>
<path d="M20.6123 0.976807V19.2822H16.9407V0.976807H20.6123Z" fill="#313131"/>
<path d="M9.58121 19.2822L5.54248 12.1489H3.81159V19.2822H0.140015V0.976807H7.01111C8.42729 0.976807 9.63367 1.23032 10.6302 1.73734C11.6268 2.22689 12.3699 2.90001 12.8594 3.75671C13.3664 4.59592 13.6199 5.54004 13.6199 6.58906C13.6199 7.79543 13.2703 8.88816 12.5709 9.86724C11.8716 10.8288 10.8313 11.4932 9.45009 11.8604L13.8298 19.2822H9.58121ZM3.81159 9.39518H6.87998C7.87655 9.39518 8.61961 9.15915 9.10915 8.6871C9.5987 8.19755 9.84347 7.52443 9.84347 6.66773C9.84347 5.82852 9.5987 5.18162 9.10915 4.72705C8.61961 4.25499 7.87655 4.01896 6.87998 4.01896H3.81159V9.39518Z" fill="#313131"/>
<rect x="0.140015" y="25.6443" width="162.501" height="13.6414" rx="3.264" fill="#FF5E54"/>
<path d="M157.028 30.9888C157.028 31.408 156.927 31.8009 156.725 32.1677C156.53 32.5344 156.219 32.8301 155.793 33.0546C155.374 33.2792 154.842 33.3915 154.198 33.3915H152.885V36.4004H151.313V28.5637H154.198C154.805 28.5637 155.321 28.6685 155.748 28.8781C156.174 29.0877 156.493 29.3758 156.702 29.7426C156.919 30.1093 157.028 30.5248 157.028 30.9888ZM154.131 32.1228C154.565 32.1228 154.887 32.0255 155.097 31.8309C155.306 31.6288 155.411 31.3481 155.411 30.9888C155.411 30.2254 154.984 29.8436 154.131 29.8436H152.885V32.1228H154.131Z" fill="white"/>
<path d="M141.329 28.5637V33.4139C141.329 33.9453 141.468 34.3533 141.745 34.6377C142.022 34.9146 142.411 35.0531 142.912 35.0531C143.421 35.0531 143.814 34.9146 144.091 34.6377C144.368 34.3533 144.507 33.9453 144.507 33.4139V28.5637H146.09V33.4027C146.09 34.0688 145.944 34.634 145.652 35.098C145.367 35.5546 144.982 35.8989 144.495 36.1309C144.016 36.363 143.481 36.479 142.89 36.479C142.306 36.479 141.775 36.363 141.296 36.1309C140.824 35.8989 140.45 35.5546 140.173 35.098C139.896 34.634 139.757 34.0688 139.757 33.4027V28.5637H141.329Z" fill="white"/>
<path d="M130.897 36.4787C130.163 36.4787 129.49 36.3065 128.876 35.9622C128.262 35.6179 127.776 35.1426 127.416 34.5364C127.057 33.9226 126.877 33.2303 126.877 32.4593C126.877 31.6959 127.057 31.011 127.416 30.4047C127.776 29.791 128.262 29.3119 128.876 28.9676C129.49 28.6233 130.163 28.4512 130.897 28.4512C131.638 28.4512 132.311 28.6233 132.918 28.9676C133.532 29.3119 134.014 29.791 134.366 30.4047C134.725 31.011 134.905 31.6959 134.905 32.4593C134.905 33.2303 134.725 33.9226 134.366 34.5364C134.014 35.1426 133.532 35.6179 132.918 35.9622C132.304 36.3065 131.63 36.4787 130.897 36.4787ZM130.897 35.0753C131.368 35.0753 131.784 34.9705 132.143 34.7609C132.502 34.5439 132.783 34.237 132.985 33.8403C133.187 33.4436 133.288 32.9833 133.288 32.4593C133.288 31.9354 133.187 31.4788 132.985 31.0896C132.783 30.6929 132.502 30.3898 132.143 30.1802C131.784 29.9706 131.368 29.8658 130.897 29.8658C130.425 29.8658 130.006 29.9706 129.639 30.1802C129.28 30.3898 128.999 30.6929 128.797 31.0896C128.595 31.4788 128.494 31.9354 128.494 32.4593C128.494 32.9833 128.595 33.4436 128.797 33.8403C128.999 34.237 129.28 34.5439 129.639 34.7609C130.006 34.9705 130.425 35.0753 130.897 35.0753Z" fill="white"/>
<path d="M120.404 36.4004L118.675 33.3466H117.934V36.4004H116.362V28.5637H119.304C119.91 28.5637 120.426 28.6723 120.853 28.8893C121.28 29.0989 121.598 29.3871 121.807 29.7538C122.024 30.1131 122.133 30.5173 122.133 30.9664C122.133 31.4828 121.983 31.9506 121.684 32.3698C121.384 32.7814 120.939 33.0659 120.348 33.2231L122.223 36.4004H120.404ZM117.934 32.1677H119.247C119.674 32.1677 119.992 32.0666 120.202 31.8645C120.411 31.655 120.516 31.3668 120.516 31C120.516 30.6408 120.411 30.3638 120.202 30.1692C119.992 29.9671 119.674 29.8661 119.247 29.8661H117.934V32.1677Z" fill="white"/>
<path d="M109.495 30.9209C109.316 30.5916 109.069 30.3409 108.754 30.1687C108.44 29.9966 108.073 29.9105 107.654 29.9105C107.19 29.9105 106.778 30.0153 106.419 30.2248C106.06 30.4344 105.779 30.7338 105.577 31.123C105.375 31.5122 105.274 31.9613 105.274 32.4703C105.274 32.9942 105.375 33.4508 105.577 33.84C105.787 34.2293 106.075 34.5286 106.441 34.7382C106.808 34.9478 107.235 35.0526 107.721 35.0526C108.32 35.0526 108.81 34.8954 109.192 34.581C109.574 34.2592 109.825 33.8138 109.944 33.245H107.25V32.0437H111.494V33.4134C111.389 33.9598 111.164 34.465 110.82 34.9291C110.476 35.3932 110.03 35.7674 109.484 36.0518C108.945 36.3288 108.339 36.4672 107.665 36.4672C106.909 36.4672 106.224 36.2988 105.611 35.962C105.004 35.6177 104.525 35.1424 104.174 34.5361C103.829 33.9299 103.657 33.2413 103.657 32.4703C103.657 31.6994 103.829 31.0108 104.174 30.4045C104.525 29.7907 105.004 29.3154 105.611 28.9786C106.224 28.6343 106.906 28.4622 107.654 28.4622C108.537 28.4622 109.304 28.6792 109.956 29.1133C110.607 29.54 111.056 30.1425 111.303 30.9209H109.495Z" fill="white"/>
<path d="M90.3724 35.1542H92.9546V36.4004H88.8005V28.5637H90.3724V35.1542Z" fill="white"/>
<path d="M81.8639 34.9069H78.7427L78.2262 36.4001H76.5758L79.3939 28.5522H81.2239L84.042 36.4001H82.3803L81.8639 34.9069ZM81.4373 33.6494L80.3033 30.3711L79.1693 33.6494H81.4373Z" fill="white"/>
<path d="M71.8002 28.5637V36.4004H70.2284V28.5637H71.8002Z" fill="white"/>
<path d="M57.5247 32.4703C57.5247 31.6994 57.6968 31.0108 58.0411 30.4045C58.3929 29.7907 58.8682 29.3154 59.467 28.9786C60.0733 28.6343 60.7506 28.4622 61.4991 28.4622C62.3749 28.4622 63.1421 28.6867 63.8007 29.1358C64.4594 29.5849 64.9197 30.2061 65.1817 30.9995H63.3741C63.1945 30.6253 62.94 30.3446 62.6106 30.1575C62.2888 29.9704 61.9146 29.8768 61.4879 29.8768C61.0313 29.8768 60.6234 29.9853 60.2641 30.2024C59.9123 30.412 59.6354 30.7114 59.4333 31.1006C59.2387 31.4898 59.1414 31.9464 59.1414 32.4703C59.1414 32.9868 59.2387 33.4433 59.4333 33.84C59.6354 34.2293 59.9123 34.5324 60.2641 34.7495C60.6234 34.959 61.0313 35.0638 61.4879 35.0638C61.9146 35.0638 62.2888 34.9703 62.6106 34.7831C62.94 34.5885 63.1945 34.3041 63.3741 33.9299H65.1817C64.9197 34.7307 64.4594 35.3557 63.8007 35.8048C63.1496 36.2464 62.3824 36.4672 61.4991 36.4672C60.7506 36.4672 60.0733 36.2988 59.467 35.962C58.8682 35.6177 58.3929 35.1424 58.0411 34.5361C57.6968 33.9299 57.5247 33.2413 57.5247 32.4703Z" fill="white"/>
<path d="M52.6477 36.4001H51.0758L47.5168 31.0223V36.4001H45.9449V28.5522H47.5168L51.0758 33.9414V28.5522H52.6477V36.4001Z" fill="white"/>
<path d="M39.0082 34.9069H35.887L35.3705 36.4001H33.7201L36.5382 28.5522H38.3682L41.1863 36.4001H39.5246L39.0082 34.9069ZM38.5815 33.6494L37.4476 30.3711L36.3136 33.6494H38.5815Z" fill="white"/>
<path d="M28.9445 36.4001H27.3727L23.8136 31.0223V36.4001H22.2418V28.5522H23.8136L27.3727 33.9414V28.5522H28.9445V36.4001Z" fill="white"/>
<path d="M16.9842 28.5637V36.4004H15.4124V28.5637H16.9842Z" fill="white"/>
<path d="M10.5926 28.5637V29.8324H7.32549V31.8421H9.82919V33.0883H7.32549V36.4004H5.75366V28.5637H10.5926Z" fill="white"/>
</svg>
