<svg width="62" height="42" viewBox="0 0 62 42" fill="none" xmlns="http://www.w3.org/2000/svg">
<g id="Group 34400">
<path id="Vector" d="M35.9744 9.37434C35.8843 9.25837 35.7094 9.25687 35.6173 9.37127L31.4351 14.5671C31.3848 14.6296 31.2909 14.6281 31.2517 14.5581C30.0059 12.3332 25.0257 2.79777 23.9835 0.800509C23.8998 0.640062 23.6743 0.643115 23.5861 0.801163L5.10489 33.9264C5.05299 34.0194 5.14654 34.1274 5.24669 34.0909C6.20996 33.7398 7.51586 33.3664 8.49972 33.2494C8.61042 33.2363 8.70935 33.1734 8.76475 33.0767L23.4589 7.44774C23.5038 7.36941 23.6188 7.37417 23.6592 7.45488C27.982 16.0749 26.1024 24.0272 25.379 26.3798C25.3408 26.5042 25.5273 26.6035 25.6091 26.5022L35.7078 13.9822C35.7538 13.9252 35.8409 13.9258 35.8861 13.9835L51.2223 33.5773C51.2768 33.647 51.3568 33.6927 51.4445 33.7053C53.0196 33.9304 53.8063 34.1599 55.3436 34.6418C55.45 34.6752 55.5363 34.5518 55.4679 34.4638L35.9744 9.37434Z" fill="#313131"/>
<path id="Vector_2" d="M2.07689 37.2873C1.9937 37.3143 1.92438 37.3722 1.88277 37.449L0.311773 40.35C0.262396 40.4412 0.350337 40.5459 0.448553 40.5124C18.5776 34.3289 41.2573 35.4167 60.9931 41.3136C61.1013 41.3459 61.1853 41.2178 61.1129 41.1312L58.1931 37.6365C58.1489 37.5837 58.09 37.5455 58.0237 37.5269C39.9253 32.4553 19.4347 31.6645 2.07689 37.2873Z" fill="#FF5E54"/>
</g>
</svg>
