<svg width="52" height="40" viewBox="0 0 52 40" fill="none" xmlns="http://www.w3.org/2000/svg">
<g id="Group 29">
<path id="Vector" d="M34.1121 12.2563C35.4642 12.2563 36.0139 11.8007 36.2252 10.4739C36.3328 9.79707 36.3541 9.11743 36.2229 8.43495C35.9506 7.01653 35.4993 6.62581 34.0505 6.62524C27.9086 6.62297 13.1866 6.61103 7.0447 6.64174C6.26243 6.64572 5.7058 6.43756 5.15895 5.87964C3.35207 4.03751 0.0527344 0.266237 0.0527344 0.266237C8.59187 0.266237 25.7105 0.262236 34.2496 0.263394C38.4995 0.263963 41.1876 2.21699 42.3061 6.28856C43.1747 9.45128 42.8926 12.5236 41.0426 15.3394C39.6265 17.4949 37.5981 18.5914 34.9934 18.6284C34.2036 18.6397 33.4133 18.6301 32.4203 18.6301C35.1649 21.6495 48.832 36.7134 51.5783 39.7346C50.3268 39.7346 49.2642 39.7346 48.2016 39.7346C46.5968 39.7346 44.992 39.7323 43.3877 39.7368C43.051 39.738 42.7643 39.7158 42.5018 39.4246C38.1604 34.6041 17.8864 12.2534 17.8864 12.2534C23.2949 12.258 28.7035 12.2563 34.1121 12.2563Z" fill="#00B977"/>
<path id="Vector_2" d="M19.0849 18.6965C15.5091 18.6965 12.7977 18.6948 9.51099 18.6988C9.15226 18.6988 8.79008 18.7073 8.43481 18.7536C7.24059 18.9088 6.54674 19.5665 6.53408 20.7584C6.49607 24.2698 6.49607 27.7818 6.53696 31.2926C6.5502 32.4395 7.24059 33.0926 8.39277 33.2518C8.77453 33.3049 9.16493 33.3112 9.55187 33.3112C16.4719 33.3146 24.5435 33.3204 31.4635 33.3032C32.0106 33.3021 32.3745 33.4591 32.7355 33.869C34.4215 35.7836 36.1425 37.6681 37.9684 39.6935C28.9287 39.6935 18.2766 39.6859 9.23691 39.6998C6.35558 39.7043 3.94929 38.6962 2.05432 36.5378C0.951075 35.2813 0.248017 33.8136 0.166829 32.1518C-0.0277934 28.1512 -0.0796162 24.1385 0.16107 20.1448C0.416152 15.9164 3.92453 12.6276 8.20218 12.3639C9.71885 12.2702 11.2453 12.3273 12.7677 12.3136C12.9917 12.3113 13.1915 12.3268 13.3712 12.5049C15.4055 14.5155 16.8709 16.5198 19.0843 18.6965H19.0849Z" fill="#37008F"/>
</g>
</svg>
