<svg width="18" height="18" viewBox="0 0 18 18" fill="none" xmlns="http://www.w3.org/2000/svg">
<path fill-rule="evenodd" clip-rule="evenodd" d="M8.80636 2.28438C8.93138 2.23854 9.06862 2.23854 9.19364 2.28438L14.2561 4.14063C14.4777 4.22187 14.625 4.43277 14.625 4.66875V9C14.625 11.1127 13.1945 12.8032 11.8969 13.9134C11.2353 14.4794 10.5765 14.922 10.0843 15.2227C9.83763 15.3735 9.63126 15.4896 9.48529 15.5686C9.41226 15.6081 9.35425 15.6384 9.31374 15.6592C9.29348 15.6696 9.27758 15.6776 9.26637 15.6833L9.25309 15.6899L9.24915 15.6918L9.24787 15.6924C9.24787 15.6924 9.24706 15.6928 9 15.1875C8.75294 15.6928 8.75259 15.6927 8.75259 15.6927L8.75085 15.6918L8.74691 15.6899L8.73363 15.6833C8.72242 15.6776 8.70652 15.6696 8.68626 15.6592C8.64575 15.6384 8.58774 15.6081 8.51471 15.5686C8.36874 15.4896 8.16237 15.3735 7.91567 15.2227C7.42347 14.922 6.76465 14.4794 6.10307 13.9134C4.80552 12.8032 3.375 11.1127 3.375 9V4.66875C3.375 4.43277 3.5223 4.22187 3.74386 4.14063L8.80636 2.28438ZM9 15.1875L8.75259 15.6927C8.90848 15.7689 9.09117 15.7691 9.24706 15.6928L9 15.1875ZM9 14.5518C9.12717 14.4821 9.29747 14.3852 9.4977 14.2628C9.95472 13.9835 10.5615 13.5753 11.1656 13.0585C12.3993 12.003 13.5 10.5998 13.5 9V5.06162L9 3.41162L4.5 5.06162V9C4.5 10.5998 5.60073 12.003 6.83443 13.0585C7.43847 13.5753 8.04528 13.9835 8.5023 14.2628C8.70253 14.3852 8.87283 14.4821 9 14.5518Z" fill="#37008F"/>
</svg>
