<svg width="113" height="32" viewBox="0 0 113 32" fill="none" xmlns="http://www.w3.org/2000/svg">
<path d="M9.85465 0.00153307C3.36257 0.00153307 0.236748 1.7328 0.236748 6.41365V7.11898C0.236748 11.4828 1.76821 13.1749 4.5981 14.1402L10.3577 16.1601C11.9558 16.7051 12.6882 17.186 12.6882 18.4043V18.7249C12.6882 19.815 11.8559 20.2959 10.3244 20.2959H0.699147C0.199756 20.2959 0 20.4882 0 20.9692V23.8546C0 24.3355 0.166464 24.5599 0.632562 24.6561C3.36477 25.1657 6.13958 25.434 8.92245 25.4576C15.2111 25.4576 18.9103 23.6943 18.9103 19.0135V18.1799C18.9103 13.8517 17.179 12.5052 13.9164 11.3225L8.15672 9.26348C6.95448 8.81819 6.45879 8.14136 6.45879 7.24366V6.85893C6.45879 5.73681 7.3244 5.15972 8.92245 5.15972H17.0126C17.475 5.15972 17.6784 4.99942 17.6784 4.51851V1.40864C17.6784 1.05241 17.512 0.895666 17.0126 0.735364C14.6642 0.224319 12.2621 -0.0219453 9.85465 0.00153307ZM29.9635 6.95868C22.8055 6.95868 21.1076 8.78613 21.1076 16.2206C21.1076 23.6266 22.8055 25.4541 29.9635 25.4541C37.1214 25.4541 38.8193 23.6266 38.8193 16.2206C38.8193 8.78257 37.1214 6.95512 29.9635 6.95512V6.95868ZM29.9635 11.7678C32.4937 11.7678 32.9931 12.6655 32.9931 16.2206C32.9931 19.7473 32.4937 20.645 29.9635 20.645C27.4332 20.645 26.9338 19.7473 26.9338 16.2206C26.9338 12.6619 27.4369 11.7642 29.9635 11.7642V11.7678ZM50.8047 6.95868C47.9509 6.87947 45.096 7.07277 42.2818 7.53577C41.9821 7.59989 41.8194 7.63195 41.8194 8.01668V24.7808C41.8194 25.137 41.9525 25.2938 42.2818 25.2938H47.1758C47.5087 25.2938 47.6752 25.1335 47.6752 24.7808V11.7642H49.9095C52.8689 11.7642 53.1722 12.0207 53.1722 16.4771V24.7808C53.1722 25.137 53.3054 25.2938 53.6346 25.2938H58.462C58.795 25.2938 58.9614 25.1335 58.9614 24.7808V14.7458C58.9614 8.33372 57.4004 6.95512 50.8047 6.95512V6.95868ZM69.8481 6.95868C67.6592 6.9204 65.4722 7.10308 63.3228 7.50371C63.0231 7.56783 62.89 7.63195 62.89 8.01668V11.2869C62.89 11.6716 62.9898 11.7678 63.3228 11.7678H69.8481C71.5128 11.7678 72.3784 12.3128 72.3784 13.6593V14.3006L68.7162 14.3326C63.9886 14.3326 61.525 15.1662 61.4584 19.7188C61.525 25.1014 64.4547 25.4541 69.7483 25.4541C72.3174 25.4702 74.882 25.2447 77.4056 24.7808C77.9716 24.6526 78.2046 24.3961 78.2046 23.7549V12.726C78.2083 9.29554 77.1393 6.95512 69.8481 6.95512V6.95868ZM72.3821 17.6633V20.7091C71.4484 20.8741 70.5015 20.96 69.5522 20.9656C67.7211 20.9656 67.1884 20.6094 67.1884 19.3305C67.1884 18.2084 67.6212 17.6633 69.2859 17.6633H72.3821ZM87.9927 6.95512C84.4304 6.95512 81.6005 7.59633 81.6005 11.8604V24.7808C81.6005 25.137 81.7669 25.2938 82.0999 25.2938H86.9273C87.2602 25.2938 87.4267 25.1335 87.4267 24.7808V13.3672C87.4267 11.9886 88.026 11.7642 89.4613 11.7642H92.7572C93.1272 11.7642 93.3232 11.6039 93.3232 11.2833V8.01668C93.3232 7.57139 93.1568 7.40753 92.7572 7.3434C91.1833 7.08494 89.5894 6.95505 87.9927 6.95512ZM107.702 7.11542C107.634 7.10603 107.565 7.112 107.5 7.13284C107.435 7.15369 107.376 7.18885 107.327 7.23552C107.279 7.2822 107.242 7.3391 107.221 7.40173C107.199 7.46436 107.193 7.53099 107.203 7.59633V20.4206C106.412 20.559 105.609 20.6234 104.806 20.6129C101.846 20.6129 101.143 19.8755 101.143 16.1886V7.59633C101.153 7.53099 101.147 7.46436 101.125 7.40173C101.104 7.3391 101.067 7.2822 101.019 7.23552C100.97 7.18885 100.911 7.15369 100.846 7.13284C100.781 7.112 100.712 7.10603 100.644 7.11542H95.8165C95.7486 7.10603 95.6794 7.112 95.6144 7.13284C95.5494 7.15369 95.4903 7.18885 95.4418 7.23552C95.3933 7.2822 95.3568 7.3391 95.3352 7.40173C95.3135 7.46436 95.3073 7.53099 95.3171 7.59633V17.4389C95.3171 23.0175 97.3146 25.4541 103.27 25.4541C104.592 25.4655 105.911 25.3256 107.199 25.0373V25.2617C107.199 26.993 106.533 27.5059 104.003 27.5059H97.7438C97.4108 27.5059 97.2813 27.6342 97.2813 27.9869V30.9685C97.2813 31.3247 97.4145 31.4138 97.7142 31.4815C99.9893 31.8623 102.297 32.0341 104.606 31.9944C112.163 31.9944 112.996 29.5899 112.996 25.5182V7.59633C113.005 7.53099 112.999 7.46436 112.977 7.40173C112.956 7.3391 112.919 7.2822 112.871 7.23552C112.822 7.18885 112.763 7.15369 112.698 7.13284C112.633 7.112 112.564 7.10603 112.496 7.11542H107.702Z" fill="#022450"/>
</svg>
