<svg width="141" height="34" viewBox="0 0 141 34" fill="none" xmlns="http://www.w3.org/2000/svg">
<path d="M37.095 12.083H51.268V14.68H45.696V29.282H42.63V14.68H37.082V12.082H37.094L37.095 12.083ZM50.663 16.828H53.283V19.232H53.332C53.419 18.892 53.579 18.564 53.814 18.248C54.3165 17.5707 54.9966 17.0457 55.779 16.731C56.1764 16.5735 56.5996 16.4912 57.027 16.488C57.347 16.488 57.583 16.5 57.707 16.513C57.83 16.525 57.953 16.549 58.089 16.561V19.207C57.8884 19.1719 57.6866 19.1436 57.484 19.122C57.2829 19.0982 57.0806 19.0862 56.878 19.086C56.408 19.086 55.964 19.183 55.544 19.366C55.124 19.547 54.765 19.826 54.457 20.179C54.1284 20.5737 53.8767 21.0266 53.715 21.514C53.53 22.048 53.443 22.654 53.443 23.347V29.27H50.651V16.828H50.663ZM70.928 29.283H68.185V27.547H68.135C67.789 28.179 67.283 28.677 66.603 29.053C65.923 29.429 65.231 29.623 64.527 29.623C62.859 29.623 61.647 29.223 60.907 28.409C60.165 27.596 59.794 26.37 59.794 24.731V16.829H62.587V24.464C62.587 25.557 62.797 26.334 63.23 26.783C63.65 27.232 64.255 27.463 65.021 27.463C65.614 27.463 66.096 27.378 66.491 27.195C66.887 27.013 67.208 26.783 67.443 26.479C67.69 26.188 67.863 25.824 67.975 25.411C68.085 24.998 68.135 24.549 68.135 24.064V16.841H70.928V29.283ZM75.685 25.29C75.772 26.09 76.08 26.65 76.612 26.977C77.155 27.293 77.798 27.463 78.552 27.463C78.812 27.463 79.108 27.438 79.442 27.402C79.775 27.365 80.096 27.28 80.381 27.172C80.677 27.062 80.911 26.892 81.109 26.674C81.295 26.454 81.381 26.176 81.369 25.824C81.3674 25.6607 81.3314 25.4995 81.2634 25.3509C81.1953 25.2024 81.0967 25.0699 80.974 24.962C80.726 24.732 80.418 24.562 80.034 24.416C79.6063 24.2678 79.1685 24.1502 78.724 24.064C78.23 23.967 77.736 23.857 77.23 23.748C76.7203 23.6377 76.2169 23.4999 75.722 23.335C75.2579 23.1863 74.8202 22.9652 74.425 22.68C74.04 22.4113 73.7259 22.053 73.51 21.636C73.276 21.211 73.164 20.689 73.164 20.058C73.164 19.378 73.337 18.82 73.671 18.358C74.0079 17.8999 74.4428 17.5227 74.944 17.254C75.4827 16.9693 76.0617 16.7686 76.661 16.659C77.291 16.55 77.897 16.489 78.465 16.489C79.12 16.489 79.75 16.562 80.344 16.696C80.9191 16.8192 81.4672 17.0451 81.962 17.363C82.444 17.667 82.839 18.067 83.161 18.553C83.482 19.038 83.68 19.633 83.766 20.325H80.85C80.714 19.67 80.417 19.221 79.936 19.002C79.454 18.772 78.898 18.662 78.28 18.662C78.082 18.662 77.847 18.674 77.576 18.711C77.3149 18.7458 77.0579 18.8067 76.809 18.893C76.5815 18.9768 76.3751 19.1092 76.204 19.281C76.121 19.3707 76.0564 19.4758 76.0141 19.5905C75.9717 19.7051 75.9523 19.8269 75.957 19.949C75.957 20.289 76.08 20.556 76.315 20.762C76.55 20.968 76.859 21.138 77.242 21.284C77.625 21.418 78.058 21.539 78.552 21.636C79.046 21.733 79.552 21.842 80.072 21.952C80.578 22.061 81.072 22.207 81.567 22.364C82.061 22.522 82.493 22.741 82.877 23.02C83.26 23.299 83.569 23.639 83.803 24.052C84.038 24.464 84.162 24.986 84.162 25.593C84.162 26.333 83.989 26.953 83.642 27.475C83.297 27.985 82.852 28.409 82.308 28.725C81.7385 29.0531 81.1215 29.2906 80.479 29.429C79.8254 29.5728 79.1583 29.6459 78.489 29.647C77.7396 29.6555 76.9922 29.5657 76.266 29.38C75.586 29.198 74.993 28.931 74.499 28.58C74.0108 28.2253 73.6094 27.7644 73.325 27.232C73.041 26.698 72.892 26.054 72.868 25.314H75.685V25.29ZM84.903 16.83H87.016V13.09H89.809V16.83H92.329V18.88H89.81V25.533C89.81 25.823 89.822 26.067 89.847 26.285C89.871 26.492 89.933 26.674 90.02 26.819C90.1145 26.9714 90.2581 27.087 90.427 27.147C90.613 27.22 90.847 27.257 91.169 27.257C91.366 27.257 91.564 27.257 91.762 27.244C91.96 27.232 92.157 27.208 92.355 27.159V29.283C92.046 29.32 91.737 29.344 91.453 29.38C91.1537 29.4148 90.8524 29.4312 90.551 29.429C89.81 29.429 89.217 29.356 88.771 29.223C88.327 29.089 87.968 28.883 87.721 28.616C87.461 28.349 87.301 28.021 87.202 27.62C87.1058 27.1691 87.0522 26.71 87.042 26.249V18.903H84.929V16.827H84.904L84.903 16.83ZM94.306 16.83H96.951V18.516H97.001C97.395 17.788 97.939 17.278 98.643 16.963C99.3626 16.6431 100.143 16.4814 100.93 16.489C101.93 16.489 102.795 16.659 103.537 17.011C104.278 17.351 104.896 17.825 105.39 18.431C105.884 19.038 106.243 19.742 106.49 20.544C106.742 21.3783 106.867 22.2456 106.861 23.117C106.861 23.954 106.75 24.767 106.527 25.545C106.322 26.2955 105.983 27.0026 105.526 27.632C105.077 28.2389 104.493 28.7334 103.821 29.077C103.129 29.441 102.326 29.623 101.387 29.623C100.977 29.6226 100.567 29.5858 100.163 29.513C99.7601 29.4404 99.3666 29.3227 98.99 29.162C98.6159 29.0059 98.2661 28.7971 97.951 28.542C97.6401 28.294 97.3693 27.9996 97.148 27.669H97.098V33.884H94.306V16.828V16.83ZM104.068 23.068C104.069 22.5145 103.994 21.9635 103.846 21.43C103.709 20.9246 103.483 20.4478 103.178 20.022C102.889 19.617 102.513 19.281 102.079 19.038C101.612 18.7859 101.089 18.6565 100.559 18.662C99.385 18.662 98.495 19.062 97.902 19.864C97.309 20.665 97.012 21.734 97.012 23.068C97.012 23.699 97.087 24.282 97.247 24.816C97.407 25.35 97.63 25.812 97.951 26.2C98.261 26.589 98.631 26.892 99.064 27.11C99.496 27.341 100.003 27.45 100.571 27.45C101.214 27.45 101.745 27.317 102.19 27.062C102.621 26.8141 102.992 26.4744 103.277 26.067C103.561 25.654 103.772 25.192 103.895 24.671C104.009 24.1442 104.067 23.607 104.068 23.068ZM108.998 12.083H111.791V14.681H108.998V12.083ZM108.998 16.829H111.791V29.283H108.998V16.829ZM114.287 12.083H117.08V29.283H114.287V12.083ZM125.643 29.623C124.629 29.623 123.727 29.453 122.937 29.126C122.18 28.8154 121.494 28.3525 120.923 27.766C120.368 27.1677 119.942 26.4609 119.674 25.69C119.38 24.8391 119.234 23.9442 119.242 23.044C119.242 22.097 119.39 21.224 119.674 20.422C119.943 19.6516 120.368 18.9451 120.923 18.347C121.466 17.764 122.146 17.315 122.937 16.987C123.727 16.659 124.629 16.489 125.643 16.489C126.656 16.489 127.558 16.659 128.349 16.987C129.14 17.315 129.807 17.777 130.363 18.347C130.918 18.9449 131.343 19.6514 131.611 20.422C131.895 21.223 132.043 22.097 132.043 23.044C132.043 24.004 131.895 24.889 131.611 25.69C131.343 26.461 130.918 27.168 130.363 27.766C129.819 28.349 129.14 28.798 128.349 29.126C127.558 29.453 126.656 29.623 125.643 29.623ZM125.643 27.45C126.261 27.45 126.804 27.317 127.261 27.062C127.706 26.8141 128.091 26.4697 128.386 26.054C128.682 25.642 128.892 25.168 129.041 24.646C129.177 24.124 129.251 23.59 129.251 23.044C129.251 22.51 129.177 21.988 129.041 21.454C128.914 20.9475 128.691 20.4697 128.386 20.046C128.09 19.6343 127.706 19.2943 127.261 19.051C126.804 18.796 126.261 18.662 125.643 18.662C125.025 18.662 124.481 18.796 124.024 19.051C123.582 19.298 123.199 19.6374 122.9 20.046C122.599 20.4722 122.377 20.9492 122.245 21.454C122.108 21.9731 122.037 22.5073 122.034 23.044C122.034 23.59 122.109 24.124 122.245 24.646C122.381 25.168 122.603 25.642 122.9 26.054C123.196 26.467 123.567 26.807 124.024 27.062C124.481 27.329 125.025 27.45 125.643 27.45ZM132.859 16.83H134.972V13.09H137.765V16.83H140.285V18.88H137.765V25.533C137.765 25.823 137.777 26.067 137.801 26.285C137.826 26.492 137.888 26.674 137.975 26.819C138.069 26.9715 138.213 27.0873 138.382 27.147C138.568 27.22 138.802 27.257 139.124 27.257C139.321 27.257 139.519 27.257 139.717 27.244C139.915 27.232 140.112 27.208 140.31 27.159V29.283C140.001 29.32 139.692 29.344 139.408 29.38C139.109 29.4148 138.807 29.4312 138.506 29.429C137.765 29.429 137.171 29.356 136.726 29.223C136.282 29.089 135.923 28.883 135.676 28.616C135.417 28.349 135.256 28.021 135.157 27.62C135.061 27.169 135.007 26.71 134.997 26.249V18.903H132.884V16.827H132.859V16.83Z" fill="#1C1C1C"/>
<path d="M33.8316 12.0823H21.0306L17.0766 0.113281L13.1086 12.0833L0.308594 12.0703L10.6756 19.4743L6.70959 31.4303L17.0766 24.0383L27.4316 31.4303L23.4776 19.4743L33.8316 12.0823Z" fill="#04DA8D"/>
<path d="M24.3681 22.1816L23.4781 19.4746L17.0781 24.0386L24.3681 22.1816Z" fill="#126849"/>
</svg>
