<svg width="29" height="29" viewBox="0 0 29 29" fill="none" xmlns="http://www.w3.org/2000/svg">
<g id="Icon Name">
<g id="Union">
<path d="M12.0408 11.1347C11.6998 11.4771 11.1458 11.4783 10.8033 11.1373C10.4609 10.7964 10.4597 10.2423 10.8007 9.89991L13.8052 6.8826C13.9694 6.7177 14.1925 6.625 14.4252 6.625C14.6579 6.625 14.8811 6.7177 15.0453 6.8826L18.0497 9.89991C18.3907 10.2423 18.3895 10.7964 18.0471 11.1373C17.7047 11.4783 17.1507 11.4771 16.8097 11.1347L15.3001 9.61873V14.6009C15.3001 15.0842 14.9084 15.4759 14.4251 15.4759C13.9419 15.4759 13.5501 15.0842 13.5501 14.6009V9.61891L12.0408 11.1347Z" fill="#313131"/>
<path d="M5.04175 14.5001C5.525 14.5001 5.91675 14.8918 5.91675 15.3751V16.5418C5.91675 18.958 7.87551 20.9168 10.2918 20.9168H18.4584C20.8747 20.9168 22.8334 18.958 22.8334 16.5418V15.3751C22.8334 14.8918 23.2252 14.5001 23.7084 14.5001C24.1917 14.5001 24.5834 14.8918 24.5834 15.3751V16.5418C24.5834 19.9245 21.8412 22.6668 18.4584 22.6668H10.2918C6.90901 22.6668 4.16675 19.9245 4.16675 16.5418V15.3751C4.16675 14.8918 4.5585 14.5001 5.04175 14.5001Z" fill="#313131"/>
</g>
</g>
</svg>
