<svg width="18" height="18" viewBox="0 0 18 18" fill="none" xmlns="http://www.w3.org/2000/svg">
<path fill-rule="evenodd" clip-rule="evenodd" d="M4.52411 12.6477C4.30446 12.8674 4.30446 13.2236 4.52411 13.4433C4.74376 13.6629 5.09988 13.6629 5.31953 13.4433L8.9828 9.77929L12.6461 13.4433C12.8658 13.663 13.2219 13.663 13.4415 13.4433C13.6612 13.2236 13.6612 12.8674 13.4415 12.6477L9.77822 8.98372L13.4415 5.31971C13.6612 5.10002 13.6612 4.74383 13.4415 4.52414C13.2219 4.30445 12.8658 4.30445 12.6461 4.52414L8.9828 8.18815L5.31953 4.52418C5.09988 4.30449 4.74376 4.30449 4.52411 4.52418C4.30446 4.74387 4.30446 5.10006 4.52411 5.31975L8.18738 8.98372L4.52411 12.6477Z" fill="#313131"/>
</svg>
