<svg width="32" height="32" viewBox="0 0 32 32" fill="none" xmlns="http://www.w3.org/2000/svg">
<g clip-path="url(#clip0_1249_1834)">
<path d="M27 16C27 9.92486 22.0751 5 16 5C9.92486 5 5 9.92486 5 16C5 21.4903 9.02252 26.0412 14.2812 26.8664V19.1797H11.4883V16H14.2812V13.5766C14.2812 10.8197 15.9235 9.29688 18.4361 9.29688C19.6392 9.29688 20.8984 9.51172 20.8984 9.51172V12.2187H19.5114C18.145 12.2187 17.7188 13.0667 17.7188 13.9375V16H20.7695L20.2818 19.1797H17.7188V26.8664C22.9775 26.0412 27 21.4903 27 16Z" fill="#313131"/>
</g>
<defs>
<clipPath id="clip0_1249_1834">
<rect width="22" height="22" fill="white" transform="translate(5 5)"/>
</clipPath>
</defs>
</svg>
