<svg width="32" height="32" viewBox="0 0 32 32" fill="none" xmlns="http://www.w3.org/2000/svg">
<g clip-path="url(#clip0_1249_1837)">
<path d="M16 6.5709C19.0727 6.5709 19.4365 6.58437 20.6449 6.63828C21.768 6.6877 22.3744 6.87637 22.7787 7.03359C23.3133 7.24023 23.6996 7.4918 24.0994 7.8916C24.5037 8.2959 24.7508 8.67773 24.9574 9.2123C25.1146 9.6166 25.3033 10.2275 25.3527 11.3461C25.4066 12.559 25.4201 12.9229 25.4201 15.991C25.4201 19.0637 25.4066 19.4275 25.3527 20.6359C25.3033 21.759 25.1146 22.3654 24.9574 22.7697C24.7508 23.3043 24.4992 23.6906 24.0994 24.0904C23.6951 24.4947 23.3133 24.7418 22.7787 24.9484C22.3744 25.1057 21.7635 25.2943 20.6449 25.3438C19.432 25.3977 19.0682 25.4111 16 25.4111C12.9273 25.4111 12.5635 25.3977 11.3551 25.3438C10.232 25.2943 9.62559 25.1057 9.22129 24.9484C8.68672 24.7418 8.30039 24.4902 7.90059 24.0904C7.49629 23.6861 7.24922 23.3043 7.04258 22.7697C6.88535 22.3654 6.69668 21.7545 6.64727 20.6359C6.59336 19.423 6.57988 19.0592 6.57988 15.991C6.57988 12.9184 6.59336 12.5545 6.64727 11.3461C6.69668 10.223 6.88535 9.6166 7.04258 9.2123C7.24922 8.67773 7.50078 8.29141 7.90059 7.8916C8.30488 7.4873 8.68672 7.24023 9.22129 7.03359C9.62559 6.87637 10.2365 6.6877 11.3551 6.63828C12.5635 6.58437 12.9273 6.5709 16 6.5709ZM16 4.5C12.8779 4.5 12.4871 4.51348 11.2607 4.56738C10.0389 4.62129 9.19883 4.81895 8.47109 5.10195C7.71191 5.39844 7.06953 5.78926 6.43164 6.43164C5.78926 7.06953 5.39844 7.71191 5.10195 8.4666C4.81895 9.19883 4.62129 10.0344 4.56738 11.2562C4.51348 12.4871 4.5 12.8779 4.5 16C4.5 19.1221 4.51348 19.5129 4.56738 20.7393C4.62129 21.9611 4.81895 22.8012 5.10195 23.5289C5.39844 24.2881 5.78926 24.9305 6.43164 25.5684C7.06953 26.2062 7.71191 26.6016 8.4666 26.8936C9.19883 27.1766 10.0344 27.3742 11.2562 27.4281C12.4826 27.482 12.8734 27.4955 15.9955 27.4955C19.1176 27.4955 19.5084 27.482 20.7348 27.4281C21.9566 27.3742 22.7967 27.1766 23.5244 26.8936C24.2791 26.6016 24.9215 26.2062 25.5594 25.5684C26.1973 24.9305 26.5926 24.2881 26.8846 23.5334C27.1676 22.8012 27.3652 21.9656 27.4191 20.7437C27.473 19.5174 27.4865 19.1266 27.4865 16.0045C27.4865 12.8824 27.473 12.4916 27.4191 11.2652C27.3652 10.0434 27.1676 9.20332 26.8846 8.47559C26.6016 7.71191 26.2107 7.06953 25.5684 6.43164C24.9305 5.79375 24.2881 5.39844 23.5334 5.10645C22.8012 4.82344 21.9656 4.62578 20.7437 4.57187C19.5129 4.51348 19.1221 4.5 16 4.5Z" fill="#313131"/>
<path d="M16 10.0928C12.7387 10.0928 10.0928 12.7387 10.0928 16C10.0928 19.2613 12.7387 21.9072 16 21.9072C19.2613 21.9072 21.9072 19.2613 21.9072 16C21.9072 12.7387 19.2613 10.0928 16 10.0928ZM16 19.8318C13.8842 19.8318 12.1682 18.1158 12.1682 16C12.1682 13.8842 13.8842 12.1682 16 12.1682C18.1158 12.1682 19.8318 13.8842 19.8318 16C19.8318 18.1158 18.1158 19.8318 16 19.8318Z" fill="#313131"/>
<path d="M23.5199 9.85908C23.5199 10.6228 22.9 11.2382 22.1408 11.2382C21.3771 11.2382 20.7617 10.6183 20.7617 9.85908C20.7617 9.09541 21.3816 8.47998 22.1408 8.47998C22.9 8.47998 23.5199 9.0999 23.5199 9.85908Z" fill="#313131"/>
</g>
<defs>
<clipPath id="clip0_1249_1837">
<rect width="23" height="23" fill="white" transform="translate(4.5 4.5)"/>
</clipPath>
</defs>
</svg>
