<svg width="16" height="16" viewBox="0 0 16 16" fill="none" xmlns="http://www.w3.org/2000/svg">
<path fill-rule="evenodd" clip-rule="evenodd" d="M8.271 11.5681C8.07532 11.763 8.07465 12.0795 8.2695 12.2752C8.46434 12.4709 8.78092 12.4716 8.9766 12.2767L12.5781 8.69052C12.6724 8.59669 12.7253 8.46919 12.7253 8.33621C12.7253 8.20324 12.6724 8.07574 12.5781 7.98191L8.9766 4.39569C8.78092 4.20085 8.46434 4.20152 8.2695 4.3972C8.07465 4.59288 8.07532 4.90946 8.271 5.10431L11.0144 7.83606H3.75C3.47386 7.83606 3.25 8.05992 3.25 8.33606C3.25 8.61221 3.47386 8.83606 3.75 8.83606H11.0147L8.271 11.5681Z" fill="#313131"/>
</svg>
