<svg width="32" height="32" viewBox="0 0 32 32" fill="none" xmlns="http://www.w3.org/2000/svg">
<g clip-path="url(#clip0_1249_1847)">
<path d="M11.921 24.9377C20.2208 24.9377 24.7618 18.0597 24.7618 12.0969C24.7618 11.9035 24.7575 11.7059 24.7489 11.5125C25.6322 10.8737 26.3945 10.0824 27 9.17587C26.1773 9.5419 25.3038 9.78095 24.4094 9.88486C25.3512 9.32035 26.0563 8.43353 26.3941 7.3888C25.5082 7.91386 24.5393 8.28424 23.529 8.48408C22.8483 7.76078 21.9482 7.28187 20.968 7.1214C19.9879 6.96092 18.9821 7.12781 18.1063 7.59627C17.2304 8.06473 16.5333 8.80866 16.1227 9.71305C15.7121 10.6174 15.6108 11.6319 15.8346 12.5996C14.0406 12.5096 12.2856 12.0436 10.6833 11.2318C9.08102 10.42 7.66722 9.2805 6.53355 7.88724C5.95737 8.88066 5.78105 10.0562 6.04044 11.1749C6.29984 12.2937 6.97547 13.2717 7.93004 13.9102C7.21341 13.8874 6.51248 13.6945 5.88516 13.3473V13.4031C5.88451 14.4457 6.24492 15.4562 6.90512 16.2631C7.56531 17.0699 8.48455 17.6232 9.50656 17.8289C8.84272 18.0106 8.14598 18.037 7.47027 17.9063C7.75867 18.8028 8.31978 19.587 9.07529 20.1493C9.8308 20.7116 10.743 21.0241 11.6846 21.043C10.0861 22.2987 8.11133 22.9798 6.07852 22.9766C5.71801 22.976 5.35787 22.9539 5 22.9104C7.06512 24.2353 9.4674 24.939 11.921 24.9377Z" fill="#313131"/>
</g>
<defs>
<clipPath id="clip0_1249_1847">
<rect width="22" height="22" fill="white" transform="translate(5 5)"/>
</clipPath>
</defs>
</svg>
